G04 #@! TF.GenerationSoftware,KiCad,Pcbnew,(5.1.8)-1*
G04 #@! TF.CreationDate,2021-04-25T20:11:45+02:00*
G04 #@! TF.ProjectId,FSG_Reference,4653475f-5265-4666-9572-656e63652e6b,rev?*
G04 #@! TF.SameCoordinates,Original*
G04 #@! TF.FileFunction,Legend,Bot*
G04 #@! TF.FilePolarity,Positive*
%FSLAX46Y46*%
G04 Gerber Fmt 4.6, Leading zero omitted, Abs format (unit mm)*
G04 Created by KiCad (PCBNEW (5.1.8)-1) date 2021-04-25 20:11:45*
%MOMM*%
%LPD*%
G01*
G04 APERTURE LIST*
%ADD10C,0.120000*%
%ADD11C,0.150000*%
G04 APERTURE END LIST*
D10*
X94509000Y-154092264D02*
X94509000Y-152638136D01*
X92689000Y-154092264D02*
X92689000Y-152638136D01*
X71657800Y-155705400D02*
X71657800Y-154205400D01*
X71657800Y-154205400D02*
X71927800Y-154205400D01*
X71927800Y-154205400D02*
X71927800Y-151375400D01*
X78557800Y-155705400D02*
X78557800Y-154205400D01*
X78557800Y-154205400D02*
X78287800Y-154205400D01*
X78287800Y-154205400D02*
X78287800Y-153105400D01*
X122038000Y-162849800D02*
X117738000Y-162849800D01*
X117738000Y-162849800D02*
X117738000Y-157149800D01*
X122038000Y-162849800D02*
X122038000Y-157149800D01*
X72974148Y-149804800D02*
X74396652Y-149804800D01*
X72974148Y-147984800D02*
X74396652Y-147984800D01*
X117490400Y-170365200D02*
X117490400Y-168905200D01*
X114330400Y-170365200D02*
X114330400Y-168205200D01*
X114330400Y-170365200D02*
X115260400Y-170365200D01*
X117490400Y-170365200D02*
X116560400Y-170365200D01*
X79176200Y-157761148D02*
X79176200Y-159183652D01*
X80996200Y-157761148D02*
X80996200Y-159183652D01*
X99411200Y-159324664D02*
X99411200Y-157870536D01*
X97591200Y-159324664D02*
X97591200Y-157870536D01*
X105761200Y-149607164D02*
X105761200Y-148153036D01*
X103941200Y-149607164D02*
X103941200Y-148153036D01*
X100004200Y-157870536D02*
X100004200Y-159324664D01*
X101824200Y-157870536D02*
X101824200Y-159324664D01*
X104237200Y-159322664D02*
X104237200Y-157868536D01*
X102417200Y-159322664D02*
X102417200Y-157868536D01*
X105862800Y-143819964D02*
X105862800Y-142365836D01*
X104042800Y-143819964D02*
X104042800Y-142365836D01*
X101540900Y-142391236D02*
X101540900Y-143845364D01*
X103360900Y-142391236D02*
X103360900Y-143845364D01*
X109329900Y-159337364D02*
X109329900Y-157883236D01*
X107509900Y-159337364D02*
X107509900Y-157883236D01*
X98573000Y-143819964D02*
X98573000Y-142365836D01*
X96753000Y-143819964D02*
X96753000Y-142365836D01*
X81047000Y-163962164D02*
X81047000Y-162508036D01*
X79227000Y-163962164D02*
X79227000Y-162508036D01*
X81665400Y-162508036D02*
X81665400Y-163962164D01*
X83485400Y-162508036D02*
X83485400Y-163962164D01*
X90191000Y-145212964D02*
X90191000Y-143758836D01*
X88371000Y-145212964D02*
X88371000Y-143758836D01*
X87676400Y-145212964D02*
X87676400Y-143758836D01*
X85856400Y-145212964D02*
X85856400Y-143758836D01*
X105786600Y-154357652D02*
X105786600Y-152935148D01*
X103966600Y-154357652D02*
X103966600Y-152935148D01*
X80996200Y-154178052D02*
X80996200Y-152755548D01*
X79176200Y-154178052D02*
X79176200Y-152755548D01*
X101011400Y-143842052D02*
X101011400Y-142419548D01*
X99191400Y-143842052D02*
X99191400Y-142419548D01*
X72974148Y-147290200D02*
X74396652Y-147290200D01*
X72974148Y-145470200D02*
X74396652Y-145470200D01*
X103194800Y-150509200D02*
X103194800Y-152459200D01*
X103194800Y-150509200D02*
X103194800Y-148559200D01*
X98074800Y-150509200D02*
X98074800Y-152459200D01*
X98074800Y-150509200D02*
X98074800Y-147059200D01*
X96998200Y-159261164D02*
X96998200Y-157807036D01*
X95178200Y-159261164D02*
X95178200Y-157807036D01*
X96998200Y-154056164D02*
X96998200Y-152602036D01*
X95178200Y-154056164D02*
X95178200Y-152602036D01*
X109758600Y-170432000D02*
X108828600Y-170432000D01*
X106598600Y-170432000D02*
X107528600Y-170432000D01*
X106598600Y-170432000D02*
X106598600Y-168272000D01*
X109758600Y-170432000D02*
X109758600Y-168972000D01*
X109479200Y-149096000D02*
X108549200Y-149096000D01*
X106319200Y-149096000D02*
X107249200Y-149096000D01*
X106319200Y-149096000D02*
X106319200Y-146936000D01*
X109479200Y-149096000D02*
X109479200Y-147636000D01*
X110347600Y-157345600D02*
X111277600Y-157345600D01*
X113507600Y-157345600D02*
X112577600Y-157345600D01*
X113507600Y-157345600D02*
X113507600Y-159505600D01*
X110347600Y-157345600D02*
X110347600Y-158805600D01*
X73060936Y-144674000D02*
X74265064Y-144674000D01*
X73060936Y-142854000D02*
X74265064Y-142854000D01*
X92765200Y-157810148D02*
X92765200Y-159232652D01*
X94585200Y-157810148D02*
X94585200Y-159232652D01*
X104969900Y-157899048D02*
X104969900Y-159321552D01*
X106789900Y-157899048D02*
X106789900Y-159321552D01*
X113482200Y-170416000D02*
X112552200Y-170416000D01*
X110322200Y-170416000D02*
X111252200Y-170416000D01*
X110322200Y-170416000D02*
X110322200Y-168256000D01*
X113482200Y-170416000D02*
X113482200Y-168956000D01*
D11*
X95871380Y-152722342D02*
X95395190Y-152389009D01*
X95871380Y-152150914D02*
X94871380Y-152150914D01*
X94871380Y-152531866D01*
X94919000Y-152627104D01*
X94966619Y-152674723D01*
X95061857Y-152722342D01*
X95204714Y-152722342D01*
X95299952Y-152674723D01*
X95347571Y-152627104D01*
X95395190Y-152531866D01*
X95395190Y-152150914D01*
X94966619Y-153103295D02*
X94919000Y-153150914D01*
X94871380Y-153246152D01*
X94871380Y-153484247D01*
X94919000Y-153579485D01*
X94966619Y-153627104D01*
X95061857Y-153674723D01*
X95157095Y-153674723D01*
X95299952Y-153627104D01*
X95871380Y-153055676D01*
X95871380Y-153674723D01*
X94871380Y-154531866D02*
X94871380Y-154341390D01*
X94919000Y-154246152D01*
X94966619Y-154198533D01*
X95109476Y-154103295D01*
X95299952Y-154055676D01*
X95680904Y-154055676D01*
X95776142Y-154103295D01*
X95823761Y-154150914D01*
X95871380Y-154246152D01*
X95871380Y-154436628D01*
X95823761Y-154531866D01*
X95776142Y-154579485D01*
X95680904Y-154627104D01*
X95442809Y-154627104D01*
X95347571Y-154579485D01*
X95299952Y-154531866D01*
X95252333Y-154436628D01*
X95252333Y-154246152D01*
X95299952Y-154150914D01*
X95347571Y-154103295D01*
X95442809Y-154055676D01*
X70060180Y-155913495D02*
X70869704Y-155913495D01*
X70964942Y-155961114D01*
X71012561Y-156008733D01*
X71060180Y-156103971D01*
X71060180Y-156294447D01*
X71012561Y-156389685D01*
X70964942Y-156437304D01*
X70869704Y-156484923D01*
X70060180Y-156484923D01*
X70393514Y-157389685D02*
X71060180Y-157389685D01*
X70012561Y-157151590D02*
X70726847Y-156913495D01*
X70726847Y-157532542D01*
X123340380Y-158561704D02*
X122340380Y-158561704D01*
X122340380Y-158799800D01*
X122388000Y-158942657D01*
X122483238Y-159037895D01*
X122578476Y-159085514D01*
X122768952Y-159133133D01*
X122911809Y-159133133D01*
X123102285Y-159085514D01*
X123197523Y-159037895D01*
X123292761Y-158942657D01*
X123340380Y-158799800D01*
X123340380Y-158561704D01*
X122340380Y-159990276D02*
X122340380Y-159799800D01*
X122388000Y-159704561D01*
X122435619Y-159656942D01*
X122578476Y-159561704D01*
X122768952Y-159514085D01*
X123149904Y-159514085D01*
X123245142Y-159561704D01*
X123292761Y-159609323D01*
X123340380Y-159704561D01*
X123340380Y-159895038D01*
X123292761Y-159990276D01*
X123245142Y-160037895D01*
X123149904Y-160085514D01*
X122911809Y-160085514D01*
X122816571Y-160037895D01*
X122768952Y-159990276D01*
X122721333Y-159895038D01*
X122721333Y-159704561D01*
X122768952Y-159609323D01*
X122816571Y-159561704D01*
X122911809Y-159514085D01*
X74328257Y-151101942D02*
X74375876Y-151149561D01*
X74518733Y-151197180D01*
X74613971Y-151197180D01*
X74756828Y-151149561D01*
X74852066Y-151054323D01*
X74899685Y-150959085D01*
X74947304Y-150768609D01*
X74947304Y-150625752D01*
X74899685Y-150435276D01*
X74852066Y-150340038D01*
X74756828Y-150244800D01*
X74613971Y-150197180D01*
X74518733Y-150197180D01*
X74375876Y-150244800D01*
X74328257Y-150292419D01*
X73375876Y-151197180D02*
X73947304Y-151197180D01*
X73661590Y-151197180D02*
X73661590Y-150197180D01*
X73756828Y-150340038D01*
X73852066Y-150435276D01*
X73947304Y-150482895D01*
X72471114Y-150197180D02*
X72947304Y-150197180D01*
X72994923Y-150673371D01*
X72947304Y-150625752D01*
X72852066Y-150578133D01*
X72613971Y-150578133D01*
X72518733Y-150625752D01*
X72471114Y-150673371D01*
X72423495Y-150768609D01*
X72423495Y-151006704D01*
X72471114Y-151101942D01*
X72518733Y-151149561D01*
X72613971Y-151197180D01*
X72852066Y-151197180D01*
X72947304Y-151149561D01*
X72994923Y-151101942D01*
X113958019Y-169509961D02*
X113910400Y-169414723D01*
X113815161Y-169319485D01*
X113672304Y-169176628D01*
X113624685Y-169081390D01*
X113624685Y-168986152D01*
X113862780Y-169033771D02*
X113815161Y-168938533D01*
X113719923Y-168843295D01*
X113529447Y-168795676D01*
X113196114Y-168795676D01*
X113005638Y-168843295D01*
X112910400Y-168938533D01*
X112862780Y-169033771D01*
X112862780Y-169224247D01*
X112910400Y-169319485D01*
X113005638Y-169414723D01*
X113196114Y-169462342D01*
X113529447Y-169462342D01*
X113719923Y-169414723D01*
X113815161Y-169319485D01*
X113862780Y-169224247D01*
X113862780Y-169033771D01*
X112862780Y-170367104D02*
X112862780Y-169890914D01*
X113338971Y-169843295D01*
X113291352Y-169890914D01*
X113243733Y-169986152D01*
X113243733Y-170224247D01*
X113291352Y-170319485D01*
X113338971Y-170367104D01*
X113434209Y-170414723D01*
X113672304Y-170414723D01*
X113767542Y-170367104D01*
X113815161Y-170319485D01*
X113862780Y-170224247D01*
X113862780Y-169986152D01*
X113815161Y-169890914D01*
X113767542Y-169843295D01*
X78593342Y-158305733D02*
X78640961Y-158258114D01*
X78688580Y-158115257D01*
X78688580Y-158020019D01*
X78640961Y-157877161D01*
X78545723Y-157781923D01*
X78450485Y-157734304D01*
X78260009Y-157686685D01*
X78117152Y-157686685D01*
X77926676Y-157734304D01*
X77831438Y-157781923D01*
X77736200Y-157877161D01*
X77688580Y-158020019D01*
X77688580Y-158115257D01*
X77736200Y-158258114D01*
X77783819Y-158305733D01*
X78117152Y-158877161D02*
X78069533Y-158781923D01*
X78021914Y-158734304D01*
X77926676Y-158686685D01*
X77879057Y-158686685D01*
X77783819Y-158734304D01*
X77736200Y-158781923D01*
X77688580Y-158877161D01*
X77688580Y-159067638D01*
X77736200Y-159162876D01*
X77783819Y-159210495D01*
X77879057Y-159258114D01*
X77926676Y-159258114D01*
X78021914Y-159210495D01*
X78069533Y-159162876D01*
X78117152Y-159067638D01*
X78117152Y-158877161D01*
X78164771Y-158781923D01*
X78212390Y-158734304D01*
X78307628Y-158686685D01*
X78498104Y-158686685D01*
X78593342Y-158734304D01*
X78640961Y-158781923D01*
X78688580Y-158877161D01*
X78688580Y-159067638D01*
X78640961Y-159162876D01*
X78593342Y-159210495D01*
X78498104Y-159258114D01*
X78307628Y-159258114D01*
X78212390Y-159210495D01*
X78164771Y-159162876D01*
X78117152Y-159067638D01*
X100773580Y-157954742D02*
X100297390Y-157621409D01*
X100773580Y-157383314D02*
X99773580Y-157383314D01*
X99773580Y-157764266D01*
X99821200Y-157859504D01*
X99868819Y-157907123D01*
X99964057Y-157954742D01*
X100106914Y-157954742D01*
X100202152Y-157907123D01*
X100249771Y-157859504D01*
X100297390Y-157764266D01*
X100297390Y-157383314D01*
X99868819Y-158335695D02*
X99821200Y-158383314D01*
X99773580Y-158478552D01*
X99773580Y-158716647D01*
X99821200Y-158811885D01*
X99868819Y-158859504D01*
X99964057Y-158907123D01*
X100059295Y-158907123D01*
X100202152Y-158859504D01*
X100773580Y-158288076D01*
X100773580Y-158907123D01*
X99773580Y-159240457D02*
X99773580Y-159907123D01*
X100773580Y-159478552D01*
X107123580Y-148237242D02*
X106647390Y-147903909D01*
X107123580Y-147665814D02*
X106123580Y-147665814D01*
X106123580Y-148046766D01*
X106171200Y-148142004D01*
X106218819Y-148189623D01*
X106314057Y-148237242D01*
X106456914Y-148237242D01*
X106552152Y-148189623D01*
X106599771Y-148142004D01*
X106647390Y-148046766D01*
X106647390Y-147665814D01*
X106218819Y-148618195D02*
X106171200Y-148665814D01*
X106123580Y-148761052D01*
X106123580Y-148999147D01*
X106171200Y-149094385D01*
X106218819Y-149142004D01*
X106314057Y-149189623D01*
X106409295Y-149189623D01*
X106552152Y-149142004D01*
X107123580Y-148570576D01*
X107123580Y-149189623D01*
X106123580Y-150094385D02*
X106123580Y-149618195D01*
X106599771Y-149570576D01*
X106552152Y-149618195D01*
X106504533Y-149713433D01*
X106504533Y-149951528D01*
X106552152Y-150046766D01*
X106599771Y-150094385D01*
X106695009Y-150142004D01*
X106933104Y-150142004D01*
X107028342Y-150094385D01*
X107075961Y-150046766D01*
X107123580Y-149951528D01*
X107123580Y-149713433D01*
X107075961Y-149618195D01*
X107028342Y-149570576D01*
X99546580Y-157954742D02*
X99070390Y-157621409D01*
X99546580Y-157383314D02*
X98546580Y-157383314D01*
X98546580Y-157764266D01*
X98594200Y-157859504D01*
X98641819Y-157907123D01*
X98737057Y-157954742D01*
X98879914Y-157954742D01*
X98975152Y-157907123D01*
X99022771Y-157859504D01*
X99070390Y-157764266D01*
X99070390Y-157383314D01*
X98641819Y-158335695D02*
X98594200Y-158383314D01*
X98546580Y-158478552D01*
X98546580Y-158716647D01*
X98594200Y-158811885D01*
X98641819Y-158859504D01*
X98737057Y-158907123D01*
X98832295Y-158907123D01*
X98975152Y-158859504D01*
X99546580Y-158288076D01*
X99546580Y-158907123D01*
X98879914Y-159764266D02*
X99546580Y-159764266D01*
X98498961Y-159526171D02*
X99213247Y-159288076D01*
X99213247Y-159907123D01*
X105599580Y-157952742D02*
X105123390Y-157619409D01*
X105599580Y-157381314D02*
X104599580Y-157381314D01*
X104599580Y-157762266D01*
X104647200Y-157857504D01*
X104694819Y-157905123D01*
X104790057Y-157952742D01*
X104932914Y-157952742D01*
X105028152Y-157905123D01*
X105075771Y-157857504D01*
X105123390Y-157762266D01*
X105123390Y-157381314D01*
X104694819Y-158333695D02*
X104647200Y-158381314D01*
X104599580Y-158476552D01*
X104599580Y-158714647D01*
X104647200Y-158809885D01*
X104694819Y-158857504D01*
X104790057Y-158905123D01*
X104885295Y-158905123D01*
X105028152Y-158857504D01*
X105599580Y-158286076D01*
X105599580Y-158905123D01*
X104599580Y-159238457D02*
X104599580Y-159857504D01*
X104980533Y-159524171D01*
X104980533Y-159667028D01*
X105028152Y-159762266D01*
X105075771Y-159809885D01*
X105171009Y-159857504D01*
X105409104Y-159857504D01*
X105504342Y-159809885D01*
X105551961Y-159762266D01*
X105599580Y-159667028D01*
X105599580Y-159381314D01*
X105551961Y-159286076D01*
X105504342Y-159238457D01*
X107225180Y-142450042D02*
X106748990Y-142116709D01*
X107225180Y-141878614D02*
X106225180Y-141878614D01*
X106225180Y-142259566D01*
X106272800Y-142354804D01*
X106320419Y-142402423D01*
X106415657Y-142450042D01*
X106558514Y-142450042D01*
X106653752Y-142402423D01*
X106701371Y-142354804D01*
X106748990Y-142259566D01*
X106748990Y-141878614D01*
X106320419Y-142830995D02*
X106272800Y-142878614D01*
X106225180Y-142973852D01*
X106225180Y-143211947D01*
X106272800Y-143307185D01*
X106320419Y-143354804D01*
X106415657Y-143402423D01*
X106510895Y-143402423D01*
X106653752Y-143354804D01*
X107225180Y-142783376D01*
X107225180Y-143402423D01*
X106320419Y-143783376D02*
X106272800Y-143830995D01*
X106225180Y-143926233D01*
X106225180Y-144164328D01*
X106272800Y-144259566D01*
X106320419Y-144307185D01*
X106415657Y-144354804D01*
X106510895Y-144354804D01*
X106653752Y-144307185D01*
X107225180Y-143735757D01*
X107225180Y-144354804D01*
X101083280Y-142475442D02*
X100607090Y-142142109D01*
X101083280Y-141904014D02*
X100083280Y-141904014D01*
X100083280Y-142284966D01*
X100130900Y-142380204D01*
X100178519Y-142427823D01*
X100273757Y-142475442D01*
X100416614Y-142475442D01*
X100511852Y-142427823D01*
X100559471Y-142380204D01*
X100607090Y-142284966D01*
X100607090Y-141904014D01*
X100178519Y-142856395D02*
X100130900Y-142904014D01*
X100083280Y-142999252D01*
X100083280Y-143237347D01*
X100130900Y-143332585D01*
X100178519Y-143380204D01*
X100273757Y-143427823D01*
X100368995Y-143427823D01*
X100511852Y-143380204D01*
X101083280Y-142808776D01*
X101083280Y-143427823D01*
X101083280Y-144380204D02*
X101083280Y-143808776D01*
X101083280Y-144094490D02*
X100083280Y-144094490D01*
X100226138Y-143999252D01*
X100321376Y-143904014D01*
X100368995Y-143808776D01*
X110692280Y-157967442D02*
X110216090Y-157634109D01*
X110692280Y-157396014D02*
X109692280Y-157396014D01*
X109692280Y-157776966D01*
X109739900Y-157872204D01*
X109787519Y-157919823D01*
X109882757Y-157967442D01*
X110025614Y-157967442D01*
X110120852Y-157919823D01*
X110168471Y-157872204D01*
X110216090Y-157776966D01*
X110216090Y-157396014D01*
X109787519Y-158348395D02*
X109739900Y-158396014D01*
X109692280Y-158491252D01*
X109692280Y-158729347D01*
X109739900Y-158824585D01*
X109787519Y-158872204D01*
X109882757Y-158919823D01*
X109977995Y-158919823D01*
X110120852Y-158872204D01*
X110692280Y-158300776D01*
X110692280Y-158919823D01*
X109692280Y-159538871D02*
X109692280Y-159634109D01*
X109739900Y-159729347D01*
X109787519Y-159776966D01*
X109882757Y-159824585D01*
X110073233Y-159872204D01*
X110311328Y-159872204D01*
X110501804Y-159824585D01*
X110597042Y-159776966D01*
X110644661Y-159729347D01*
X110692280Y-159634109D01*
X110692280Y-159538871D01*
X110644661Y-159443633D01*
X110597042Y-159396014D01*
X110501804Y-159348395D01*
X110311328Y-159300776D01*
X110073233Y-159300776D01*
X109882757Y-159348395D01*
X109787519Y-159396014D01*
X109739900Y-159443633D01*
X109692280Y-159538871D01*
X99935380Y-142450042D02*
X99459190Y-142116709D01*
X99935380Y-141878614D02*
X98935380Y-141878614D01*
X98935380Y-142259566D01*
X98983000Y-142354804D01*
X99030619Y-142402423D01*
X99125857Y-142450042D01*
X99268714Y-142450042D01*
X99363952Y-142402423D01*
X99411571Y-142354804D01*
X99459190Y-142259566D01*
X99459190Y-141878614D01*
X99935380Y-143402423D02*
X99935380Y-142830995D01*
X99935380Y-143116709D02*
X98935380Y-143116709D01*
X99078238Y-143021471D01*
X99173476Y-142926233D01*
X99221095Y-142830995D01*
X99935380Y-143878614D02*
X99935380Y-144069090D01*
X99887761Y-144164328D01*
X99840142Y-144211947D01*
X99697285Y-144307185D01*
X99506809Y-144354804D01*
X99125857Y-144354804D01*
X99030619Y-144307185D01*
X98983000Y-144259566D01*
X98935380Y-144164328D01*
X98935380Y-143973852D01*
X98983000Y-143878614D01*
X99030619Y-143830995D01*
X99125857Y-143783376D01*
X99363952Y-143783376D01*
X99459190Y-143830995D01*
X99506809Y-143878614D01*
X99554428Y-143973852D01*
X99554428Y-144164328D01*
X99506809Y-144259566D01*
X99459190Y-144307185D01*
X99363952Y-144354804D01*
X82409380Y-162592242D02*
X81933190Y-162258909D01*
X82409380Y-162020814D02*
X81409380Y-162020814D01*
X81409380Y-162401766D01*
X81457000Y-162497004D01*
X81504619Y-162544623D01*
X81599857Y-162592242D01*
X81742714Y-162592242D01*
X81837952Y-162544623D01*
X81885571Y-162497004D01*
X81933190Y-162401766D01*
X81933190Y-162020814D01*
X82409380Y-163544623D02*
X82409380Y-162973195D01*
X82409380Y-163258909D02*
X81409380Y-163258909D01*
X81552238Y-163163671D01*
X81647476Y-163068433D01*
X81695095Y-162973195D01*
X81504619Y-163925576D02*
X81457000Y-163973195D01*
X81409380Y-164068433D01*
X81409380Y-164306528D01*
X81457000Y-164401766D01*
X81504619Y-164449385D01*
X81599857Y-164497004D01*
X81695095Y-164497004D01*
X81837952Y-164449385D01*
X82409380Y-163877957D01*
X82409380Y-164497004D01*
X81207780Y-162592242D02*
X80731590Y-162258909D01*
X81207780Y-162020814D02*
X80207780Y-162020814D01*
X80207780Y-162401766D01*
X80255400Y-162497004D01*
X80303019Y-162544623D01*
X80398257Y-162592242D01*
X80541114Y-162592242D01*
X80636352Y-162544623D01*
X80683971Y-162497004D01*
X80731590Y-162401766D01*
X80731590Y-162020814D01*
X81207780Y-163544623D02*
X81207780Y-162973195D01*
X81207780Y-163258909D02*
X80207780Y-163258909D01*
X80350638Y-163163671D01*
X80445876Y-163068433D01*
X80493495Y-162973195D01*
X80207780Y-164163671D02*
X80207780Y-164258909D01*
X80255400Y-164354147D01*
X80303019Y-164401766D01*
X80398257Y-164449385D01*
X80588733Y-164497004D01*
X80826828Y-164497004D01*
X81017304Y-164449385D01*
X81112542Y-164401766D01*
X81160161Y-164354147D01*
X81207780Y-164258909D01*
X81207780Y-164163671D01*
X81160161Y-164068433D01*
X81112542Y-164020814D01*
X81017304Y-163973195D01*
X80826828Y-163925576D01*
X80588733Y-163925576D01*
X80398257Y-163973195D01*
X80303019Y-164020814D01*
X80255400Y-164068433D01*
X80207780Y-164163671D01*
X91553380Y-144319233D02*
X91077190Y-143985900D01*
X91553380Y-143747804D02*
X90553380Y-143747804D01*
X90553380Y-144128757D01*
X90601000Y-144223995D01*
X90648619Y-144271614D01*
X90743857Y-144319233D01*
X90886714Y-144319233D01*
X90981952Y-144271614D01*
X91029571Y-144223995D01*
X91077190Y-144128757D01*
X91077190Y-143747804D01*
X90886714Y-145176376D02*
X91553380Y-145176376D01*
X90505761Y-144938280D02*
X91220047Y-144700185D01*
X91220047Y-145319233D01*
X89038780Y-144319233D02*
X88562590Y-143985900D01*
X89038780Y-143747804D02*
X88038780Y-143747804D01*
X88038780Y-144128757D01*
X88086400Y-144223995D01*
X88134019Y-144271614D01*
X88229257Y-144319233D01*
X88372114Y-144319233D01*
X88467352Y-144271614D01*
X88514971Y-144223995D01*
X88562590Y-144128757D01*
X88562590Y-143747804D01*
X89038780Y-145271614D02*
X89038780Y-144700185D01*
X89038780Y-144985900D02*
X88038780Y-144985900D01*
X88181638Y-144890661D01*
X88276876Y-144795423D01*
X88324495Y-144700185D01*
X107083742Y-153003542D02*
X107131361Y-152955923D01*
X107178980Y-152813066D01*
X107178980Y-152717828D01*
X107131361Y-152574971D01*
X107036123Y-152479733D01*
X106940885Y-152432114D01*
X106750409Y-152384495D01*
X106607552Y-152384495D01*
X106417076Y-152432114D01*
X106321838Y-152479733D01*
X106226600Y-152574971D01*
X106178980Y-152717828D01*
X106178980Y-152813066D01*
X106226600Y-152955923D01*
X106274219Y-153003542D01*
X107178980Y-153955923D02*
X107178980Y-153384495D01*
X107178980Y-153670209D02*
X106178980Y-153670209D01*
X106321838Y-153574971D01*
X106417076Y-153479733D01*
X106464695Y-153384495D01*
X106178980Y-154574971D02*
X106178980Y-154670209D01*
X106226600Y-154765447D01*
X106274219Y-154813066D01*
X106369457Y-154860685D01*
X106559933Y-154908304D01*
X106798028Y-154908304D01*
X106988504Y-154860685D01*
X107083742Y-154813066D01*
X107131361Y-154765447D01*
X107178980Y-154670209D01*
X107178980Y-154574971D01*
X107131361Y-154479733D01*
X107083742Y-154432114D01*
X106988504Y-154384495D01*
X106798028Y-154336876D01*
X106559933Y-154336876D01*
X106369457Y-154384495D01*
X106274219Y-154432114D01*
X106226600Y-154479733D01*
X106178980Y-154574971D01*
X82293342Y-153300133D02*
X82340961Y-153252514D01*
X82388580Y-153109657D01*
X82388580Y-153014419D01*
X82340961Y-152871561D01*
X82245723Y-152776323D01*
X82150485Y-152728704D01*
X81960009Y-152681085D01*
X81817152Y-152681085D01*
X81626676Y-152728704D01*
X81531438Y-152776323D01*
X81436200Y-152871561D01*
X81388580Y-153014419D01*
X81388580Y-153109657D01*
X81436200Y-153252514D01*
X81483819Y-153300133D01*
X82388580Y-153776323D02*
X82388580Y-153966800D01*
X82340961Y-154062038D01*
X82293342Y-154109657D01*
X82150485Y-154204895D01*
X81960009Y-154252514D01*
X81579057Y-154252514D01*
X81483819Y-154204895D01*
X81436200Y-154157276D01*
X81388580Y-154062038D01*
X81388580Y-153871561D01*
X81436200Y-153776323D01*
X81483819Y-153728704D01*
X81579057Y-153681085D01*
X81817152Y-153681085D01*
X81912390Y-153728704D01*
X81960009Y-153776323D01*
X82007628Y-153871561D01*
X82007628Y-154062038D01*
X81960009Y-154157276D01*
X81912390Y-154204895D01*
X81817152Y-154252514D01*
X102308542Y-142964133D02*
X102356161Y-142916514D01*
X102403780Y-142773657D01*
X102403780Y-142678419D01*
X102356161Y-142535561D01*
X102260923Y-142440323D01*
X102165685Y-142392704D01*
X101975209Y-142345085D01*
X101832352Y-142345085D01*
X101641876Y-142392704D01*
X101546638Y-142440323D01*
X101451400Y-142535561D01*
X101403780Y-142678419D01*
X101403780Y-142773657D01*
X101451400Y-142916514D01*
X101499019Y-142964133D01*
X101403780Y-143868895D02*
X101403780Y-143392704D01*
X101879971Y-143345085D01*
X101832352Y-143392704D01*
X101784733Y-143487942D01*
X101784733Y-143726038D01*
X101832352Y-143821276D01*
X101879971Y-143868895D01*
X101975209Y-143916514D01*
X102213304Y-143916514D01*
X102308542Y-143868895D01*
X102356161Y-143821276D01*
X102403780Y-143726038D01*
X102403780Y-143487942D01*
X102356161Y-143392704D01*
X102308542Y-143345085D01*
X73852066Y-148587342D02*
X73899685Y-148634961D01*
X74042542Y-148682580D01*
X74137780Y-148682580D01*
X74280638Y-148634961D01*
X74375876Y-148539723D01*
X74423495Y-148444485D01*
X74471114Y-148254009D01*
X74471114Y-148111152D01*
X74423495Y-147920676D01*
X74375876Y-147825438D01*
X74280638Y-147730200D01*
X74137780Y-147682580D01*
X74042542Y-147682580D01*
X73899685Y-147730200D01*
X73852066Y-147777819D01*
X72994923Y-148015914D02*
X72994923Y-148682580D01*
X73233019Y-147634961D02*
X73471114Y-148349247D01*
X72852066Y-148349247D01*
X96687180Y-149747295D02*
X97496704Y-149747295D01*
X97591942Y-149794914D01*
X97639561Y-149842533D01*
X97687180Y-149937771D01*
X97687180Y-150128247D01*
X97639561Y-150223485D01*
X97591942Y-150271104D01*
X97496704Y-150318723D01*
X96687180Y-150318723D01*
X96687180Y-151271104D02*
X96687180Y-150794914D01*
X97163371Y-150747295D01*
X97115752Y-150794914D01*
X97068133Y-150890152D01*
X97068133Y-151128247D01*
X97115752Y-151223485D01*
X97163371Y-151271104D01*
X97258609Y-151318723D01*
X97496704Y-151318723D01*
X97591942Y-151271104D01*
X97639561Y-151223485D01*
X97687180Y-151128247D01*
X97687180Y-150890152D01*
X97639561Y-150794914D01*
X97591942Y-150747295D01*
X98360580Y-157891242D02*
X97884390Y-157557909D01*
X98360580Y-157319814D02*
X97360580Y-157319814D01*
X97360580Y-157700766D01*
X97408200Y-157796004D01*
X97455819Y-157843623D01*
X97551057Y-157891242D01*
X97693914Y-157891242D01*
X97789152Y-157843623D01*
X97836771Y-157796004D01*
X97884390Y-157700766D01*
X97884390Y-157319814D01*
X97455819Y-158272195D02*
X97408200Y-158319814D01*
X97360580Y-158415052D01*
X97360580Y-158653147D01*
X97408200Y-158748385D01*
X97455819Y-158796004D01*
X97551057Y-158843623D01*
X97646295Y-158843623D01*
X97789152Y-158796004D01*
X98360580Y-158224576D01*
X98360580Y-158843623D01*
X98360580Y-159319814D02*
X98360580Y-159510290D01*
X98312961Y-159605528D01*
X98265342Y-159653147D01*
X98122485Y-159748385D01*
X97932009Y-159796004D01*
X97551057Y-159796004D01*
X97455819Y-159748385D01*
X97408200Y-159700766D01*
X97360580Y-159605528D01*
X97360580Y-159415052D01*
X97408200Y-159319814D01*
X97455819Y-159272195D01*
X97551057Y-159224576D01*
X97789152Y-159224576D01*
X97884390Y-159272195D01*
X97932009Y-159319814D01*
X97979628Y-159415052D01*
X97979628Y-159605528D01*
X97932009Y-159700766D01*
X97884390Y-159748385D01*
X97789152Y-159796004D01*
X98360580Y-152686242D02*
X97884390Y-152352909D01*
X98360580Y-152114814D02*
X97360580Y-152114814D01*
X97360580Y-152495766D01*
X97408200Y-152591004D01*
X97455819Y-152638623D01*
X97551057Y-152686242D01*
X97693914Y-152686242D01*
X97789152Y-152638623D01*
X97836771Y-152591004D01*
X97884390Y-152495766D01*
X97884390Y-152114814D01*
X97455819Y-153067195D02*
X97408200Y-153114814D01*
X97360580Y-153210052D01*
X97360580Y-153448147D01*
X97408200Y-153543385D01*
X97455819Y-153591004D01*
X97551057Y-153638623D01*
X97646295Y-153638623D01*
X97789152Y-153591004D01*
X98360580Y-153019576D01*
X98360580Y-153638623D01*
X97789152Y-154210052D02*
X97741533Y-154114814D01*
X97693914Y-154067195D01*
X97598676Y-154019576D01*
X97551057Y-154019576D01*
X97455819Y-154067195D01*
X97408200Y-154114814D01*
X97360580Y-154210052D01*
X97360580Y-154400528D01*
X97408200Y-154495766D01*
X97455819Y-154543385D01*
X97551057Y-154591004D01*
X97598676Y-154591004D01*
X97693914Y-154543385D01*
X97741533Y-154495766D01*
X97789152Y-154400528D01*
X97789152Y-154210052D01*
X97836771Y-154114814D01*
X97884390Y-154067195D01*
X97979628Y-154019576D01*
X98170104Y-154019576D01*
X98265342Y-154067195D01*
X98312961Y-154114814D01*
X98360580Y-154210052D01*
X98360580Y-154400528D01*
X98312961Y-154495766D01*
X98265342Y-154543385D01*
X98170104Y-154591004D01*
X97979628Y-154591004D01*
X97884390Y-154543385D01*
X97836771Y-154495766D01*
X97789152Y-154400528D01*
X106226219Y-169576761D02*
X106178600Y-169481523D01*
X106083361Y-169386285D01*
X105940504Y-169243428D01*
X105892885Y-169148190D01*
X105892885Y-169052952D01*
X106130980Y-169100571D02*
X106083361Y-169005333D01*
X105988123Y-168910095D01*
X105797647Y-168862476D01*
X105464314Y-168862476D01*
X105273838Y-168910095D01*
X105178600Y-169005333D01*
X105130980Y-169100571D01*
X105130980Y-169291047D01*
X105178600Y-169386285D01*
X105273838Y-169481523D01*
X105464314Y-169529142D01*
X105797647Y-169529142D01*
X105988123Y-169481523D01*
X106083361Y-169386285D01*
X106130980Y-169291047D01*
X106130980Y-169100571D01*
X105130980Y-169862476D02*
X105130980Y-170481523D01*
X105511933Y-170148190D01*
X105511933Y-170291047D01*
X105559552Y-170386285D01*
X105607171Y-170433904D01*
X105702409Y-170481523D01*
X105940504Y-170481523D01*
X106035742Y-170433904D01*
X106083361Y-170386285D01*
X106130980Y-170291047D01*
X106130980Y-170005333D01*
X106083361Y-169910095D01*
X106035742Y-169862476D01*
X105946819Y-148240761D02*
X105899200Y-148145523D01*
X105803961Y-148050285D01*
X105661104Y-147907428D01*
X105613485Y-147812190D01*
X105613485Y-147716952D01*
X105851580Y-147764571D02*
X105803961Y-147669333D01*
X105708723Y-147574095D01*
X105518247Y-147526476D01*
X105184914Y-147526476D01*
X104994438Y-147574095D01*
X104899200Y-147669333D01*
X104851580Y-147764571D01*
X104851580Y-147955047D01*
X104899200Y-148050285D01*
X104994438Y-148145523D01*
X105184914Y-148193142D01*
X105518247Y-148193142D01*
X105708723Y-148145523D01*
X105803961Y-148050285D01*
X105851580Y-147955047D01*
X105851580Y-147764571D01*
X104946819Y-148574095D02*
X104899200Y-148621714D01*
X104851580Y-148716952D01*
X104851580Y-148955047D01*
X104899200Y-149050285D01*
X104946819Y-149097904D01*
X105042057Y-149145523D01*
X105137295Y-149145523D01*
X105280152Y-149097904D01*
X105851580Y-148526476D01*
X105851580Y-149145523D01*
X114975219Y-158010361D02*
X114927600Y-157915123D01*
X114832361Y-157819885D01*
X114689504Y-157677028D01*
X114641885Y-157581790D01*
X114641885Y-157486552D01*
X114879980Y-157534171D02*
X114832361Y-157438933D01*
X114737123Y-157343695D01*
X114546647Y-157296076D01*
X114213314Y-157296076D01*
X114022838Y-157343695D01*
X113927600Y-157438933D01*
X113879980Y-157534171D01*
X113879980Y-157724647D01*
X113927600Y-157819885D01*
X114022838Y-157915123D01*
X114213314Y-157962742D01*
X114546647Y-157962742D01*
X114737123Y-157915123D01*
X114832361Y-157819885D01*
X114879980Y-157724647D01*
X114879980Y-157534171D01*
X114879980Y-158915123D02*
X114879980Y-158343695D01*
X114879980Y-158629409D02*
X113879980Y-158629409D01*
X114022838Y-158534171D01*
X114118076Y-158438933D01*
X114165695Y-158343695D01*
X73996333Y-145512571D02*
X74329666Y-145512571D01*
X74329666Y-146036380D02*
X74329666Y-145036380D01*
X73853476Y-145036380D01*
X72948714Y-146036380D02*
X73520142Y-146036380D01*
X73234428Y-146036380D02*
X73234428Y-145036380D01*
X73329666Y-145179238D01*
X73424904Y-145274476D01*
X73520142Y-145322095D01*
X92182342Y-157878542D02*
X92229961Y-157830923D01*
X92277580Y-157688066D01*
X92277580Y-157592828D01*
X92229961Y-157449971D01*
X92134723Y-157354733D01*
X92039485Y-157307114D01*
X91849009Y-157259495D01*
X91706152Y-157259495D01*
X91515676Y-157307114D01*
X91420438Y-157354733D01*
X91325200Y-157449971D01*
X91277580Y-157592828D01*
X91277580Y-157688066D01*
X91325200Y-157830923D01*
X91372819Y-157878542D01*
X92277580Y-158830923D02*
X92277580Y-158259495D01*
X92277580Y-158545209D02*
X91277580Y-158545209D01*
X91420438Y-158449971D01*
X91515676Y-158354733D01*
X91563295Y-158259495D01*
X92277580Y-159783304D02*
X92277580Y-159211876D01*
X92277580Y-159497590D02*
X91277580Y-159497590D01*
X91420438Y-159402352D01*
X91515676Y-159307114D01*
X91563295Y-159211876D01*
X104387042Y-158443633D02*
X104434661Y-158396014D01*
X104482280Y-158253157D01*
X104482280Y-158157919D01*
X104434661Y-158015061D01*
X104339423Y-157919823D01*
X104244185Y-157872204D01*
X104053709Y-157824585D01*
X103910852Y-157824585D01*
X103720376Y-157872204D01*
X103625138Y-157919823D01*
X103529900Y-158015061D01*
X103482280Y-158157919D01*
X103482280Y-158253157D01*
X103529900Y-158396014D01*
X103577519Y-158443633D01*
X103482280Y-159300776D02*
X103482280Y-159110300D01*
X103529900Y-159015061D01*
X103577519Y-158967442D01*
X103720376Y-158872204D01*
X103910852Y-158824585D01*
X104291804Y-158824585D01*
X104387042Y-158872204D01*
X104434661Y-158919823D01*
X104482280Y-159015061D01*
X104482280Y-159205538D01*
X104434661Y-159300776D01*
X104387042Y-159348395D01*
X104291804Y-159396014D01*
X104053709Y-159396014D01*
X103958471Y-159348395D01*
X103910852Y-159300776D01*
X103863233Y-159205538D01*
X103863233Y-159015061D01*
X103910852Y-158919823D01*
X103958471Y-158872204D01*
X104053709Y-158824585D01*
X109949819Y-169560761D02*
X109902200Y-169465523D01*
X109806961Y-169370285D01*
X109664104Y-169227428D01*
X109616485Y-169132190D01*
X109616485Y-169036952D01*
X109854580Y-169084571D02*
X109806961Y-168989333D01*
X109711723Y-168894095D01*
X109521247Y-168846476D01*
X109187914Y-168846476D01*
X108997438Y-168894095D01*
X108902200Y-168989333D01*
X108854580Y-169084571D01*
X108854580Y-169275047D01*
X108902200Y-169370285D01*
X108997438Y-169465523D01*
X109187914Y-169513142D01*
X109521247Y-169513142D01*
X109711723Y-169465523D01*
X109806961Y-169370285D01*
X109854580Y-169275047D01*
X109854580Y-169084571D01*
X109187914Y-170370285D02*
X109854580Y-170370285D01*
X108806961Y-170132190D02*
X109521247Y-169894095D01*
X109521247Y-170513142D01*
M02*
