G04 #@! TF.GenerationSoftware,KiCad,Pcbnew,(5.1.8)-1*
G04 #@! TF.CreationDate,2021-04-25T20:11:44+02:00*
G04 #@! TF.ProjectId,FSG_Reference,4653475f-5265-4666-9572-656e63652e6b,rev?*
G04 #@! TF.SameCoordinates,Original*
G04 #@! TF.FileFunction,Paste,Bot*
G04 #@! TF.FilePolarity,Positive*
%FSLAX46Y46*%
G04 Gerber Fmt 4.6, Leading zero omitted, Abs format (unit mm)*
G04 Created by KiCad (PCBNEW (5.1.8)-1) date 2021-04-25 20:11:44*
%MOMM*%
%LPD*%
G01*
G04 APERTURE LIST*
%ADD10R,2.750000X3.050000*%
%ADD11R,1.200000X2.200000*%
%ADD12R,2.300000X2.500000*%
%ADD13R,0.800000X0.900000*%
G04 APERTURE END LIST*
G36*
G01*
X94224001Y-152465200D02*
X92973999Y-152465200D01*
G75*
G02*
X92724000Y-152215201I0J249999D01*
G01*
X92724000Y-151590199D01*
G75*
G02*
X92973999Y-151340200I249999J0D01*
G01*
X94224001Y-151340200D01*
G75*
G02*
X94474000Y-151590199I0J-249999D01*
G01*
X94474000Y-152215201D01*
G75*
G02*
X94224001Y-152465200I-249999J0D01*
G01*
G37*
G36*
G01*
X94224001Y-155390200D02*
X92973999Y-155390200D01*
G75*
G02*
X92724000Y-155140201I0J249999D01*
G01*
X92724000Y-154515199D01*
G75*
G02*
X92973999Y-154265200I249999J0D01*
G01*
X94224001Y-154265200D01*
G75*
G02*
X94474000Y-154515199I0J-249999D01*
G01*
X94474000Y-155140201D01*
G75*
G02*
X94224001Y-155390200I-249999J0D01*
G01*
G37*
D10*
X76632800Y-157100400D03*
X73582800Y-160450400D03*
X73582800Y-157100400D03*
X76632800Y-160450400D03*
D11*
X77387800Y-152475400D03*
X72827800Y-152475400D03*
D12*
X119888000Y-157149800D03*
X119888000Y-161449800D03*
G36*
G01*
X74585400Y-149544801D02*
X74585400Y-148244799D01*
G75*
G02*
X74835399Y-147994800I249999J0D01*
G01*
X75485401Y-147994800D01*
G75*
G02*
X75735400Y-148244799I0J-249999D01*
G01*
X75735400Y-149544801D01*
G75*
G02*
X75485401Y-149794800I-249999J0D01*
G01*
X74835399Y-149794800D01*
G75*
G02*
X74585400Y-149544801I0J249999D01*
G01*
G37*
G36*
G01*
X71635400Y-149544801D02*
X71635400Y-148244799D01*
G75*
G02*
X71885399Y-147994800I249999J0D01*
G01*
X72535401Y-147994800D01*
G75*
G02*
X72785400Y-148244799I0J-249999D01*
G01*
X72785400Y-149544801D01*
G75*
G02*
X72535401Y-149794800I-249999J0D01*
G01*
X71885399Y-149794800D01*
G75*
G02*
X71635400Y-149544801I0J249999D01*
G01*
G37*
D13*
X115910400Y-170605200D03*
X116860400Y-168605200D03*
X114960400Y-168605200D03*
G36*
G01*
X79436199Y-159372400D02*
X80736201Y-159372400D01*
G75*
G02*
X80986200Y-159622399I0J-249999D01*
G01*
X80986200Y-160272401D01*
G75*
G02*
X80736201Y-160522400I-249999J0D01*
G01*
X79436199Y-160522400D01*
G75*
G02*
X79186200Y-160272401I0J249999D01*
G01*
X79186200Y-159622399D01*
G75*
G02*
X79436199Y-159372400I249999J0D01*
G01*
G37*
G36*
G01*
X79436199Y-156422400D02*
X80736201Y-156422400D01*
G75*
G02*
X80986200Y-156672399I0J-249999D01*
G01*
X80986200Y-157322401D01*
G75*
G02*
X80736201Y-157572400I-249999J0D01*
G01*
X79436199Y-157572400D01*
G75*
G02*
X79186200Y-157322401I0J249999D01*
G01*
X79186200Y-156672399D01*
G75*
G02*
X79436199Y-156422400I249999J0D01*
G01*
G37*
G36*
G01*
X99126201Y-157697600D02*
X97876199Y-157697600D01*
G75*
G02*
X97626200Y-157447601I0J249999D01*
G01*
X97626200Y-156822599D01*
G75*
G02*
X97876199Y-156572600I249999J0D01*
G01*
X99126201Y-156572600D01*
G75*
G02*
X99376200Y-156822599I0J-249999D01*
G01*
X99376200Y-157447601D01*
G75*
G02*
X99126201Y-157697600I-249999J0D01*
G01*
G37*
G36*
G01*
X99126201Y-160622600D02*
X97876199Y-160622600D01*
G75*
G02*
X97626200Y-160372601I0J249999D01*
G01*
X97626200Y-159747599D01*
G75*
G02*
X97876199Y-159497600I249999J0D01*
G01*
X99126201Y-159497600D01*
G75*
G02*
X99376200Y-159747599I0J-249999D01*
G01*
X99376200Y-160372601D01*
G75*
G02*
X99126201Y-160622600I-249999J0D01*
G01*
G37*
G36*
G01*
X105476201Y-147980100D02*
X104226199Y-147980100D01*
G75*
G02*
X103976200Y-147730101I0J249999D01*
G01*
X103976200Y-147105099D01*
G75*
G02*
X104226199Y-146855100I249999J0D01*
G01*
X105476201Y-146855100D01*
G75*
G02*
X105726200Y-147105099I0J-249999D01*
G01*
X105726200Y-147730101D01*
G75*
G02*
X105476201Y-147980100I-249999J0D01*
G01*
G37*
G36*
G01*
X105476201Y-150905100D02*
X104226199Y-150905100D01*
G75*
G02*
X103976200Y-150655101I0J249999D01*
G01*
X103976200Y-150030099D01*
G75*
G02*
X104226199Y-149780100I249999J0D01*
G01*
X105476201Y-149780100D01*
G75*
G02*
X105726200Y-150030099I0J-249999D01*
G01*
X105726200Y-150655101D01*
G75*
G02*
X105476201Y-150905100I-249999J0D01*
G01*
G37*
G36*
G01*
X100289199Y-159497600D02*
X101539201Y-159497600D01*
G75*
G02*
X101789200Y-159747599I0J-249999D01*
G01*
X101789200Y-160372601D01*
G75*
G02*
X101539201Y-160622600I-249999J0D01*
G01*
X100289199Y-160622600D01*
G75*
G02*
X100039200Y-160372601I0J249999D01*
G01*
X100039200Y-159747599D01*
G75*
G02*
X100289199Y-159497600I249999J0D01*
G01*
G37*
G36*
G01*
X100289199Y-156572600D02*
X101539201Y-156572600D01*
G75*
G02*
X101789200Y-156822599I0J-249999D01*
G01*
X101789200Y-157447601D01*
G75*
G02*
X101539201Y-157697600I-249999J0D01*
G01*
X100289199Y-157697600D01*
G75*
G02*
X100039200Y-157447601I0J249999D01*
G01*
X100039200Y-156822599D01*
G75*
G02*
X100289199Y-156572600I249999J0D01*
G01*
G37*
G36*
G01*
X103952201Y-157695600D02*
X102702199Y-157695600D01*
G75*
G02*
X102452200Y-157445601I0J249999D01*
G01*
X102452200Y-156820599D01*
G75*
G02*
X102702199Y-156570600I249999J0D01*
G01*
X103952201Y-156570600D01*
G75*
G02*
X104202200Y-156820599I0J-249999D01*
G01*
X104202200Y-157445601D01*
G75*
G02*
X103952201Y-157695600I-249999J0D01*
G01*
G37*
G36*
G01*
X103952201Y-160620600D02*
X102702199Y-160620600D01*
G75*
G02*
X102452200Y-160370601I0J249999D01*
G01*
X102452200Y-159745599D01*
G75*
G02*
X102702199Y-159495600I249999J0D01*
G01*
X103952201Y-159495600D01*
G75*
G02*
X104202200Y-159745599I0J-249999D01*
G01*
X104202200Y-160370601D01*
G75*
G02*
X103952201Y-160620600I-249999J0D01*
G01*
G37*
G36*
G01*
X105577801Y-142192900D02*
X104327799Y-142192900D01*
G75*
G02*
X104077800Y-141942901I0J249999D01*
G01*
X104077800Y-141317899D01*
G75*
G02*
X104327799Y-141067900I249999J0D01*
G01*
X105577801Y-141067900D01*
G75*
G02*
X105827800Y-141317899I0J-249999D01*
G01*
X105827800Y-141942901D01*
G75*
G02*
X105577801Y-142192900I-249999J0D01*
G01*
G37*
G36*
G01*
X105577801Y-145117900D02*
X104327799Y-145117900D01*
G75*
G02*
X104077800Y-144867901I0J249999D01*
G01*
X104077800Y-144242899D01*
G75*
G02*
X104327799Y-143992900I249999J0D01*
G01*
X105577801Y-143992900D01*
G75*
G02*
X105827800Y-144242899I0J-249999D01*
G01*
X105827800Y-144867901D01*
G75*
G02*
X105577801Y-145117900I-249999J0D01*
G01*
G37*
G36*
G01*
X101825899Y-144018300D02*
X103075901Y-144018300D01*
G75*
G02*
X103325900Y-144268299I0J-249999D01*
G01*
X103325900Y-144893301D01*
G75*
G02*
X103075901Y-145143300I-249999J0D01*
G01*
X101825899Y-145143300D01*
G75*
G02*
X101575900Y-144893301I0J249999D01*
G01*
X101575900Y-144268299D01*
G75*
G02*
X101825899Y-144018300I249999J0D01*
G01*
G37*
G36*
G01*
X101825899Y-141093300D02*
X103075901Y-141093300D01*
G75*
G02*
X103325900Y-141343299I0J-249999D01*
G01*
X103325900Y-141968301D01*
G75*
G02*
X103075901Y-142218300I-249999J0D01*
G01*
X101825899Y-142218300D01*
G75*
G02*
X101575900Y-141968301I0J249999D01*
G01*
X101575900Y-141343299D01*
G75*
G02*
X101825899Y-141093300I249999J0D01*
G01*
G37*
G36*
G01*
X109044901Y-157710300D02*
X107794899Y-157710300D01*
G75*
G02*
X107544900Y-157460301I0J249999D01*
G01*
X107544900Y-156835299D01*
G75*
G02*
X107794899Y-156585300I249999J0D01*
G01*
X109044901Y-156585300D01*
G75*
G02*
X109294900Y-156835299I0J-249999D01*
G01*
X109294900Y-157460301D01*
G75*
G02*
X109044901Y-157710300I-249999J0D01*
G01*
G37*
G36*
G01*
X109044901Y-160635300D02*
X107794899Y-160635300D01*
G75*
G02*
X107544900Y-160385301I0J249999D01*
G01*
X107544900Y-159760299D01*
G75*
G02*
X107794899Y-159510300I249999J0D01*
G01*
X109044901Y-159510300D01*
G75*
G02*
X109294900Y-159760299I0J-249999D01*
G01*
X109294900Y-160385301D01*
G75*
G02*
X109044901Y-160635300I-249999J0D01*
G01*
G37*
G36*
G01*
X98288001Y-142192900D02*
X97037999Y-142192900D01*
G75*
G02*
X96788000Y-141942901I0J249999D01*
G01*
X96788000Y-141317899D01*
G75*
G02*
X97037999Y-141067900I249999J0D01*
G01*
X98288001Y-141067900D01*
G75*
G02*
X98538000Y-141317899I0J-249999D01*
G01*
X98538000Y-141942901D01*
G75*
G02*
X98288001Y-142192900I-249999J0D01*
G01*
G37*
G36*
G01*
X98288001Y-145117900D02*
X97037999Y-145117900D01*
G75*
G02*
X96788000Y-144867901I0J249999D01*
G01*
X96788000Y-144242899D01*
G75*
G02*
X97037999Y-143992900I249999J0D01*
G01*
X98288001Y-143992900D01*
G75*
G02*
X98538000Y-144242899I0J-249999D01*
G01*
X98538000Y-144867901D01*
G75*
G02*
X98288001Y-145117900I-249999J0D01*
G01*
G37*
G36*
G01*
X80762001Y-162335100D02*
X79511999Y-162335100D01*
G75*
G02*
X79262000Y-162085101I0J249999D01*
G01*
X79262000Y-161460099D01*
G75*
G02*
X79511999Y-161210100I249999J0D01*
G01*
X80762001Y-161210100D01*
G75*
G02*
X81012000Y-161460099I0J-249999D01*
G01*
X81012000Y-162085101D01*
G75*
G02*
X80762001Y-162335100I-249999J0D01*
G01*
G37*
G36*
G01*
X80762001Y-165260100D02*
X79511999Y-165260100D01*
G75*
G02*
X79262000Y-165010101I0J249999D01*
G01*
X79262000Y-164385099D01*
G75*
G02*
X79511999Y-164135100I249999J0D01*
G01*
X80762001Y-164135100D01*
G75*
G02*
X81012000Y-164385099I0J-249999D01*
G01*
X81012000Y-165010101D01*
G75*
G02*
X80762001Y-165260100I-249999J0D01*
G01*
G37*
G36*
G01*
X81950399Y-164135100D02*
X83200401Y-164135100D01*
G75*
G02*
X83450400Y-164385099I0J-249999D01*
G01*
X83450400Y-165010101D01*
G75*
G02*
X83200401Y-165260100I-249999J0D01*
G01*
X81950399Y-165260100D01*
G75*
G02*
X81700400Y-165010101I0J249999D01*
G01*
X81700400Y-164385099D01*
G75*
G02*
X81950399Y-164135100I249999J0D01*
G01*
G37*
G36*
G01*
X81950399Y-161210100D02*
X83200401Y-161210100D01*
G75*
G02*
X83450400Y-161460099I0J-249999D01*
G01*
X83450400Y-162085101D01*
G75*
G02*
X83200401Y-162335100I-249999J0D01*
G01*
X81950399Y-162335100D01*
G75*
G02*
X81700400Y-162085101I0J249999D01*
G01*
X81700400Y-161460099D01*
G75*
G02*
X81950399Y-161210100I249999J0D01*
G01*
G37*
G36*
G01*
X89906001Y-143585900D02*
X88655999Y-143585900D01*
G75*
G02*
X88406000Y-143335901I0J249999D01*
G01*
X88406000Y-142710899D01*
G75*
G02*
X88655999Y-142460900I249999J0D01*
G01*
X89906001Y-142460900D01*
G75*
G02*
X90156000Y-142710899I0J-249999D01*
G01*
X90156000Y-143335901D01*
G75*
G02*
X89906001Y-143585900I-249999J0D01*
G01*
G37*
G36*
G01*
X89906001Y-146510900D02*
X88655999Y-146510900D01*
G75*
G02*
X88406000Y-146260901I0J249999D01*
G01*
X88406000Y-145635899D01*
G75*
G02*
X88655999Y-145385900I249999J0D01*
G01*
X89906001Y-145385900D01*
G75*
G02*
X90156000Y-145635899I0J-249999D01*
G01*
X90156000Y-146260901D01*
G75*
G02*
X89906001Y-146510900I-249999J0D01*
G01*
G37*
G36*
G01*
X87391401Y-143585900D02*
X86141399Y-143585900D01*
G75*
G02*
X85891400Y-143335901I0J249999D01*
G01*
X85891400Y-142710899D01*
G75*
G02*
X86141399Y-142460900I249999J0D01*
G01*
X87391401Y-142460900D01*
G75*
G02*
X87641400Y-142710899I0J-249999D01*
G01*
X87641400Y-143335901D01*
G75*
G02*
X87391401Y-143585900I-249999J0D01*
G01*
G37*
G36*
G01*
X87391401Y-146510900D02*
X86141399Y-146510900D01*
G75*
G02*
X85891400Y-146260901I0J249999D01*
G01*
X85891400Y-145635899D01*
G75*
G02*
X86141399Y-145385900I249999J0D01*
G01*
X87391401Y-145385900D01*
G75*
G02*
X87641400Y-145635899I0J-249999D01*
G01*
X87641400Y-146260901D01*
G75*
G02*
X87391401Y-146510900I-249999J0D01*
G01*
G37*
G36*
G01*
X105526601Y-152746400D02*
X104226599Y-152746400D01*
G75*
G02*
X103976600Y-152496401I0J249999D01*
G01*
X103976600Y-151846399D01*
G75*
G02*
X104226599Y-151596400I249999J0D01*
G01*
X105526601Y-151596400D01*
G75*
G02*
X105776600Y-151846399I0J-249999D01*
G01*
X105776600Y-152496401D01*
G75*
G02*
X105526601Y-152746400I-249999J0D01*
G01*
G37*
G36*
G01*
X105526601Y-155696400D02*
X104226599Y-155696400D01*
G75*
G02*
X103976600Y-155446401I0J249999D01*
G01*
X103976600Y-154796399D01*
G75*
G02*
X104226599Y-154546400I249999J0D01*
G01*
X105526601Y-154546400D01*
G75*
G02*
X105776600Y-154796399I0J-249999D01*
G01*
X105776600Y-155446401D01*
G75*
G02*
X105526601Y-155696400I-249999J0D01*
G01*
G37*
G36*
G01*
X80736201Y-152566800D02*
X79436199Y-152566800D01*
G75*
G02*
X79186200Y-152316801I0J249999D01*
G01*
X79186200Y-151666799D01*
G75*
G02*
X79436199Y-151416800I249999J0D01*
G01*
X80736201Y-151416800D01*
G75*
G02*
X80986200Y-151666799I0J-249999D01*
G01*
X80986200Y-152316801D01*
G75*
G02*
X80736201Y-152566800I-249999J0D01*
G01*
G37*
G36*
G01*
X80736201Y-155516800D02*
X79436199Y-155516800D01*
G75*
G02*
X79186200Y-155266801I0J249999D01*
G01*
X79186200Y-154616799D01*
G75*
G02*
X79436199Y-154366800I249999J0D01*
G01*
X80736201Y-154366800D01*
G75*
G02*
X80986200Y-154616799I0J-249999D01*
G01*
X80986200Y-155266801D01*
G75*
G02*
X80736201Y-155516800I-249999J0D01*
G01*
G37*
G36*
G01*
X100751401Y-142230800D02*
X99451399Y-142230800D01*
G75*
G02*
X99201400Y-141980801I0J249999D01*
G01*
X99201400Y-141330799D01*
G75*
G02*
X99451399Y-141080800I249999J0D01*
G01*
X100751401Y-141080800D01*
G75*
G02*
X101001400Y-141330799I0J-249999D01*
G01*
X101001400Y-141980801D01*
G75*
G02*
X100751401Y-142230800I-249999J0D01*
G01*
G37*
G36*
G01*
X100751401Y-145180800D02*
X99451399Y-145180800D01*
G75*
G02*
X99201400Y-144930801I0J249999D01*
G01*
X99201400Y-144280799D01*
G75*
G02*
X99451399Y-144030800I249999J0D01*
G01*
X100751401Y-144030800D01*
G75*
G02*
X101001400Y-144280799I0J-249999D01*
G01*
X101001400Y-144930801D01*
G75*
G02*
X100751401Y-145180800I-249999J0D01*
G01*
G37*
G36*
G01*
X74585400Y-147030201D02*
X74585400Y-145730199D01*
G75*
G02*
X74835399Y-145480200I249999J0D01*
G01*
X75485401Y-145480200D01*
G75*
G02*
X75735400Y-145730199I0J-249999D01*
G01*
X75735400Y-147030201D01*
G75*
G02*
X75485401Y-147280200I-249999J0D01*
G01*
X74835399Y-147280200D01*
G75*
G02*
X74585400Y-147030201I0J249999D01*
G01*
G37*
G36*
G01*
X71635400Y-147030201D02*
X71635400Y-145730199D01*
G75*
G02*
X71885399Y-145480200I249999J0D01*
G01*
X72535401Y-145480200D01*
G75*
G02*
X72785400Y-145730199I0J-249999D01*
G01*
X72785400Y-147030201D01*
G75*
G02*
X72535401Y-147280200I-249999J0D01*
G01*
X71885399Y-147280200D01*
G75*
G02*
X71635400Y-147030201I0J249999D01*
G01*
G37*
G36*
G01*
X98579800Y-152009200D02*
X98879800Y-152009200D01*
G75*
G02*
X99029800Y-152159200I0J-150000D01*
G01*
X99029800Y-153809200D01*
G75*
G02*
X98879800Y-153959200I-150000J0D01*
G01*
X98579800Y-153959200D01*
G75*
G02*
X98429800Y-153809200I0J150000D01*
G01*
X98429800Y-152159200D01*
G75*
G02*
X98579800Y-152009200I150000J0D01*
G01*
G37*
G36*
G01*
X99849800Y-152009200D02*
X100149800Y-152009200D01*
G75*
G02*
X100299800Y-152159200I0J-150000D01*
G01*
X100299800Y-153809200D01*
G75*
G02*
X100149800Y-153959200I-150000J0D01*
G01*
X99849800Y-153959200D01*
G75*
G02*
X99699800Y-153809200I0J150000D01*
G01*
X99699800Y-152159200D01*
G75*
G02*
X99849800Y-152009200I150000J0D01*
G01*
G37*
G36*
G01*
X101119800Y-152009200D02*
X101419800Y-152009200D01*
G75*
G02*
X101569800Y-152159200I0J-150000D01*
G01*
X101569800Y-153809200D01*
G75*
G02*
X101419800Y-153959200I-150000J0D01*
G01*
X101119800Y-153959200D01*
G75*
G02*
X100969800Y-153809200I0J150000D01*
G01*
X100969800Y-152159200D01*
G75*
G02*
X101119800Y-152009200I150000J0D01*
G01*
G37*
G36*
G01*
X102389800Y-152009200D02*
X102689800Y-152009200D01*
G75*
G02*
X102839800Y-152159200I0J-150000D01*
G01*
X102839800Y-153809200D01*
G75*
G02*
X102689800Y-153959200I-150000J0D01*
G01*
X102389800Y-153959200D01*
G75*
G02*
X102239800Y-153809200I0J150000D01*
G01*
X102239800Y-152159200D01*
G75*
G02*
X102389800Y-152009200I150000J0D01*
G01*
G37*
G36*
G01*
X102389800Y-147059200D02*
X102689800Y-147059200D01*
G75*
G02*
X102839800Y-147209200I0J-150000D01*
G01*
X102839800Y-148859200D01*
G75*
G02*
X102689800Y-149009200I-150000J0D01*
G01*
X102389800Y-149009200D01*
G75*
G02*
X102239800Y-148859200I0J150000D01*
G01*
X102239800Y-147209200D01*
G75*
G02*
X102389800Y-147059200I150000J0D01*
G01*
G37*
G36*
G01*
X101119800Y-147059200D02*
X101419800Y-147059200D01*
G75*
G02*
X101569800Y-147209200I0J-150000D01*
G01*
X101569800Y-148859200D01*
G75*
G02*
X101419800Y-149009200I-150000J0D01*
G01*
X101119800Y-149009200D01*
G75*
G02*
X100969800Y-148859200I0J150000D01*
G01*
X100969800Y-147209200D01*
G75*
G02*
X101119800Y-147059200I150000J0D01*
G01*
G37*
G36*
G01*
X99849800Y-147059200D02*
X100149800Y-147059200D01*
G75*
G02*
X100299800Y-147209200I0J-150000D01*
G01*
X100299800Y-148859200D01*
G75*
G02*
X100149800Y-149009200I-150000J0D01*
G01*
X99849800Y-149009200D01*
G75*
G02*
X99699800Y-148859200I0J150000D01*
G01*
X99699800Y-147209200D01*
G75*
G02*
X99849800Y-147059200I150000J0D01*
G01*
G37*
G36*
G01*
X98579800Y-147059200D02*
X98879800Y-147059200D01*
G75*
G02*
X99029800Y-147209200I0J-150000D01*
G01*
X99029800Y-148859200D01*
G75*
G02*
X98879800Y-149009200I-150000J0D01*
G01*
X98579800Y-149009200D01*
G75*
G02*
X98429800Y-148859200I0J150000D01*
G01*
X98429800Y-147209200D01*
G75*
G02*
X98579800Y-147059200I150000J0D01*
G01*
G37*
G36*
G01*
X96713201Y-157634100D02*
X95463199Y-157634100D01*
G75*
G02*
X95213200Y-157384101I0J249999D01*
G01*
X95213200Y-156759099D01*
G75*
G02*
X95463199Y-156509100I249999J0D01*
G01*
X96713201Y-156509100D01*
G75*
G02*
X96963200Y-156759099I0J-249999D01*
G01*
X96963200Y-157384101D01*
G75*
G02*
X96713201Y-157634100I-249999J0D01*
G01*
G37*
G36*
G01*
X96713201Y-160559100D02*
X95463199Y-160559100D01*
G75*
G02*
X95213200Y-160309101I0J249999D01*
G01*
X95213200Y-159684099D01*
G75*
G02*
X95463199Y-159434100I249999J0D01*
G01*
X96713201Y-159434100D01*
G75*
G02*
X96963200Y-159684099I0J-249999D01*
G01*
X96963200Y-160309101D01*
G75*
G02*
X96713201Y-160559100I-249999J0D01*
G01*
G37*
G36*
G01*
X96713201Y-152429100D02*
X95463199Y-152429100D01*
G75*
G02*
X95213200Y-152179101I0J249999D01*
G01*
X95213200Y-151554099D01*
G75*
G02*
X95463199Y-151304100I249999J0D01*
G01*
X96713201Y-151304100D01*
G75*
G02*
X96963200Y-151554099I0J-249999D01*
G01*
X96963200Y-152179101D01*
G75*
G02*
X96713201Y-152429100I-249999J0D01*
G01*
G37*
G36*
G01*
X96713201Y-155354100D02*
X95463199Y-155354100D01*
G75*
G02*
X95213200Y-155104101I0J249999D01*
G01*
X95213200Y-154479099D01*
G75*
G02*
X95463199Y-154229100I249999J0D01*
G01*
X96713201Y-154229100D01*
G75*
G02*
X96963200Y-154479099I0J-249999D01*
G01*
X96963200Y-155104101D01*
G75*
G02*
X96713201Y-155354100I-249999J0D01*
G01*
G37*
X108178600Y-170672000D03*
X109128600Y-168672000D03*
X107228600Y-168672000D03*
X107899200Y-149336000D03*
X108849200Y-147336000D03*
X106949200Y-147336000D03*
X111927600Y-157105600D03*
X110977600Y-159105600D03*
X112877600Y-159105600D03*
G36*
G01*
X74438000Y-144389000D02*
X74438000Y-143139000D01*
G75*
G02*
X74688000Y-142889000I250000J0D01*
G01*
X75438000Y-142889000D01*
G75*
G02*
X75688000Y-143139000I0J-250000D01*
G01*
X75688000Y-144389000D01*
G75*
G02*
X75438000Y-144639000I-250000J0D01*
G01*
X74688000Y-144639000D01*
G75*
G02*
X74438000Y-144389000I0J250000D01*
G01*
G37*
G36*
G01*
X71638000Y-144389000D02*
X71638000Y-143139000D01*
G75*
G02*
X71888000Y-142889000I250000J0D01*
G01*
X72638000Y-142889000D01*
G75*
G02*
X72888000Y-143139000I0J-250000D01*
G01*
X72888000Y-144389000D01*
G75*
G02*
X72638000Y-144639000I-250000J0D01*
G01*
X71888000Y-144639000D01*
G75*
G02*
X71638000Y-144389000I0J250000D01*
G01*
G37*
G36*
G01*
X93025199Y-159421400D02*
X94325201Y-159421400D01*
G75*
G02*
X94575200Y-159671399I0J-249999D01*
G01*
X94575200Y-160321401D01*
G75*
G02*
X94325201Y-160571400I-249999J0D01*
G01*
X93025199Y-160571400D01*
G75*
G02*
X92775200Y-160321401I0J249999D01*
G01*
X92775200Y-159671399D01*
G75*
G02*
X93025199Y-159421400I249999J0D01*
G01*
G37*
G36*
G01*
X93025199Y-156471400D02*
X94325201Y-156471400D01*
G75*
G02*
X94575200Y-156721399I0J-249999D01*
G01*
X94575200Y-157371401D01*
G75*
G02*
X94325201Y-157621400I-249999J0D01*
G01*
X93025199Y-157621400D01*
G75*
G02*
X92775200Y-157371401I0J249999D01*
G01*
X92775200Y-156721399D01*
G75*
G02*
X93025199Y-156471400I249999J0D01*
G01*
G37*
G36*
G01*
X105229899Y-159510300D02*
X106529901Y-159510300D01*
G75*
G02*
X106779900Y-159760299I0J-249999D01*
G01*
X106779900Y-160410301D01*
G75*
G02*
X106529901Y-160660300I-249999J0D01*
G01*
X105229899Y-160660300D01*
G75*
G02*
X104979900Y-160410301I0J249999D01*
G01*
X104979900Y-159760299D01*
G75*
G02*
X105229899Y-159510300I249999J0D01*
G01*
G37*
G36*
G01*
X105229899Y-156560300D02*
X106529901Y-156560300D01*
G75*
G02*
X106779900Y-156810299I0J-249999D01*
G01*
X106779900Y-157460301D01*
G75*
G02*
X106529901Y-157710300I-249999J0D01*
G01*
X105229899Y-157710300D01*
G75*
G02*
X104979900Y-157460301I0J249999D01*
G01*
X104979900Y-156810299D01*
G75*
G02*
X105229899Y-156560300I249999J0D01*
G01*
G37*
X111902200Y-170656000D03*
X112852200Y-168656000D03*
X110952200Y-168656000D03*
M02*
