G04 #@! TF.GenerationSoftware,KiCad,Pcbnew,(5.1.8)-1*
G04 #@! TF.CreationDate,2021-04-25T20:11:45+02:00*
G04 #@! TF.ProjectId,FSG_Reference,4653475f-5265-4666-9572-656e63652e6b,rev?*
G04 #@! TF.SameCoordinates,Original*
G04 #@! TF.FileFunction,Soldermask,Top*
G04 #@! TF.FilePolarity,Negative*
%FSLAX46Y46*%
G04 Gerber Fmt 4.6, Leading zero omitted, Abs format (unit mm)*
G04 Created by KiCad (PCBNEW (5.1.8)-1) date 2021-04-25 20:11:45*
%MOMM*%
%LPD*%
G01*
G04 APERTURE LIST*
%ADD10O,1.602000X2.122000*%
%ADD11C,3.102000*%
%ADD12C,2.442000*%
%ADD13C,3.302000*%
%ADD14C,2.602000*%
%ADD15C,0.100000*%
G04 APERTURE END LIST*
G36*
G01*
X98265400Y-161229000D02*
X98665400Y-161229000D01*
G75*
G02*
X98716400Y-161280000I0J-51000D01*
G01*
X98716400Y-161930000D01*
G75*
G02*
X98665400Y-161981000I-51000J0D01*
G01*
X98265400Y-161981000D01*
G75*
G02*
X98214400Y-161930000I0J51000D01*
G01*
X98214400Y-161280000D01*
G75*
G02*
X98265400Y-161229000I51000J0D01*
G01*
G37*
G36*
G01*
X96965400Y-161229000D02*
X97365400Y-161229000D01*
G75*
G02*
X97416400Y-161280000I0J-51000D01*
G01*
X97416400Y-161930000D01*
G75*
G02*
X97365400Y-161981000I-51000J0D01*
G01*
X96965400Y-161981000D01*
G75*
G02*
X96914400Y-161930000I0J51000D01*
G01*
X96914400Y-161280000D01*
G75*
G02*
X96965400Y-161229000I51000J0D01*
G01*
G37*
G36*
G01*
X97615400Y-159329000D02*
X98015400Y-159329000D01*
G75*
G02*
X98066400Y-159380000I0J-51000D01*
G01*
X98066400Y-160030000D01*
G75*
G02*
X98015400Y-160081000I-51000J0D01*
G01*
X97615400Y-160081000D01*
G75*
G02*
X97564400Y-160030000I0J51000D01*
G01*
X97564400Y-159380000D01*
G75*
G02*
X97615400Y-159329000I51000J0D01*
G01*
G37*
G36*
G01*
X96965400Y-159329000D02*
X97365400Y-159329000D01*
G75*
G02*
X97416400Y-159380000I0J-51000D01*
G01*
X97416400Y-160030000D01*
G75*
G02*
X97365400Y-160081000I-51000J0D01*
G01*
X96965400Y-160081000D01*
G75*
G02*
X96914400Y-160030000I0J51000D01*
G01*
X96914400Y-159380000D01*
G75*
G02*
X96965400Y-159329000I51000J0D01*
G01*
G37*
G36*
G01*
X98265400Y-159329000D02*
X98665400Y-159329000D01*
G75*
G02*
X98716400Y-159380000I0J-51000D01*
G01*
X98716400Y-160030000D01*
G75*
G02*
X98665400Y-160081000I-51000J0D01*
G01*
X98265400Y-160081000D01*
G75*
G02*
X98214400Y-160030000I0J51000D01*
G01*
X98214400Y-159380000D01*
G75*
G02*
X98265400Y-159329000I51000J0D01*
G01*
G37*
G36*
G01*
X104745000Y-175094000D02*
X107345000Y-175094000D01*
G75*
G02*
X107396000Y-175145000I0J-51000D01*
G01*
X107396000Y-176645000D01*
G75*
G02*
X107345000Y-176696000I-51000J0D01*
G01*
X104745000Y-176696000D01*
G75*
G02*
X104694000Y-176645000I0J51000D01*
G01*
X104694000Y-175145000D01*
G75*
G02*
X104745000Y-175094000I51000J0D01*
G01*
G37*
G36*
G01*
X104745000Y-172094000D02*
X107345000Y-172094000D01*
G75*
G02*
X107396000Y-172145000I0J-51000D01*
G01*
X107396000Y-173645000D01*
G75*
G02*
X107345000Y-173696000I-51000J0D01*
G01*
X104745000Y-173696000D01*
G75*
G02*
X104694000Y-173645000I0J51000D01*
G01*
X104694000Y-172145000D01*
G75*
G02*
X104745000Y-172094000I51000J0D01*
G01*
G37*
G36*
G01*
X100554000Y-175046000D02*
X103154000Y-175046000D01*
G75*
G02*
X103205000Y-175097000I0J-51000D01*
G01*
X103205000Y-176597000D01*
G75*
G02*
X103154000Y-176648000I-51000J0D01*
G01*
X100554000Y-176648000D01*
G75*
G02*
X100503000Y-176597000I0J51000D01*
G01*
X100503000Y-175097000D01*
G75*
G02*
X100554000Y-175046000I51000J0D01*
G01*
G37*
G36*
G01*
X100554000Y-172046000D02*
X103154000Y-172046000D01*
G75*
G02*
X103205000Y-172097000I0J-51000D01*
G01*
X103205000Y-173597000D01*
G75*
G02*
X103154000Y-173648000I-51000J0D01*
G01*
X100554000Y-173648000D01*
G75*
G02*
X100503000Y-173597000I0J51000D01*
G01*
X100503000Y-172097000D01*
G75*
G02*
X100554000Y-172046000I51000J0D01*
G01*
G37*
G36*
G01*
X72232199Y-155500400D02*
X78032201Y-155500400D01*
G75*
G02*
X78083200Y-155551399I0J-50999D01*
G01*
X78083200Y-161951401D01*
G75*
G02*
X78032201Y-162002400I-50999J0D01*
G01*
X72232199Y-162002400D01*
G75*
G02*
X72181200Y-161951401I0J50999D01*
G01*
X72181200Y-155551399D01*
G75*
G02*
X72232199Y-155500400I50999J0D01*
G01*
G37*
G36*
G01*
X72252199Y-151300400D02*
X73452201Y-151300400D01*
G75*
G02*
X73503200Y-151351399I0J-50999D01*
G01*
X73503200Y-153551401D01*
G75*
G02*
X73452201Y-153602400I-50999J0D01*
G01*
X72252199Y-153602400D01*
G75*
G02*
X72201200Y-153551401I0J50999D01*
G01*
X72201200Y-151351399D01*
G75*
G02*
X72252199Y-151300400I50999J0D01*
G01*
G37*
G36*
G01*
X74532199Y-151300400D02*
X75732201Y-151300400D01*
G75*
G02*
X75783200Y-151351399I0J-50999D01*
G01*
X75783200Y-153551401D01*
G75*
G02*
X75732201Y-153602400I-50999J0D01*
G01*
X74532199Y-153602400D01*
G75*
G02*
X74481200Y-153551401I0J50999D01*
G01*
X74481200Y-151351399D01*
G75*
G02*
X74532199Y-151300400I50999J0D01*
G01*
G37*
G36*
G01*
X76812199Y-151300400D02*
X78012201Y-151300400D01*
G75*
G02*
X78063200Y-151351399I0J-50999D01*
G01*
X78063200Y-153551401D01*
G75*
G02*
X78012201Y-153602400I-50999J0D01*
G01*
X76812199Y-153602400D01*
G75*
G02*
X76761200Y-153551401I0J50999D01*
G01*
X76761200Y-151351399D01*
G75*
G02*
X76812199Y-151300400I50999J0D01*
G01*
G37*
G36*
G01*
X91650265Y-153691500D02*
X92956935Y-153691500D01*
G75*
G02*
X93229600Y-153964165I0J-272665D01*
G01*
X93229600Y-154645835D01*
G75*
G02*
X92956935Y-154918500I-272665J0D01*
G01*
X91650265Y-154918500D01*
G75*
G02*
X91377600Y-154645835I0J272665D01*
G01*
X91377600Y-153964165D01*
G75*
G02*
X91650265Y-153691500I272665J0D01*
G01*
G37*
G36*
G01*
X91650265Y-150766500D02*
X92956935Y-150766500D01*
G75*
G02*
X93229600Y-151039165I0J-272665D01*
G01*
X93229600Y-151720835D01*
G75*
G02*
X92956935Y-151993500I-272665J0D01*
G01*
X91650265Y-151993500D01*
G75*
G02*
X91377600Y-151720835I0J272665D01*
G01*
X91377600Y-151039165D01*
G75*
G02*
X91650265Y-150766500I272665J0D01*
G01*
G37*
D10*
X113641000Y-148846000D03*
G36*
G01*
X109840000Y-149640000D02*
X109840000Y-148052000D01*
G75*
G02*
X110107000Y-147785000I267000J0D01*
G01*
X111175000Y-147785000D01*
G75*
G02*
X111442000Y-148052000I0J-267000D01*
G01*
X111442000Y-149640000D01*
G75*
G02*
X111175000Y-149907000I-267000J0D01*
G01*
X110107000Y-149907000D01*
G75*
G02*
X109840000Y-149640000I0J267000D01*
G01*
G37*
D11*
X112141000Y-144526000D03*
D10*
X95772000Y-148717000D03*
X92772000Y-148717000D03*
X89772000Y-148717000D03*
X86772000Y-148717000D03*
X83772000Y-148717000D03*
G36*
G01*
X79971000Y-149511000D02*
X79971000Y-147923000D01*
G75*
G02*
X80238000Y-147656000I267000J0D01*
G01*
X81306000Y-147656000D01*
G75*
G02*
X81573000Y-147923000I0J-267000D01*
G01*
X81573000Y-149511000D01*
G75*
G02*
X81306000Y-149778000I-267000J0D01*
G01*
X80238000Y-149778000D01*
G75*
G02*
X79971000Y-149511000I0J267000D01*
G01*
G37*
D11*
X93622000Y-144397000D03*
X82922000Y-144397000D03*
G36*
G01*
X80841228Y-152568800D02*
X79483572Y-152568800D01*
G75*
G02*
X79211400Y-152296628I0J272172D01*
G01*
X79211400Y-151588972D01*
G75*
G02*
X79483572Y-151316800I272172J0D01*
G01*
X80841228Y-151316800D01*
G75*
G02*
X81113400Y-151588972I0J-272172D01*
G01*
X81113400Y-152296628D01*
G75*
G02*
X80841228Y-152568800I-272172J0D01*
G01*
G37*
G36*
G01*
X80841228Y-155518800D02*
X79483572Y-155518800D01*
G75*
G02*
X79211400Y-155246628I0J272172D01*
G01*
X79211400Y-154538972D01*
G75*
G02*
X79483572Y-154266800I272172J0D01*
G01*
X80841228Y-154266800D01*
G75*
G02*
X81113400Y-154538972I0J-272172D01*
G01*
X81113400Y-155246628D01*
G75*
G02*
X80841228Y-155518800I-272172J0D01*
G01*
G37*
G36*
G01*
X79483572Y-159140000D02*
X80841228Y-159140000D01*
G75*
G02*
X81113400Y-159412172I0J-272172D01*
G01*
X81113400Y-160119828D01*
G75*
G02*
X80841228Y-160392000I-272172J0D01*
G01*
X79483572Y-160392000D01*
G75*
G02*
X79211400Y-160119828I0J272172D01*
G01*
X79211400Y-159412172D01*
G75*
G02*
X79483572Y-159140000I272172J0D01*
G01*
G37*
G36*
G01*
X79483572Y-156190000D02*
X80841228Y-156190000D01*
G75*
G02*
X81113400Y-156462172I0J-272172D01*
G01*
X81113400Y-157169828D01*
G75*
G02*
X80841228Y-157442000I-272172J0D01*
G01*
X79483572Y-157442000D01*
G75*
G02*
X79211400Y-157169828I0J272172D01*
G01*
X79211400Y-156462172D01*
G75*
G02*
X79483572Y-156190000I272172J0D01*
G01*
G37*
X115951000Y-173736000D03*
G36*
G01*
X109320000Y-175236000D02*
X109320000Y-172236000D01*
G75*
G02*
X109371000Y-172185000I51000J0D01*
G01*
X112371000Y-172185000D01*
G75*
G02*
X112422000Y-172236000I0J-51000D01*
G01*
X112422000Y-175236000D01*
G75*
G02*
X112371000Y-175287000I-51000J0D01*
G01*
X109371000Y-175287000D01*
G75*
G02*
X109320000Y-175236000I0J51000D01*
G01*
G37*
G36*
G01*
X103791465Y-169164100D02*
X105098135Y-169164100D01*
G75*
G02*
X105370800Y-169436765I0J-272665D01*
G01*
X105370800Y-170118435D01*
G75*
G02*
X105098135Y-170391100I-272665J0D01*
G01*
X103791465Y-170391100D01*
G75*
G02*
X103518800Y-170118435I0J272665D01*
G01*
X103518800Y-169436765D01*
G75*
G02*
X103791465Y-169164100I272665J0D01*
G01*
G37*
G36*
G01*
X103791465Y-166239100D02*
X105098135Y-166239100D01*
G75*
G02*
X105370800Y-166511765I0J-272665D01*
G01*
X105370800Y-167193435D01*
G75*
G02*
X105098135Y-167466100I-272665J0D01*
G01*
X103791465Y-167466100D01*
G75*
G02*
X103518800Y-167193435I0J272665D01*
G01*
X103518800Y-166511765D01*
G75*
G02*
X103791465Y-166239100I272665J0D01*
G01*
G37*
D12*
X65087500Y-155257500D03*
X67587500Y-157757500D03*
X65087500Y-160257500D03*
G36*
G01*
X102336500Y-155785265D02*
X102336500Y-157091935D01*
G75*
G02*
X102063835Y-157364600I-272665J0D01*
G01*
X101382165Y-157364600D01*
G75*
G02*
X101109500Y-157091935I0J272665D01*
G01*
X101109500Y-155785265D01*
G75*
G02*
X101382165Y-155512600I272665J0D01*
G01*
X102063835Y-155512600D01*
G75*
G02*
X102336500Y-155785265I0J-272665D01*
G01*
G37*
G36*
G01*
X105261500Y-155785265D02*
X105261500Y-157091935D01*
G75*
G02*
X104988835Y-157364600I-272665J0D01*
G01*
X104307165Y-157364600D01*
G75*
G02*
X104034500Y-157091935I0J272665D01*
G01*
X104034500Y-155785265D01*
G75*
G02*
X104307165Y-155512600I272665J0D01*
G01*
X104988835Y-155512600D01*
G75*
G02*
X105261500Y-155785265I0J-272665D01*
G01*
G37*
G36*
G01*
X104009100Y-151935735D02*
X104009100Y-150629065D01*
G75*
G02*
X104281765Y-150356400I272665J0D01*
G01*
X104963435Y-150356400D01*
G75*
G02*
X105236100Y-150629065I0J-272665D01*
G01*
X105236100Y-151935735D01*
G75*
G02*
X104963435Y-152208400I-272665J0D01*
G01*
X104281765Y-152208400D01*
G75*
G02*
X104009100Y-151935735I0J272665D01*
G01*
G37*
G36*
G01*
X101084100Y-151935735D02*
X101084100Y-150629065D01*
G75*
G02*
X101356765Y-150356400I272665J0D01*
G01*
X102038435Y-150356400D01*
G75*
G02*
X102311100Y-150629065I0J-272665D01*
G01*
X102311100Y-151935735D01*
G75*
G02*
X102038435Y-152208400I-272665J0D01*
G01*
X101356765Y-152208400D01*
G75*
G02*
X101084100Y-151935735I0J272665D01*
G01*
G37*
G36*
G01*
X102289700Y-148114465D02*
X102289700Y-149421135D01*
G75*
G02*
X102017035Y-149693800I-272665J0D01*
G01*
X101335365Y-149693800D01*
G75*
G02*
X101062700Y-149421135I0J272665D01*
G01*
X101062700Y-148114465D01*
G75*
G02*
X101335365Y-147841800I272665J0D01*
G01*
X102017035Y-147841800D01*
G75*
G02*
X102289700Y-148114465I0J-272665D01*
G01*
G37*
G36*
G01*
X105214700Y-148114465D02*
X105214700Y-149421135D01*
G75*
G02*
X104942035Y-149693800I-272665J0D01*
G01*
X104260365Y-149693800D01*
G75*
G02*
X103987700Y-149421135I0J272665D01*
G01*
X103987700Y-148114465D01*
G75*
G02*
X104260365Y-147841800I272665J0D01*
G01*
X104942035Y-147841800D01*
G75*
G02*
X105214700Y-148114465I0J-272665D01*
G01*
G37*
G36*
G01*
X68703100Y-167607535D02*
X68703100Y-166300865D01*
G75*
G02*
X68975765Y-166028200I272665J0D01*
G01*
X69657435Y-166028200D01*
G75*
G02*
X69930100Y-166300865I0J-272665D01*
G01*
X69930100Y-167607535D01*
G75*
G02*
X69657435Y-167880200I-272665J0D01*
G01*
X68975765Y-167880200D01*
G75*
G02*
X68703100Y-167607535I0J272665D01*
G01*
G37*
G36*
G01*
X65778100Y-167607535D02*
X65778100Y-166300865D01*
G75*
G02*
X66050765Y-166028200I272665J0D01*
G01*
X66732435Y-166028200D01*
G75*
G02*
X67005100Y-166300865I0J-272665D01*
G01*
X67005100Y-167607535D01*
G75*
G02*
X66732435Y-167880200I-272665J0D01*
G01*
X66050765Y-167880200D01*
G75*
G02*
X65778100Y-167607535I0J272665D01*
G01*
G37*
G36*
G01*
X86875065Y-169341900D02*
X88181735Y-169341900D01*
G75*
G02*
X88454400Y-169614565I0J-272665D01*
G01*
X88454400Y-170296235D01*
G75*
G02*
X88181735Y-170568900I-272665J0D01*
G01*
X86875065Y-170568900D01*
G75*
G02*
X86602400Y-170296235I0J272665D01*
G01*
X86602400Y-169614565D01*
G75*
G02*
X86875065Y-169341900I272665J0D01*
G01*
G37*
G36*
G01*
X86875065Y-166416900D02*
X88181735Y-166416900D01*
G75*
G02*
X88454400Y-166689565I0J-272665D01*
G01*
X88454400Y-167371235D01*
G75*
G02*
X88181735Y-167643900I-272665J0D01*
G01*
X86875065Y-167643900D01*
G75*
G02*
X86602400Y-167371235I0J272665D01*
G01*
X86602400Y-166689565D01*
G75*
G02*
X86875065Y-166416900I272665J0D01*
G01*
G37*
G36*
G01*
X85476635Y-167627300D02*
X84169965Y-167627300D01*
G75*
G02*
X83897300Y-167354635I0J272665D01*
G01*
X83897300Y-166672965D01*
G75*
G02*
X84169965Y-166400300I272665J0D01*
G01*
X85476635Y-166400300D01*
G75*
G02*
X85749300Y-166672965I0J-272665D01*
G01*
X85749300Y-167354635D01*
G75*
G02*
X85476635Y-167627300I-272665J0D01*
G01*
G37*
G36*
G01*
X85476635Y-170552300D02*
X84169965Y-170552300D01*
G75*
G02*
X83897300Y-170279635I0J272665D01*
G01*
X83897300Y-169597965D01*
G75*
G02*
X84169965Y-169325300I272665J0D01*
G01*
X85476635Y-169325300D01*
G75*
G02*
X85749300Y-169597965I0J-272665D01*
G01*
X85749300Y-170279635D01*
G75*
G02*
X85476635Y-170552300I-272665J0D01*
G01*
G37*
G36*
G01*
X90442335Y-151997500D02*
X89135665Y-151997500D01*
G75*
G02*
X88863000Y-151724835I0J272665D01*
G01*
X88863000Y-151043165D01*
G75*
G02*
X89135665Y-150770500I272665J0D01*
G01*
X90442335Y-150770500D01*
G75*
G02*
X90715000Y-151043165I0J-272665D01*
G01*
X90715000Y-151724835D01*
G75*
G02*
X90442335Y-151997500I-272665J0D01*
G01*
G37*
G36*
G01*
X90442335Y-154922500D02*
X89135665Y-154922500D01*
G75*
G02*
X88863000Y-154649835I0J272665D01*
G01*
X88863000Y-153968165D01*
G75*
G02*
X89135665Y-153695500I272665J0D01*
G01*
X90442335Y-153695500D01*
G75*
G02*
X90715000Y-153968165I0J-272665D01*
G01*
X90715000Y-154649835D01*
G75*
G02*
X90442335Y-154922500I-272665J0D01*
G01*
G37*
G36*
G01*
X87902335Y-151997500D02*
X86595665Y-151997500D01*
G75*
G02*
X86323000Y-151724835I0J272665D01*
G01*
X86323000Y-151043165D01*
G75*
G02*
X86595665Y-150770500I272665J0D01*
G01*
X87902335Y-150770500D01*
G75*
G02*
X88175000Y-151043165I0J-272665D01*
G01*
X88175000Y-151724835D01*
G75*
G02*
X87902335Y-151997500I-272665J0D01*
G01*
G37*
G36*
G01*
X87902335Y-154922500D02*
X86595665Y-154922500D01*
G75*
G02*
X86323000Y-154649835I0J272665D01*
G01*
X86323000Y-153968165D01*
G75*
G02*
X86595665Y-153695500I272665J0D01*
G01*
X87902335Y-153695500D01*
G75*
G02*
X88175000Y-153968165I0J-272665D01*
G01*
X88175000Y-154649835D01*
G75*
G02*
X87902335Y-154922500I-272665J0D01*
G01*
G37*
G36*
G01*
X74812000Y-150234028D02*
X74812000Y-148876372D01*
G75*
G02*
X75084172Y-148604200I272172J0D01*
G01*
X75791828Y-148604200D01*
G75*
G02*
X76064000Y-148876372I0J-272172D01*
G01*
X76064000Y-150234028D01*
G75*
G02*
X75791828Y-150506200I-272172J0D01*
G01*
X75084172Y-150506200D01*
G75*
G02*
X74812000Y-150234028I0J272172D01*
G01*
G37*
G36*
G01*
X71862000Y-150234028D02*
X71862000Y-148876372D01*
G75*
G02*
X72134172Y-148604200I272172J0D01*
G01*
X72841828Y-148604200D01*
G75*
G02*
X73114000Y-148876372I0J-272172D01*
G01*
X73114000Y-150234028D01*
G75*
G02*
X72841828Y-150506200I-272172J0D01*
G01*
X72134172Y-150506200D01*
G75*
G02*
X71862000Y-150234028I0J272172D01*
G01*
G37*
G36*
G01*
X104022000Y-154526628D02*
X104022000Y-153168972D01*
G75*
G02*
X104294172Y-152896800I272172J0D01*
G01*
X105001828Y-152896800D01*
G75*
G02*
X105274000Y-153168972I0J-272172D01*
G01*
X105274000Y-154526628D01*
G75*
G02*
X105001828Y-154798800I-272172J0D01*
G01*
X104294172Y-154798800D01*
G75*
G02*
X104022000Y-154526628I0J272172D01*
G01*
G37*
G36*
G01*
X101072000Y-154526628D02*
X101072000Y-153168972D01*
G75*
G02*
X101344172Y-152896800I272172J0D01*
G01*
X102051828Y-152896800D01*
G75*
G02*
X102324000Y-153168972I0J-272172D01*
G01*
X102324000Y-154526628D01*
G75*
G02*
X102051828Y-154798800I-272172J0D01*
G01*
X101344172Y-154798800D01*
G75*
G02*
X101072000Y-154526628I0J272172D01*
G01*
G37*
G36*
G01*
X67043400Y-163811572D02*
X67043400Y-165169228D01*
G75*
G02*
X66771228Y-165441400I-272172J0D01*
G01*
X66063572Y-165441400D01*
G75*
G02*
X65791400Y-165169228I0J272172D01*
G01*
X65791400Y-163811572D01*
G75*
G02*
X66063572Y-163539400I272172J0D01*
G01*
X66771228Y-163539400D01*
G75*
G02*
X67043400Y-163811572I0J-272172D01*
G01*
G37*
G36*
G01*
X69993400Y-163811572D02*
X69993400Y-165169228D01*
G75*
G02*
X69721228Y-165441400I-272172J0D01*
G01*
X69013572Y-165441400D01*
G75*
G02*
X68741400Y-165169228I0J272172D01*
G01*
X68741400Y-163811572D01*
G75*
G02*
X69013572Y-163539400I272172J0D01*
G01*
X69721228Y-163539400D01*
G75*
G02*
X69993400Y-163811572I0J-272172D01*
G01*
G37*
G36*
G01*
X90151572Y-169350800D02*
X91509228Y-169350800D01*
G75*
G02*
X91781400Y-169622972I0J-272172D01*
G01*
X91781400Y-170330628D01*
G75*
G02*
X91509228Y-170602800I-272172J0D01*
G01*
X90151572Y-170602800D01*
G75*
G02*
X89879400Y-170330628I0J272172D01*
G01*
X89879400Y-169622972D01*
G75*
G02*
X90151572Y-169350800I272172J0D01*
G01*
G37*
G36*
G01*
X90151572Y-166400800D02*
X91509228Y-166400800D01*
G75*
G02*
X91781400Y-166672972I0J-272172D01*
G01*
X91781400Y-167380628D01*
G75*
G02*
X91509228Y-167652800I-272172J0D01*
G01*
X90151572Y-167652800D01*
G75*
G02*
X89879400Y-167380628I0J272172D01*
G01*
X89879400Y-166672972D01*
G75*
G02*
X90151572Y-166400800I272172J0D01*
G01*
G37*
G36*
G01*
X98605100Y-155728600D02*
X98956100Y-155728600D01*
G75*
G02*
X99131600Y-155904100I0J-175500D01*
G01*
X99131600Y-157605100D01*
G75*
G02*
X98956100Y-157780600I-175500J0D01*
G01*
X98605100Y-157780600D01*
G75*
G02*
X98429600Y-157605100I0J175500D01*
G01*
X98429600Y-155904100D01*
G75*
G02*
X98605100Y-155728600I175500J0D01*
G01*
G37*
G36*
G01*
X97335100Y-155728600D02*
X97686100Y-155728600D01*
G75*
G02*
X97861600Y-155904100I0J-175500D01*
G01*
X97861600Y-157605100D01*
G75*
G02*
X97686100Y-157780600I-175500J0D01*
G01*
X97335100Y-157780600D01*
G75*
G02*
X97159600Y-157605100I0J175500D01*
G01*
X97159600Y-155904100D01*
G75*
G02*
X97335100Y-155728600I175500J0D01*
G01*
G37*
G36*
G01*
X96065100Y-155728600D02*
X96416100Y-155728600D01*
G75*
G02*
X96591600Y-155904100I0J-175500D01*
G01*
X96591600Y-157605100D01*
G75*
G02*
X96416100Y-157780600I-175500J0D01*
G01*
X96065100Y-157780600D01*
G75*
G02*
X95889600Y-157605100I0J175500D01*
G01*
X95889600Y-155904100D01*
G75*
G02*
X96065100Y-155728600I175500J0D01*
G01*
G37*
G36*
G01*
X94795100Y-155728600D02*
X95146100Y-155728600D01*
G75*
G02*
X95321600Y-155904100I0J-175500D01*
G01*
X95321600Y-157605100D01*
G75*
G02*
X95146100Y-157780600I-175500J0D01*
G01*
X94795100Y-157780600D01*
G75*
G02*
X94619600Y-157605100I0J175500D01*
G01*
X94619600Y-155904100D01*
G75*
G02*
X94795100Y-155728600I175500J0D01*
G01*
G37*
G36*
G01*
X94795100Y-150778600D02*
X95146100Y-150778600D01*
G75*
G02*
X95321600Y-150954100I0J-175500D01*
G01*
X95321600Y-152655100D01*
G75*
G02*
X95146100Y-152830600I-175500J0D01*
G01*
X94795100Y-152830600D01*
G75*
G02*
X94619600Y-152655100I0J175500D01*
G01*
X94619600Y-150954100D01*
G75*
G02*
X94795100Y-150778600I175500J0D01*
G01*
G37*
G36*
G01*
X96065100Y-150778600D02*
X96416100Y-150778600D01*
G75*
G02*
X96591600Y-150954100I0J-175500D01*
G01*
X96591600Y-152655100D01*
G75*
G02*
X96416100Y-152830600I-175500J0D01*
G01*
X96065100Y-152830600D01*
G75*
G02*
X95889600Y-152655100I0J175500D01*
G01*
X95889600Y-150954100D01*
G75*
G02*
X96065100Y-150778600I175500J0D01*
G01*
G37*
G36*
G01*
X97335100Y-150778600D02*
X97686100Y-150778600D01*
G75*
G02*
X97861600Y-150954100I0J-175500D01*
G01*
X97861600Y-152655100D01*
G75*
G02*
X97686100Y-152830600I-175500J0D01*
G01*
X97335100Y-152830600D01*
G75*
G02*
X97159600Y-152655100I0J175500D01*
G01*
X97159600Y-150954100D01*
G75*
G02*
X97335100Y-150778600I175500J0D01*
G01*
G37*
G36*
G01*
X98605100Y-150778600D02*
X98956100Y-150778600D01*
G75*
G02*
X99131600Y-150954100I0J-175500D01*
G01*
X99131600Y-152655100D01*
G75*
G02*
X98956100Y-152830600I-175500J0D01*
G01*
X98605100Y-152830600D01*
G75*
G02*
X98429600Y-152655100I0J175500D01*
G01*
X98429600Y-150954100D01*
G75*
G02*
X98605100Y-150778600I175500J0D01*
G01*
G37*
G36*
G01*
X71803500Y-165618000D02*
X71452500Y-165618000D01*
G75*
G02*
X71277000Y-165442500I0J175500D01*
G01*
X71277000Y-163741500D01*
G75*
G02*
X71452500Y-163566000I175500J0D01*
G01*
X71803500Y-163566000D01*
G75*
G02*
X71979000Y-163741500I0J-175500D01*
G01*
X71979000Y-165442500D01*
G75*
G02*
X71803500Y-165618000I-175500J0D01*
G01*
G37*
G36*
G01*
X73073500Y-165618000D02*
X72722500Y-165618000D01*
G75*
G02*
X72547000Y-165442500I0J175500D01*
G01*
X72547000Y-163741500D01*
G75*
G02*
X72722500Y-163566000I175500J0D01*
G01*
X73073500Y-163566000D01*
G75*
G02*
X73249000Y-163741500I0J-175500D01*
G01*
X73249000Y-165442500D01*
G75*
G02*
X73073500Y-165618000I-175500J0D01*
G01*
G37*
G36*
G01*
X74343500Y-165618000D02*
X73992500Y-165618000D01*
G75*
G02*
X73817000Y-165442500I0J175500D01*
G01*
X73817000Y-163741500D01*
G75*
G02*
X73992500Y-163566000I175500J0D01*
G01*
X74343500Y-163566000D01*
G75*
G02*
X74519000Y-163741500I0J-175500D01*
G01*
X74519000Y-165442500D01*
G75*
G02*
X74343500Y-165618000I-175500J0D01*
G01*
G37*
G36*
G01*
X75613500Y-165618000D02*
X75262500Y-165618000D01*
G75*
G02*
X75087000Y-165442500I0J175500D01*
G01*
X75087000Y-163741500D01*
G75*
G02*
X75262500Y-163566000I175500J0D01*
G01*
X75613500Y-163566000D01*
G75*
G02*
X75789000Y-163741500I0J-175500D01*
G01*
X75789000Y-165442500D01*
G75*
G02*
X75613500Y-165618000I-175500J0D01*
G01*
G37*
G36*
G01*
X75613500Y-170568000D02*
X75262500Y-170568000D01*
G75*
G02*
X75087000Y-170392500I0J175500D01*
G01*
X75087000Y-168691500D01*
G75*
G02*
X75262500Y-168516000I175500J0D01*
G01*
X75613500Y-168516000D01*
G75*
G02*
X75789000Y-168691500I0J-175500D01*
G01*
X75789000Y-170392500D01*
G75*
G02*
X75613500Y-170568000I-175500J0D01*
G01*
G37*
G36*
G01*
X74343500Y-170568000D02*
X73992500Y-170568000D01*
G75*
G02*
X73817000Y-170392500I0J175500D01*
G01*
X73817000Y-168691500D01*
G75*
G02*
X73992500Y-168516000I175500J0D01*
G01*
X74343500Y-168516000D01*
G75*
G02*
X74519000Y-168691500I0J-175500D01*
G01*
X74519000Y-170392500D01*
G75*
G02*
X74343500Y-170568000I-175500J0D01*
G01*
G37*
G36*
G01*
X73073500Y-170568000D02*
X72722500Y-170568000D01*
G75*
G02*
X72547000Y-170392500I0J175500D01*
G01*
X72547000Y-168691500D01*
G75*
G02*
X72722500Y-168516000I175500J0D01*
G01*
X73073500Y-168516000D01*
G75*
G02*
X73249000Y-168691500I0J-175500D01*
G01*
X73249000Y-170392500D01*
G75*
G02*
X73073500Y-170568000I-175500J0D01*
G01*
G37*
G36*
G01*
X71803500Y-170568000D02*
X71452500Y-170568000D01*
G75*
G02*
X71277000Y-170392500I0J175500D01*
G01*
X71277000Y-168691500D01*
G75*
G02*
X71452500Y-168516000I175500J0D01*
G01*
X71803500Y-168516000D01*
G75*
G02*
X71979000Y-168691500I0J-175500D01*
G01*
X71979000Y-170392500D01*
G75*
G02*
X71803500Y-170568000I-175500J0D01*
G01*
G37*
D13*
X123190000Y-173990000D03*
X123190000Y-143510000D03*
X67310000Y-173990000D03*
X67310000Y-143510000D03*
G36*
G01*
X93698300Y-166597400D02*
X93347300Y-166597400D01*
G75*
G02*
X93171800Y-166421900I0J175500D01*
G01*
X93171800Y-164720900D01*
G75*
G02*
X93347300Y-164545400I175500J0D01*
G01*
X93698300Y-164545400D01*
G75*
G02*
X93873800Y-164720900I0J-175500D01*
G01*
X93873800Y-166421900D01*
G75*
G02*
X93698300Y-166597400I-175500J0D01*
G01*
G37*
G36*
G01*
X94968300Y-166597400D02*
X94617300Y-166597400D01*
G75*
G02*
X94441800Y-166421900I0J175500D01*
G01*
X94441800Y-164720900D01*
G75*
G02*
X94617300Y-164545400I175500J0D01*
G01*
X94968300Y-164545400D01*
G75*
G02*
X95143800Y-164720900I0J-175500D01*
G01*
X95143800Y-166421900D01*
G75*
G02*
X94968300Y-166597400I-175500J0D01*
G01*
G37*
G36*
G01*
X96238300Y-166597400D02*
X95887300Y-166597400D01*
G75*
G02*
X95711800Y-166421900I0J175500D01*
G01*
X95711800Y-164720900D01*
G75*
G02*
X95887300Y-164545400I175500J0D01*
G01*
X96238300Y-164545400D01*
G75*
G02*
X96413800Y-164720900I0J-175500D01*
G01*
X96413800Y-166421900D01*
G75*
G02*
X96238300Y-166597400I-175500J0D01*
G01*
G37*
G36*
G01*
X97508300Y-166597400D02*
X97157300Y-166597400D01*
G75*
G02*
X96981800Y-166421900I0J175500D01*
G01*
X96981800Y-164720900D01*
G75*
G02*
X97157300Y-164545400I175500J0D01*
G01*
X97508300Y-164545400D01*
G75*
G02*
X97683800Y-164720900I0J-175500D01*
G01*
X97683800Y-166421900D01*
G75*
G02*
X97508300Y-166597400I-175500J0D01*
G01*
G37*
G36*
G01*
X97508300Y-171547400D02*
X97157300Y-171547400D01*
G75*
G02*
X96981800Y-171371900I0J175500D01*
G01*
X96981800Y-169670900D01*
G75*
G02*
X97157300Y-169495400I175500J0D01*
G01*
X97508300Y-169495400D01*
G75*
G02*
X97683800Y-169670900I0J-175500D01*
G01*
X97683800Y-171371900D01*
G75*
G02*
X97508300Y-171547400I-175500J0D01*
G01*
G37*
G36*
G01*
X96238300Y-171547400D02*
X95887300Y-171547400D01*
G75*
G02*
X95711800Y-171371900I0J175500D01*
G01*
X95711800Y-169670900D01*
G75*
G02*
X95887300Y-169495400I175500J0D01*
G01*
X96238300Y-169495400D01*
G75*
G02*
X96413800Y-169670900I0J-175500D01*
G01*
X96413800Y-171371900D01*
G75*
G02*
X96238300Y-171547400I-175500J0D01*
G01*
G37*
G36*
G01*
X94968300Y-171547400D02*
X94617300Y-171547400D01*
G75*
G02*
X94441800Y-171371900I0J175500D01*
G01*
X94441800Y-169670900D01*
G75*
G02*
X94617300Y-169495400I175500J0D01*
G01*
X94968300Y-169495400D01*
G75*
G02*
X95143800Y-169670900I0J-175500D01*
G01*
X95143800Y-171371900D01*
G75*
G02*
X94968300Y-171547400I-175500J0D01*
G01*
G37*
G36*
G01*
X93698300Y-171547400D02*
X93347300Y-171547400D01*
G75*
G02*
X93171800Y-171371900I0J175500D01*
G01*
X93171800Y-169670900D01*
G75*
G02*
X93347300Y-169495400I175500J0D01*
G01*
X93698300Y-169495400D01*
G75*
G02*
X93873800Y-169670900I0J-175500D01*
G01*
X93873800Y-171371900D01*
G75*
G02*
X93698300Y-171547400I-175500J0D01*
G01*
G37*
D12*
X84328000Y-176149000D03*
X86828000Y-173649000D03*
X89328000Y-176149000D03*
G36*
G01*
X101403865Y-169160100D02*
X102710535Y-169160100D01*
G75*
G02*
X102983200Y-169432765I0J-272665D01*
G01*
X102983200Y-170114435D01*
G75*
G02*
X102710535Y-170387100I-272665J0D01*
G01*
X101403865Y-170387100D01*
G75*
G02*
X101131200Y-170114435I0J272665D01*
G01*
X101131200Y-169432765D01*
G75*
G02*
X101403865Y-169160100I272665J0D01*
G01*
G37*
G36*
G01*
X101403865Y-166235100D02*
X102710535Y-166235100D01*
G75*
G02*
X102983200Y-166507765I0J-272665D01*
G01*
X102983200Y-167189435D01*
G75*
G02*
X102710535Y-167462100I-272665J0D01*
G01*
X101403865Y-167462100D01*
G75*
G02*
X101131200Y-167189435I0J272665D01*
G01*
X101131200Y-166507765D01*
G75*
G02*
X101403865Y-166235100I272665J0D01*
G01*
G37*
G36*
G01*
X98940065Y-169164100D02*
X100246735Y-169164100D01*
G75*
G02*
X100519400Y-169436765I0J-272665D01*
G01*
X100519400Y-170118435D01*
G75*
G02*
X100246735Y-170391100I-272665J0D01*
G01*
X98940065Y-170391100D01*
G75*
G02*
X98667400Y-170118435I0J272665D01*
G01*
X98667400Y-169436765D01*
G75*
G02*
X98940065Y-169164100I272665J0D01*
G01*
G37*
G36*
G01*
X98940065Y-166239100D02*
X100246735Y-166239100D01*
G75*
G02*
X100519400Y-166511765I0J-272665D01*
G01*
X100519400Y-167193435D01*
G75*
G02*
X100246735Y-167466100I-272665J0D01*
G01*
X98940065Y-167466100D01*
G75*
G02*
X98667400Y-167193435I0J272665D01*
G01*
X98667400Y-166511765D01*
G75*
G02*
X98940065Y-166239100I272665J0D01*
G01*
G37*
D11*
X124640000Y-159466000D03*
D14*
X122690000Y-165416000D03*
D11*
X110440000Y-165466000D03*
X110490000Y-153416000D03*
D14*
X122690000Y-153416000D03*
G36*
G01*
X66642500Y-148519500D02*
X66642500Y-150819500D01*
G75*
G02*
X66591500Y-150870500I-51000J0D01*
G01*
X64091500Y-150870500D01*
G75*
G02*
X64040500Y-150819500I0J51000D01*
G01*
X64040500Y-148519500D01*
G75*
G02*
X64091500Y-148468500I51000J0D01*
G01*
X66591500Y-148468500D01*
G75*
G02*
X66642500Y-148519500I0J-51000D01*
G01*
G37*
G36*
G01*
X70942500Y-148519500D02*
X70942500Y-150819500D01*
G75*
G02*
X70891500Y-150870500I-51000J0D01*
G01*
X68391500Y-150870500D01*
G75*
G02*
X68340500Y-150819500I0J51000D01*
G01*
X68340500Y-148519500D01*
G75*
G02*
X68391500Y-148468500I51000J0D01*
G01*
X70891500Y-148468500D01*
G75*
G02*
X70942500Y-148519500I0J-51000D01*
G01*
G37*
G36*
G01*
X75318000Y-143033000D02*
X73018000Y-143033000D01*
G75*
G02*
X72967000Y-142982000I0J51000D01*
G01*
X72967000Y-140482000D01*
G75*
G02*
X73018000Y-140431000I51000J0D01*
G01*
X75318000Y-140431000D01*
G75*
G02*
X75369000Y-140482000I0J-51000D01*
G01*
X75369000Y-142982000D01*
G75*
G02*
X75318000Y-143033000I-51000J0D01*
G01*
G37*
G36*
G01*
X75318000Y-147333000D02*
X73018000Y-147333000D01*
G75*
G02*
X72967000Y-147282000I0J51000D01*
G01*
X72967000Y-144782000D01*
G75*
G02*
X73018000Y-144731000I51000J0D01*
G01*
X75318000Y-144731000D01*
G75*
G02*
X75369000Y-144782000I0J-51000D01*
G01*
X75369000Y-147282000D01*
G75*
G02*
X75318000Y-147333000I-51000J0D01*
G01*
G37*
G36*
G01*
X104274000Y-142804400D02*
X101974000Y-142804400D01*
G75*
G02*
X101923000Y-142753400I0J51000D01*
G01*
X101923000Y-140253400D01*
G75*
G02*
X101974000Y-140202400I51000J0D01*
G01*
X104274000Y-140202400D01*
G75*
G02*
X104325000Y-140253400I0J-51000D01*
G01*
X104325000Y-142753400D01*
G75*
G02*
X104274000Y-142804400I-51000J0D01*
G01*
G37*
G36*
G01*
X104274000Y-147104400D02*
X101974000Y-147104400D01*
G75*
G02*
X101923000Y-147053400I0J51000D01*
G01*
X101923000Y-144553400D01*
G75*
G02*
X101974000Y-144502400I51000J0D01*
G01*
X104274000Y-144502400D01*
G75*
G02*
X104325000Y-144553400I0J-51000D01*
G01*
X104325000Y-147053400D01*
G75*
G02*
X104274000Y-147104400I-51000J0D01*
G01*
G37*
G36*
G01*
X96928200Y-175724200D02*
X96928200Y-173424200D01*
G75*
G02*
X96979200Y-173373200I51000J0D01*
G01*
X99479200Y-173373200D01*
G75*
G02*
X99530200Y-173424200I0J-51000D01*
G01*
X99530200Y-175724200D01*
G75*
G02*
X99479200Y-175775200I-51000J0D01*
G01*
X96979200Y-175775200D01*
G75*
G02*
X96928200Y-175724200I0J51000D01*
G01*
G37*
G36*
G01*
X92628200Y-175724200D02*
X92628200Y-173424200D01*
G75*
G02*
X92679200Y-173373200I51000J0D01*
G01*
X95179200Y-173373200D01*
G75*
G02*
X95230200Y-173424200I0J-51000D01*
G01*
X95230200Y-175724200D01*
G75*
G02*
X95179200Y-175775200I-51000J0D01*
G01*
X92679200Y-175775200D01*
G75*
G02*
X92628200Y-175724200I0J51000D01*
G01*
G37*
D12*
X73700000Y-176109000D03*
X76200000Y-173609000D03*
X78700000Y-176109000D03*
G36*
G01*
X82099865Y-154275700D02*
X83406535Y-154275700D01*
G75*
G02*
X83679200Y-154548365I0J-272665D01*
G01*
X83679200Y-155230035D01*
G75*
G02*
X83406535Y-155502700I-272665J0D01*
G01*
X82099865Y-155502700D01*
G75*
G02*
X81827200Y-155230035I0J272665D01*
G01*
X81827200Y-154548365D01*
G75*
G02*
X82099865Y-154275700I272665J0D01*
G01*
G37*
G36*
G01*
X82099865Y-151350700D02*
X83406535Y-151350700D01*
G75*
G02*
X83679200Y-151623365I0J-272665D01*
G01*
X83679200Y-152305035D01*
G75*
G02*
X83406535Y-152577700I-272665J0D01*
G01*
X82099865Y-152577700D01*
G75*
G02*
X81827200Y-152305035I0J272665D01*
G01*
X81827200Y-151623365D01*
G75*
G02*
X82099865Y-151350700I272665J0D01*
G01*
G37*
G36*
G01*
X77844000Y-167845000D02*
X80144000Y-167845000D01*
G75*
G02*
X80195000Y-167896000I0J-51000D01*
G01*
X80195000Y-170396000D01*
G75*
G02*
X80144000Y-170447000I-51000J0D01*
G01*
X77844000Y-170447000D01*
G75*
G02*
X77793000Y-170396000I0J51000D01*
G01*
X77793000Y-167896000D01*
G75*
G02*
X77844000Y-167845000I51000J0D01*
G01*
G37*
G36*
G01*
X77844000Y-163545000D02*
X80144000Y-163545000D01*
G75*
G02*
X80195000Y-163596000I0J-51000D01*
G01*
X80195000Y-166096000D01*
G75*
G02*
X80144000Y-166147000I-51000J0D01*
G01*
X77844000Y-166147000D01*
G75*
G02*
X77793000Y-166096000I0J51000D01*
G01*
X77793000Y-163596000D01*
G75*
G02*
X77844000Y-163545000I51000J0D01*
G01*
G37*
D15*
G36*
X98216132Y-159328000D02*
G01*
X98216400Y-159329000D01*
X98216400Y-160081000D01*
X98215400Y-160082732D01*
X98214400Y-160083000D01*
X98066400Y-160083000D01*
X98064668Y-160082000D01*
X98064400Y-160081000D01*
X98064400Y-159331000D01*
X97566400Y-159331000D01*
X97566400Y-160081000D01*
X97565400Y-160082732D01*
X97564400Y-160083000D01*
X97416400Y-160083000D01*
X97414668Y-160082000D01*
X97414400Y-160081000D01*
X97414400Y-159329000D01*
X97415400Y-159327268D01*
X97416400Y-159327000D01*
X98214400Y-159327000D01*
X98216132Y-159328000D01*
G37*
M02*
