G04 #@! TF.GenerationSoftware,KiCad,Pcbnew,(5.1.8)-1*
G04 #@! TF.CreationDate,2021-04-25T20:11:44+02:00*
G04 #@! TF.ProjectId,FSG_Reference,4653475f-5265-4666-9572-656e63652e6b,rev?*
G04 #@! TF.SameCoordinates,Original*
G04 #@! TF.FileFunction,Paste,Top*
G04 #@! TF.FilePolarity,Positive*
%FSLAX46Y46*%
G04 Gerber Fmt 4.6, Leading zero omitted, Abs format (unit mm)*
G04 Created by KiCad (PCBNEW (5.1.8)-1) date 2021-04-25 20:11:44*
%MOMM*%
%LPD*%
G01*
G04 APERTURE LIST*
%ADD10R,0.400000X0.650000*%
%ADD11R,2.600000X1.500000*%
%ADD12R,2.750000X3.050000*%
%ADD13R,1.200000X2.200000*%
%ADD14R,2.500000X2.300000*%
%ADD15R,2.300000X2.500000*%
G04 APERTURE END LIST*
D10*
X98465400Y-161605000D03*
X97165400Y-161605000D03*
X97815400Y-159705000D03*
X97165400Y-159705000D03*
X98465400Y-159705000D03*
D11*
X106045000Y-175895000D03*
X106045000Y-172895000D03*
X101854000Y-175847000D03*
X101854000Y-172847000D03*
D12*
X73607200Y-157076400D03*
X76657200Y-160426400D03*
X76657200Y-157076400D03*
X73607200Y-160426400D03*
D13*
X72852200Y-152451400D03*
X75132200Y-152451400D03*
X77412200Y-152451400D03*
G36*
G01*
X91678599Y-153742500D02*
X92928601Y-153742500D01*
G75*
G02*
X93178600Y-153992499I0J-249999D01*
G01*
X93178600Y-154617501D01*
G75*
G02*
X92928601Y-154867500I-249999J0D01*
G01*
X91678599Y-154867500D01*
G75*
G02*
X91428600Y-154617501I0J249999D01*
G01*
X91428600Y-153992499D01*
G75*
G02*
X91678599Y-153742500I249999J0D01*
G01*
G37*
G36*
G01*
X91678599Y-150817500D02*
X92928601Y-150817500D01*
G75*
G02*
X93178600Y-151067499I0J-249999D01*
G01*
X93178600Y-151692501D01*
G75*
G02*
X92928601Y-151942500I-249999J0D01*
G01*
X91678599Y-151942500D01*
G75*
G02*
X91428600Y-151692501I0J249999D01*
G01*
X91428600Y-151067499D01*
G75*
G02*
X91678599Y-150817500I249999J0D01*
G01*
G37*
G36*
G01*
X80812401Y-152517800D02*
X79512399Y-152517800D01*
G75*
G02*
X79262400Y-152267801I0J249999D01*
G01*
X79262400Y-151617799D01*
G75*
G02*
X79512399Y-151367800I249999J0D01*
G01*
X80812401Y-151367800D01*
G75*
G02*
X81062400Y-151617799I0J-249999D01*
G01*
X81062400Y-152267801D01*
G75*
G02*
X80812401Y-152517800I-249999J0D01*
G01*
G37*
G36*
G01*
X80812401Y-155467800D02*
X79512399Y-155467800D01*
G75*
G02*
X79262400Y-155217801I0J249999D01*
G01*
X79262400Y-154567799D01*
G75*
G02*
X79512399Y-154317800I249999J0D01*
G01*
X80812401Y-154317800D01*
G75*
G02*
X81062400Y-154567799I0J-249999D01*
G01*
X81062400Y-155217801D01*
G75*
G02*
X80812401Y-155467800I-249999J0D01*
G01*
G37*
G36*
G01*
X79512399Y-159191000D02*
X80812401Y-159191000D01*
G75*
G02*
X81062400Y-159440999I0J-249999D01*
G01*
X81062400Y-160091001D01*
G75*
G02*
X80812401Y-160341000I-249999J0D01*
G01*
X79512399Y-160341000D01*
G75*
G02*
X79262400Y-160091001I0J249999D01*
G01*
X79262400Y-159440999D01*
G75*
G02*
X79512399Y-159191000I249999J0D01*
G01*
G37*
G36*
G01*
X79512399Y-156241000D02*
X80812401Y-156241000D01*
G75*
G02*
X81062400Y-156490999I0J-249999D01*
G01*
X81062400Y-157141001D01*
G75*
G02*
X80812401Y-157391000I-249999J0D01*
G01*
X79512399Y-157391000D01*
G75*
G02*
X79262400Y-157141001I0J249999D01*
G01*
X79262400Y-156490999D01*
G75*
G02*
X79512399Y-156241000I249999J0D01*
G01*
G37*
G36*
G01*
X103819799Y-169215100D02*
X105069801Y-169215100D01*
G75*
G02*
X105319800Y-169465099I0J-249999D01*
G01*
X105319800Y-170090101D01*
G75*
G02*
X105069801Y-170340100I-249999J0D01*
G01*
X103819799Y-170340100D01*
G75*
G02*
X103569800Y-170090101I0J249999D01*
G01*
X103569800Y-169465099D01*
G75*
G02*
X103819799Y-169215100I249999J0D01*
G01*
G37*
G36*
G01*
X103819799Y-166290100D02*
X105069801Y-166290100D01*
G75*
G02*
X105319800Y-166540099I0J-249999D01*
G01*
X105319800Y-167165101D01*
G75*
G02*
X105069801Y-167415100I-249999J0D01*
G01*
X103819799Y-167415100D01*
G75*
G02*
X103569800Y-167165101I0J249999D01*
G01*
X103569800Y-166540099D01*
G75*
G02*
X103819799Y-166290100I249999J0D01*
G01*
G37*
G36*
G01*
X102285500Y-155813599D02*
X102285500Y-157063601D01*
G75*
G02*
X102035501Y-157313600I-249999J0D01*
G01*
X101410499Y-157313600D01*
G75*
G02*
X101160500Y-157063601I0J249999D01*
G01*
X101160500Y-155813599D01*
G75*
G02*
X101410499Y-155563600I249999J0D01*
G01*
X102035501Y-155563600D01*
G75*
G02*
X102285500Y-155813599I0J-249999D01*
G01*
G37*
G36*
G01*
X105210500Y-155813599D02*
X105210500Y-157063601D01*
G75*
G02*
X104960501Y-157313600I-249999J0D01*
G01*
X104335499Y-157313600D01*
G75*
G02*
X104085500Y-157063601I0J249999D01*
G01*
X104085500Y-155813599D01*
G75*
G02*
X104335499Y-155563600I249999J0D01*
G01*
X104960501Y-155563600D01*
G75*
G02*
X105210500Y-155813599I0J-249999D01*
G01*
G37*
G36*
G01*
X104060100Y-151907401D02*
X104060100Y-150657399D01*
G75*
G02*
X104310099Y-150407400I249999J0D01*
G01*
X104935101Y-150407400D01*
G75*
G02*
X105185100Y-150657399I0J-249999D01*
G01*
X105185100Y-151907401D01*
G75*
G02*
X104935101Y-152157400I-249999J0D01*
G01*
X104310099Y-152157400D01*
G75*
G02*
X104060100Y-151907401I0J249999D01*
G01*
G37*
G36*
G01*
X101135100Y-151907401D02*
X101135100Y-150657399D01*
G75*
G02*
X101385099Y-150407400I249999J0D01*
G01*
X102010101Y-150407400D01*
G75*
G02*
X102260100Y-150657399I0J-249999D01*
G01*
X102260100Y-151907401D01*
G75*
G02*
X102010101Y-152157400I-249999J0D01*
G01*
X101385099Y-152157400D01*
G75*
G02*
X101135100Y-151907401I0J249999D01*
G01*
G37*
G36*
G01*
X102238700Y-148142799D02*
X102238700Y-149392801D01*
G75*
G02*
X101988701Y-149642800I-249999J0D01*
G01*
X101363699Y-149642800D01*
G75*
G02*
X101113700Y-149392801I0J249999D01*
G01*
X101113700Y-148142799D01*
G75*
G02*
X101363699Y-147892800I249999J0D01*
G01*
X101988701Y-147892800D01*
G75*
G02*
X102238700Y-148142799I0J-249999D01*
G01*
G37*
G36*
G01*
X105163700Y-148142799D02*
X105163700Y-149392801D01*
G75*
G02*
X104913701Y-149642800I-249999J0D01*
G01*
X104288699Y-149642800D01*
G75*
G02*
X104038700Y-149392801I0J249999D01*
G01*
X104038700Y-148142799D01*
G75*
G02*
X104288699Y-147892800I249999J0D01*
G01*
X104913701Y-147892800D01*
G75*
G02*
X105163700Y-148142799I0J-249999D01*
G01*
G37*
G36*
G01*
X68754100Y-167579201D02*
X68754100Y-166329199D01*
G75*
G02*
X69004099Y-166079200I249999J0D01*
G01*
X69629101Y-166079200D01*
G75*
G02*
X69879100Y-166329199I0J-249999D01*
G01*
X69879100Y-167579201D01*
G75*
G02*
X69629101Y-167829200I-249999J0D01*
G01*
X69004099Y-167829200D01*
G75*
G02*
X68754100Y-167579201I0J249999D01*
G01*
G37*
G36*
G01*
X65829100Y-167579201D02*
X65829100Y-166329199D01*
G75*
G02*
X66079099Y-166079200I249999J0D01*
G01*
X66704101Y-166079200D01*
G75*
G02*
X66954100Y-166329199I0J-249999D01*
G01*
X66954100Y-167579201D01*
G75*
G02*
X66704101Y-167829200I-249999J0D01*
G01*
X66079099Y-167829200D01*
G75*
G02*
X65829100Y-167579201I0J249999D01*
G01*
G37*
G36*
G01*
X86903399Y-169392900D02*
X88153401Y-169392900D01*
G75*
G02*
X88403400Y-169642899I0J-249999D01*
G01*
X88403400Y-170267901D01*
G75*
G02*
X88153401Y-170517900I-249999J0D01*
G01*
X86903399Y-170517900D01*
G75*
G02*
X86653400Y-170267901I0J249999D01*
G01*
X86653400Y-169642899D01*
G75*
G02*
X86903399Y-169392900I249999J0D01*
G01*
G37*
G36*
G01*
X86903399Y-166467900D02*
X88153401Y-166467900D01*
G75*
G02*
X88403400Y-166717899I0J-249999D01*
G01*
X88403400Y-167342901D01*
G75*
G02*
X88153401Y-167592900I-249999J0D01*
G01*
X86903399Y-167592900D01*
G75*
G02*
X86653400Y-167342901I0J249999D01*
G01*
X86653400Y-166717899D01*
G75*
G02*
X86903399Y-166467900I249999J0D01*
G01*
G37*
G36*
G01*
X85448301Y-167576300D02*
X84198299Y-167576300D01*
G75*
G02*
X83948300Y-167326301I0J249999D01*
G01*
X83948300Y-166701299D01*
G75*
G02*
X84198299Y-166451300I249999J0D01*
G01*
X85448301Y-166451300D01*
G75*
G02*
X85698300Y-166701299I0J-249999D01*
G01*
X85698300Y-167326301D01*
G75*
G02*
X85448301Y-167576300I-249999J0D01*
G01*
G37*
G36*
G01*
X85448301Y-170501300D02*
X84198299Y-170501300D01*
G75*
G02*
X83948300Y-170251301I0J249999D01*
G01*
X83948300Y-169626299D01*
G75*
G02*
X84198299Y-169376300I249999J0D01*
G01*
X85448301Y-169376300D01*
G75*
G02*
X85698300Y-169626299I0J-249999D01*
G01*
X85698300Y-170251301D01*
G75*
G02*
X85448301Y-170501300I-249999J0D01*
G01*
G37*
G36*
G01*
X90414001Y-151946500D02*
X89163999Y-151946500D01*
G75*
G02*
X88914000Y-151696501I0J249999D01*
G01*
X88914000Y-151071499D01*
G75*
G02*
X89163999Y-150821500I249999J0D01*
G01*
X90414001Y-150821500D01*
G75*
G02*
X90664000Y-151071499I0J-249999D01*
G01*
X90664000Y-151696501D01*
G75*
G02*
X90414001Y-151946500I-249999J0D01*
G01*
G37*
G36*
G01*
X90414001Y-154871500D02*
X89163999Y-154871500D01*
G75*
G02*
X88914000Y-154621501I0J249999D01*
G01*
X88914000Y-153996499D01*
G75*
G02*
X89163999Y-153746500I249999J0D01*
G01*
X90414001Y-153746500D01*
G75*
G02*
X90664000Y-153996499I0J-249999D01*
G01*
X90664000Y-154621501D01*
G75*
G02*
X90414001Y-154871500I-249999J0D01*
G01*
G37*
G36*
G01*
X87874001Y-151946500D02*
X86623999Y-151946500D01*
G75*
G02*
X86374000Y-151696501I0J249999D01*
G01*
X86374000Y-151071499D01*
G75*
G02*
X86623999Y-150821500I249999J0D01*
G01*
X87874001Y-150821500D01*
G75*
G02*
X88124000Y-151071499I0J-249999D01*
G01*
X88124000Y-151696501D01*
G75*
G02*
X87874001Y-151946500I-249999J0D01*
G01*
G37*
G36*
G01*
X87874001Y-154871500D02*
X86623999Y-154871500D01*
G75*
G02*
X86374000Y-154621501I0J249999D01*
G01*
X86374000Y-153996499D01*
G75*
G02*
X86623999Y-153746500I249999J0D01*
G01*
X87874001Y-153746500D01*
G75*
G02*
X88124000Y-153996499I0J-249999D01*
G01*
X88124000Y-154621501D01*
G75*
G02*
X87874001Y-154871500I-249999J0D01*
G01*
G37*
G36*
G01*
X74863000Y-150205201D02*
X74863000Y-148905199D01*
G75*
G02*
X75112999Y-148655200I249999J0D01*
G01*
X75763001Y-148655200D01*
G75*
G02*
X76013000Y-148905199I0J-249999D01*
G01*
X76013000Y-150205201D01*
G75*
G02*
X75763001Y-150455200I-249999J0D01*
G01*
X75112999Y-150455200D01*
G75*
G02*
X74863000Y-150205201I0J249999D01*
G01*
G37*
G36*
G01*
X71913000Y-150205201D02*
X71913000Y-148905199D01*
G75*
G02*
X72162999Y-148655200I249999J0D01*
G01*
X72813001Y-148655200D01*
G75*
G02*
X73063000Y-148905199I0J-249999D01*
G01*
X73063000Y-150205201D01*
G75*
G02*
X72813001Y-150455200I-249999J0D01*
G01*
X72162999Y-150455200D01*
G75*
G02*
X71913000Y-150205201I0J249999D01*
G01*
G37*
G36*
G01*
X104073000Y-154497801D02*
X104073000Y-153197799D01*
G75*
G02*
X104322999Y-152947800I249999J0D01*
G01*
X104973001Y-152947800D01*
G75*
G02*
X105223000Y-153197799I0J-249999D01*
G01*
X105223000Y-154497801D01*
G75*
G02*
X104973001Y-154747800I-249999J0D01*
G01*
X104322999Y-154747800D01*
G75*
G02*
X104073000Y-154497801I0J249999D01*
G01*
G37*
G36*
G01*
X101123000Y-154497801D02*
X101123000Y-153197799D01*
G75*
G02*
X101372999Y-152947800I249999J0D01*
G01*
X102023001Y-152947800D01*
G75*
G02*
X102273000Y-153197799I0J-249999D01*
G01*
X102273000Y-154497801D01*
G75*
G02*
X102023001Y-154747800I-249999J0D01*
G01*
X101372999Y-154747800D01*
G75*
G02*
X101123000Y-154497801I0J249999D01*
G01*
G37*
G36*
G01*
X66992400Y-163840399D02*
X66992400Y-165140401D01*
G75*
G02*
X66742401Y-165390400I-249999J0D01*
G01*
X66092399Y-165390400D01*
G75*
G02*
X65842400Y-165140401I0J249999D01*
G01*
X65842400Y-163840399D01*
G75*
G02*
X66092399Y-163590400I249999J0D01*
G01*
X66742401Y-163590400D01*
G75*
G02*
X66992400Y-163840399I0J-249999D01*
G01*
G37*
G36*
G01*
X69942400Y-163840399D02*
X69942400Y-165140401D01*
G75*
G02*
X69692401Y-165390400I-249999J0D01*
G01*
X69042399Y-165390400D01*
G75*
G02*
X68792400Y-165140401I0J249999D01*
G01*
X68792400Y-163840399D01*
G75*
G02*
X69042399Y-163590400I249999J0D01*
G01*
X69692401Y-163590400D01*
G75*
G02*
X69942400Y-163840399I0J-249999D01*
G01*
G37*
G36*
G01*
X90180399Y-169401800D02*
X91480401Y-169401800D01*
G75*
G02*
X91730400Y-169651799I0J-249999D01*
G01*
X91730400Y-170301801D01*
G75*
G02*
X91480401Y-170551800I-249999J0D01*
G01*
X90180399Y-170551800D01*
G75*
G02*
X89930400Y-170301801I0J249999D01*
G01*
X89930400Y-169651799D01*
G75*
G02*
X90180399Y-169401800I249999J0D01*
G01*
G37*
G36*
G01*
X90180399Y-166451800D02*
X91480401Y-166451800D01*
G75*
G02*
X91730400Y-166701799I0J-249999D01*
G01*
X91730400Y-167351801D01*
G75*
G02*
X91480401Y-167601800I-249999J0D01*
G01*
X90180399Y-167601800D01*
G75*
G02*
X89930400Y-167351801I0J249999D01*
G01*
X89930400Y-166701799D01*
G75*
G02*
X90180399Y-166451800I249999J0D01*
G01*
G37*
G36*
G01*
X98630600Y-155779600D02*
X98930600Y-155779600D01*
G75*
G02*
X99080600Y-155929600I0J-150000D01*
G01*
X99080600Y-157579600D01*
G75*
G02*
X98930600Y-157729600I-150000J0D01*
G01*
X98630600Y-157729600D01*
G75*
G02*
X98480600Y-157579600I0J150000D01*
G01*
X98480600Y-155929600D01*
G75*
G02*
X98630600Y-155779600I150000J0D01*
G01*
G37*
G36*
G01*
X97360600Y-155779600D02*
X97660600Y-155779600D01*
G75*
G02*
X97810600Y-155929600I0J-150000D01*
G01*
X97810600Y-157579600D01*
G75*
G02*
X97660600Y-157729600I-150000J0D01*
G01*
X97360600Y-157729600D01*
G75*
G02*
X97210600Y-157579600I0J150000D01*
G01*
X97210600Y-155929600D01*
G75*
G02*
X97360600Y-155779600I150000J0D01*
G01*
G37*
G36*
G01*
X96090600Y-155779600D02*
X96390600Y-155779600D01*
G75*
G02*
X96540600Y-155929600I0J-150000D01*
G01*
X96540600Y-157579600D01*
G75*
G02*
X96390600Y-157729600I-150000J0D01*
G01*
X96090600Y-157729600D01*
G75*
G02*
X95940600Y-157579600I0J150000D01*
G01*
X95940600Y-155929600D01*
G75*
G02*
X96090600Y-155779600I150000J0D01*
G01*
G37*
G36*
G01*
X94820600Y-155779600D02*
X95120600Y-155779600D01*
G75*
G02*
X95270600Y-155929600I0J-150000D01*
G01*
X95270600Y-157579600D01*
G75*
G02*
X95120600Y-157729600I-150000J0D01*
G01*
X94820600Y-157729600D01*
G75*
G02*
X94670600Y-157579600I0J150000D01*
G01*
X94670600Y-155929600D01*
G75*
G02*
X94820600Y-155779600I150000J0D01*
G01*
G37*
G36*
G01*
X94820600Y-150829600D02*
X95120600Y-150829600D01*
G75*
G02*
X95270600Y-150979600I0J-150000D01*
G01*
X95270600Y-152629600D01*
G75*
G02*
X95120600Y-152779600I-150000J0D01*
G01*
X94820600Y-152779600D01*
G75*
G02*
X94670600Y-152629600I0J150000D01*
G01*
X94670600Y-150979600D01*
G75*
G02*
X94820600Y-150829600I150000J0D01*
G01*
G37*
G36*
G01*
X96090600Y-150829600D02*
X96390600Y-150829600D01*
G75*
G02*
X96540600Y-150979600I0J-150000D01*
G01*
X96540600Y-152629600D01*
G75*
G02*
X96390600Y-152779600I-150000J0D01*
G01*
X96090600Y-152779600D01*
G75*
G02*
X95940600Y-152629600I0J150000D01*
G01*
X95940600Y-150979600D01*
G75*
G02*
X96090600Y-150829600I150000J0D01*
G01*
G37*
G36*
G01*
X97360600Y-150829600D02*
X97660600Y-150829600D01*
G75*
G02*
X97810600Y-150979600I0J-150000D01*
G01*
X97810600Y-152629600D01*
G75*
G02*
X97660600Y-152779600I-150000J0D01*
G01*
X97360600Y-152779600D01*
G75*
G02*
X97210600Y-152629600I0J150000D01*
G01*
X97210600Y-150979600D01*
G75*
G02*
X97360600Y-150829600I150000J0D01*
G01*
G37*
G36*
G01*
X98630600Y-150829600D02*
X98930600Y-150829600D01*
G75*
G02*
X99080600Y-150979600I0J-150000D01*
G01*
X99080600Y-152629600D01*
G75*
G02*
X98930600Y-152779600I-150000J0D01*
G01*
X98630600Y-152779600D01*
G75*
G02*
X98480600Y-152629600I0J150000D01*
G01*
X98480600Y-150979600D01*
G75*
G02*
X98630600Y-150829600I150000J0D01*
G01*
G37*
G36*
G01*
X71778000Y-165567000D02*
X71478000Y-165567000D01*
G75*
G02*
X71328000Y-165417000I0J150000D01*
G01*
X71328000Y-163767000D01*
G75*
G02*
X71478000Y-163617000I150000J0D01*
G01*
X71778000Y-163617000D01*
G75*
G02*
X71928000Y-163767000I0J-150000D01*
G01*
X71928000Y-165417000D01*
G75*
G02*
X71778000Y-165567000I-150000J0D01*
G01*
G37*
G36*
G01*
X73048000Y-165567000D02*
X72748000Y-165567000D01*
G75*
G02*
X72598000Y-165417000I0J150000D01*
G01*
X72598000Y-163767000D01*
G75*
G02*
X72748000Y-163617000I150000J0D01*
G01*
X73048000Y-163617000D01*
G75*
G02*
X73198000Y-163767000I0J-150000D01*
G01*
X73198000Y-165417000D01*
G75*
G02*
X73048000Y-165567000I-150000J0D01*
G01*
G37*
G36*
G01*
X74318000Y-165567000D02*
X74018000Y-165567000D01*
G75*
G02*
X73868000Y-165417000I0J150000D01*
G01*
X73868000Y-163767000D01*
G75*
G02*
X74018000Y-163617000I150000J0D01*
G01*
X74318000Y-163617000D01*
G75*
G02*
X74468000Y-163767000I0J-150000D01*
G01*
X74468000Y-165417000D01*
G75*
G02*
X74318000Y-165567000I-150000J0D01*
G01*
G37*
G36*
G01*
X75588000Y-165567000D02*
X75288000Y-165567000D01*
G75*
G02*
X75138000Y-165417000I0J150000D01*
G01*
X75138000Y-163767000D01*
G75*
G02*
X75288000Y-163617000I150000J0D01*
G01*
X75588000Y-163617000D01*
G75*
G02*
X75738000Y-163767000I0J-150000D01*
G01*
X75738000Y-165417000D01*
G75*
G02*
X75588000Y-165567000I-150000J0D01*
G01*
G37*
G36*
G01*
X75588000Y-170517000D02*
X75288000Y-170517000D01*
G75*
G02*
X75138000Y-170367000I0J150000D01*
G01*
X75138000Y-168717000D01*
G75*
G02*
X75288000Y-168567000I150000J0D01*
G01*
X75588000Y-168567000D01*
G75*
G02*
X75738000Y-168717000I0J-150000D01*
G01*
X75738000Y-170367000D01*
G75*
G02*
X75588000Y-170517000I-150000J0D01*
G01*
G37*
G36*
G01*
X74318000Y-170517000D02*
X74018000Y-170517000D01*
G75*
G02*
X73868000Y-170367000I0J150000D01*
G01*
X73868000Y-168717000D01*
G75*
G02*
X74018000Y-168567000I150000J0D01*
G01*
X74318000Y-168567000D01*
G75*
G02*
X74468000Y-168717000I0J-150000D01*
G01*
X74468000Y-170367000D01*
G75*
G02*
X74318000Y-170517000I-150000J0D01*
G01*
G37*
G36*
G01*
X73048000Y-170517000D02*
X72748000Y-170517000D01*
G75*
G02*
X72598000Y-170367000I0J150000D01*
G01*
X72598000Y-168717000D01*
G75*
G02*
X72748000Y-168567000I150000J0D01*
G01*
X73048000Y-168567000D01*
G75*
G02*
X73198000Y-168717000I0J-150000D01*
G01*
X73198000Y-170367000D01*
G75*
G02*
X73048000Y-170517000I-150000J0D01*
G01*
G37*
G36*
G01*
X71778000Y-170517000D02*
X71478000Y-170517000D01*
G75*
G02*
X71328000Y-170367000I0J150000D01*
G01*
X71328000Y-168717000D01*
G75*
G02*
X71478000Y-168567000I150000J0D01*
G01*
X71778000Y-168567000D01*
G75*
G02*
X71928000Y-168717000I0J-150000D01*
G01*
X71928000Y-170367000D01*
G75*
G02*
X71778000Y-170517000I-150000J0D01*
G01*
G37*
G36*
G01*
X93672800Y-166546400D02*
X93372800Y-166546400D01*
G75*
G02*
X93222800Y-166396400I0J150000D01*
G01*
X93222800Y-164746400D01*
G75*
G02*
X93372800Y-164596400I150000J0D01*
G01*
X93672800Y-164596400D01*
G75*
G02*
X93822800Y-164746400I0J-150000D01*
G01*
X93822800Y-166396400D01*
G75*
G02*
X93672800Y-166546400I-150000J0D01*
G01*
G37*
G36*
G01*
X94942800Y-166546400D02*
X94642800Y-166546400D01*
G75*
G02*
X94492800Y-166396400I0J150000D01*
G01*
X94492800Y-164746400D01*
G75*
G02*
X94642800Y-164596400I150000J0D01*
G01*
X94942800Y-164596400D01*
G75*
G02*
X95092800Y-164746400I0J-150000D01*
G01*
X95092800Y-166396400D01*
G75*
G02*
X94942800Y-166546400I-150000J0D01*
G01*
G37*
G36*
G01*
X96212800Y-166546400D02*
X95912800Y-166546400D01*
G75*
G02*
X95762800Y-166396400I0J150000D01*
G01*
X95762800Y-164746400D01*
G75*
G02*
X95912800Y-164596400I150000J0D01*
G01*
X96212800Y-164596400D01*
G75*
G02*
X96362800Y-164746400I0J-150000D01*
G01*
X96362800Y-166396400D01*
G75*
G02*
X96212800Y-166546400I-150000J0D01*
G01*
G37*
G36*
G01*
X97482800Y-166546400D02*
X97182800Y-166546400D01*
G75*
G02*
X97032800Y-166396400I0J150000D01*
G01*
X97032800Y-164746400D01*
G75*
G02*
X97182800Y-164596400I150000J0D01*
G01*
X97482800Y-164596400D01*
G75*
G02*
X97632800Y-164746400I0J-150000D01*
G01*
X97632800Y-166396400D01*
G75*
G02*
X97482800Y-166546400I-150000J0D01*
G01*
G37*
G36*
G01*
X97482800Y-171496400D02*
X97182800Y-171496400D01*
G75*
G02*
X97032800Y-171346400I0J150000D01*
G01*
X97032800Y-169696400D01*
G75*
G02*
X97182800Y-169546400I150000J0D01*
G01*
X97482800Y-169546400D01*
G75*
G02*
X97632800Y-169696400I0J-150000D01*
G01*
X97632800Y-171346400D01*
G75*
G02*
X97482800Y-171496400I-150000J0D01*
G01*
G37*
G36*
G01*
X96212800Y-171496400D02*
X95912800Y-171496400D01*
G75*
G02*
X95762800Y-171346400I0J150000D01*
G01*
X95762800Y-169696400D01*
G75*
G02*
X95912800Y-169546400I150000J0D01*
G01*
X96212800Y-169546400D01*
G75*
G02*
X96362800Y-169696400I0J-150000D01*
G01*
X96362800Y-171346400D01*
G75*
G02*
X96212800Y-171496400I-150000J0D01*
G01*
G37*
G36*
G01*
X94942800Y-171496400D02*
X94642800Y-171496400D01*
G75*
G02*
X94492800Y-171346400I0J150000D01*
G01*
X94492800Y-169696400D01*
G75*
G02*
X94642800Y-169546400I150000J0D01*
G01*
X94942800Y-169546400D01*
G75*
G02*
X95092800Y-169696400I0J-150000D01*
G01*
X95092800Y-171346400D01*
G75*
G02*
X94942800Y-171496400I-150000J0D01*
G01*
G37*
G36*
G01*
X93672800Y-171496400D02*
X93372800Y-171496400D01*
G75*
G02*
X93222800Y-171346400I0J150000D01*
G01*
X93222800Y-169696400D01*
G75*
G02*
X93372800Y-169546400I150000J0D01*
G01*
X93672800Y-169546400D01*
G75*
G02*
X93822800Y-169696400I0J-150000D01*
G01*
X93822800Y-171346400D01*
G75*
G02*
X93672800Y-171496400I-150000J0D01*
G01*
G37*
G36*
G01*
X101432199Y-169211100D02*
X102682201Y-169211100D01*
G75*
G02*
X102932200Y-169461099I0J-249999D01*
G01*
X102932200Y-170086101D01*
G75*
G02*
X102682201Y-170336100I-249999J0D01*
G01*
X101432199Y-170336100D01*
G75*
G02*
X101182200Y-170086101I0J249999D01*
G01*
X101182200Y-169461099D01*
G75*
G02*
X101432199Y-169211100I249999J0D01*
G01*
G37*
G36*
G01*
X101432199Y-166286100D02*
X102682201Y-166286100D01*
G75*
G02*
X102932200Y-166536099I0J-249999D01*
G01*
X102932200Y-167161101D01*
G75*
G02*
X102682201Y-167411100I-249999J0D01*
G01*
X101432199Y-167411100D01*
G75*
G02*
X101182200Y-167161101I0J249999D01*
G01*
X101182200Y-166536099D01*
G75*
G02*
X101432199Y-166286100I249999J0D01*
G01*
G37*
G36*
G01*
X98968399Y-169215100D02*
X100218401Y-169215100D01*
G75*
G02*
X100468400Y-169465099I0J-249999D01*
G01*
X100468400Y-170090101D01*
G75*
G02*
X100218401Y-170340100I-249999J0D01*
G01*
X98968399Y-170340100D01*
G75*
G02*
X98718400Y-170090101I0J249999D01*
G01*
X98718400Y-169465099D01*
G75*
G02*
X98968399Y-169215100I249999J0D01*
G01*
G37*
G36*
G01*
X98968399Y-166290100D02*
X100218401Y-166290100D01*
G75*
G02*
X100468400Y-166540099I0J-249999D01*
G01*
X100468400Y-167165101D01*
G75*
G02*
X100218401Y-167415100I-249999J0D01*
G01*
X98968399Y-167415100D01*
G75*
G02*
X98718400Y-167165101I0J249999D01*
G01*
X98718400Y-166540099D01*
G75*
G02*
X98968399Y-166290100I249999J0D01*
G01*
G37*
D14*
X65341500Y-149669500D03*
X69641500Y-149669500D03*
D15*
X74168000Y-141732000D03*
X74168000Y-146032000D03*
X103124000Y-141503400D03*
X103124000Y-145803400D03*
D14*
X98229200Y-174574200D03*
X93929200Y-174574200D03*
G36*
G01*
X82128199Y-154326700D02*
X83378201Y-154326700D01*
G75*
G02*
X83628200Y-154576699I0J-249999D01*
G01*
X83628200Y-155201701D01*
G75*
G02*
X83378201Y-155451700I-249999J0D01*
G01*
X82128199Y-155451700D01*
G75*
G02*
X81878200Y-155201701I0J249999D01*
G01*
X81878200Y-154576699D01*
G75*
G02*
X82128199Y-154326700I249999J0D01*
G01*
G37*
G36*
G01*
X82128199Y-151401700D02*
X83378201Y-151401700D01*
G75*
G02*
X83628200Y-151651699I0J-249999D01*
G01*
X83628200Y-152276701D01*
G75*
G02*
X83378201Y-152526700I-249999J0D01*
G01*
X82128199Y-152526700D01*
G75*
G02*
X81878200Y-152276701I0J249999D01*
G01*
X81878200Y-151651699D01*
G75*
G02*
X82128199Y-151401700I249999J0D01*
G01*
G37*
D15*
X78994000Y-169146000D03*
X78994000Y-164846000D03*
M02*
