G04 #@! TF.GenerationSoftware,KiCad,Pcbnew,(5.1.8)-1*
G04 #@! TF.CreationDate,2021-04-25T20:11:44+02:00*
G04 #@! TF.ProjectId,FSG_Reference,4653475f-5265-4666-9572-656e63652e6b,rev?*
G04 #@! TF.SameCoordinates,Original*
G04 #@! TF.FileFunction,Copper,L1,Top*
G04 #@! TF.FilePolarity,Positive*
%FSLAX46Y46*%
G04 Gerber Fmt 4.6, Leading zero omitted, Abs format (unit mm)*
G04 Created by KiCad (PCBNEW (5.1.8)-1) date 2021-04-25 20:11:44*
%MOMM*%
%LPD*%
G01*
G04 APERTURE LIST*
G04 #@! TA.AperFunction,SMDPad,CuDef*
%ADD10R,0.400000X0.650000*%
G04 #@! TD*
G04 #@! TA.AperFunction,SMDPad,CuDef*
%ADD11R,2.600000X1.500000*%
G04 #@! TD*
G04 #@! TA.AperFunction,SMDPad,CuDef*
%ADD12R,5.800000X6.400000*%
G04 #@! TD*
G04 #@! TA.AperFunction,SMDPad,CuDef*
%ADD13R,1.200000X2.200000*%
G04 #@! TD*
G04 #@! TA.AperFunction,ComponentPad*
%ADD14O,1.500000X2.020000*%
G04 #@! TD*
G04 #@! TA.AperFunction,ComponentPad*
%ADD15C,3.000000*%
G04 #@! TD*
G04 #@! TA.AperFunction,ComponentPad*
%ADD16R,3.000000X3.000000*%
G04 #@! TD*
G04 #@! TA.AperFunction,ComponentPad*
%ADD17C,2.340000*%
G04 #@! TD*
G04 #@! TA.AperFunction,ComponentPad*
%ADD18C,2.500000*%
G04 #@! TD*
G04 #@! TA.AperFunction,SMDPad,CuDef*
%ADD19R,2.500000X2.300000*%
G04 #@! TD*
G04 #@! TA.AperFunction,SMDPad,CuDef*
%ADD20R,2.300000X2.500000*%
G04 #@! TD*
G04 #@! TA.AperFunction,ViaPad*
%ADD21C,0.800000*%
G04 #@! TD*
G04 #@! TA.AperFunction,Conductor*
%ADD22C,0.400000*%
G04 #@! TD*
G04 #@! TA.AperFunction,Conductor*
%ADD23C,0.250000*%
G04 #@! TD*
G04 #@! TA.AperFunction,Conductor*
%ADD24C,0.500000*%
G04 #@! TD*
G04 #@! TA.AperFunction,Conductor*
%ADD25C,0.254000*%
G04 #@! TD*
G04 #@! TA.AperFunction,Conductor*
%ADD26C,0.100000*%
G04 #@! TD*
G04 APERTURE END LIST*
D10*
X98465400Y-161605000D03*
X97165400Y-161605000D03*
X97815400Y-159705000D03*
X97165400Y-159705000D03*
X98465400Y-159705000D03*
D11*
X106045000Y-175895000D03*
X106045000Y-172895000D03*
X101854000Y-175847000D03*
X101854000Y-172847000D03*
D12*
X75132200Y-158751400D03*
D13*
X72852200Y-152451400D03*
X75132200Y-152451400D03*
X77412200Y-152451400D03*
G04 #@! TA.AperFunction,SMDPad,CuDef*
G36*
G01*
X91678599Y-153742500D02*
X92928601Y-153742500D01*
G75*
G02*
X93178600Y-153992499I0J-249999D01*
G01*
X93178600Y-154617501D01*
G75*
G02*
X92928601Y-154867500I-249999J0D01*
G01*
X91678599Y-154867500D01*
G75*
G02*
X91428600Y-154617501I0J249999D01*
G01*
X91428600Y-153992499D01*
G75*
G02*
X91678599Y-153742500I249999J0D01*
G01*
G37*
G04 #@! TD.AperFunction*
G04 #@! TA.AperFunction,SMDPad,CuDef*
G36*
G01*
X91678599Y-150817500D02*
X92928601Y-150817500D01*
G75*
G02*
X93178600Y-151067499I0J-249999D01*
G01*
X93178600Y-151692501D01*
G75*
G02*
X92928601Y-151942500I-249999J0D01*
G01*
X91678599Y-151942500D01*
G75*
G02*
X91428600Y-151692501I0J249999D01*
G01*
X91428600Y-151067499D01*
G75*
G02*
X91678599Y-150817500I249999J0D01*
G01*
G37*
G04 #@! TD.AperFunction*
D14*
X113641000Y-148846000D03*
G04 #@! TA.AperFunction,ComponentPad*
G36*
G01*
X109891000Y-149606000D02*
X109891000Y-148086000D01*
G75*
G02*
X110141000Y-147836000I250000J0D01*
G01*
X111141000Y-147836000D01*
G75*
G02*
X111391000Y-148086000I0J-250000D01*
G01*
X111391000Y-149606000D01*
G75*
G02*
X111141000Y-149856000I-250000J0D01*
G01*
X110141000Y-149856000D01*
G75*
G02*
X109891000Y-149606000I0J250000D01*
G01*
G37*
G04 #@! TD.AperFunction*
X95772000Y-148717000D03*
X92772000Y-148717000D03*
X89772000Y-148717000D03*
X86772000Y-148717000D03*
X83772000Y-148717000D03*
G04 #@! TA.AperFunction,ComponentPad*
G36*
G01*
X80022000Y-149477000D02*
X80022000Y-147957000D01*
G75*
G02*
X80272000Y-147707000I250000J0D01*
G01*
X81272000Y-147707000D01*
G75*
G02*
X81522000Y-147957000I0J-250000D01*
G01*
X81522000Y-149477000D01*
G75*
G02*
X81272000Y-149727000I-250000J0D01*
G01*
X80272000Y-149727000D01*
G75*
G02*
X80022000Y-149477000I0J250000D01*
G01*
G37*
G04 #@! TD.AperFunction*
G04 #@! TA.AperFunction,SMDPad,CuDef*
G36*
G01*
X80812401Y-152517800D02*
X79512399Y-152517800D01*
G75*
G02*
X79262400Y-152267801I0J249999D01*
G01*
X79262400Y-151617799D01*
G75*
G02*
X79512399Y-151367800I249999J0D01*
G01*
X80812401Y-151367800D01*
G75*
G02*
X81062400Y-151617799I0J-249999D01*
G01*
X81062400Y-152267801D01*
G75*
G02*
X80812401Y-152517800I-249999J0D01*
G01*
G37*
G04 #@! TD.AperFunction*
G04 #@! TA.AperFunction,SMDPad,CuDef*
G36*
G01*
X80812401Y-155467800D02*
X79512399Y-155467800D01*
G75*
G02*
X79262400Y-155217801I0J249999D01*
G01*
X79262400Y-154567799D01*
G75*
G02*
X79512399Y-154317800I249999J0D01*
G01*
X80812401Y-154317800D01*
G75*
G02*
X81062400Y-154567799I0J-249999D01*
G01*
X81062400Y-155217801D01*
G75*
G02*
X80812401Y-155467800I-249999J0D01*
G01*
G37*
G04 #@! TD.AperFunction*
G04 #@! TA.AperFunction,SMDPad,CuDef*
G36*
G01*
X79512399Y-159191000D02*
X80812401Y-159191000D01*
G75*
G02*
X81062400Y-159440999I0J-249999D01*
G01*
X81062400Y-160091001D01*
G75*
G02*
X80812401Y-160341000I-249999J0D01*
G01*
X79512399Y-160341000D01*
G75*
G02*
X79262400Y-160091001I0J249999D01*
G01*
X79262400Y-159440999D01*
G75*
G02*
X79512399Y-159191000I249999J0D01*
G01*
G37*
G04 #@! TD.AperFunction*
G04 #@! TA.AperFunction,SMDPad,CuDef*
G36*
G01*
X79512399Y-156241000D02*
X80812401Y-156241000D01*
G75*
G02*
X81062400Y-156490999I0J-249999D01*
G01*
X81062400Y-157141001D01*
G75*
G02*
X80812401Y-157391000I-249999J0D01*
G01*
X79512399Y-157391000D01*
G75*
G02*
X79262400Y-157141001I0J249999D01*
G01*
X79262400Y-156490999D01*
G75*
G02*
X79512399Y-156241000I249999J0D01*
G01*
G37*
G04 #@! TD.AperFunction*
D15*
X115951000Y-173736000D03*
D16*
X110871000Y-173736000D03*
G04 #@! TA.AperFunction,SMDPad,CuDef*
G36*
G01*
X103819799Y-169215100D02*
X105069801Y-169215100D01*
G75*
G02*
X105319800Y-169465099I0J-249999D01*
G01*
X105319800Y-170090101D01*
G75*
G02*
X105069801Y-170340100I-249999J0D01*
G01*
X103819799Y-170340100D01*
G75*
G02*
X103569800Y-170090101I0J249999D01*
G01*
X103569800Y-169465099D01*
G75*
G02*
X103819799Y-169215100I249999J0D01*
G01*
G37*
G04 #@! TD.AperFunction*
G04 #@! TA.AperFunction,SMDPad,CuDef*
G36*
G01*
X103819799Y-166290100D02*
X105069801Y-166290100D01*
G75*
G02*
X105319800Y-166540099I0J-249999D01*
G01*
X105319800Y-167165101D01*
G75*
G02*
X105069801Y-167415100I-249999J0D01*
G01*
X103819799Y-167415100D01*
G75*
G02*
X103569800Y-167165101I0J249999D01*
G01*
X103569800Y-166540099D01*
G75*
G02*
X103819799Y-166290100I249999J0D01*
G01*
G37*
G04 #@! TD.AperFunction*
D17*
X65087500Y-155257500D03*
X67587500Y-157757500D03*
X65087500Y-160257500D03*
G04 #@! TA.AperFunction,SMDPad,CuDef*
G36*
G01*
X102285500Y-155813599D02*
X102285500Y-157063601D01*
G75*
G02*
X102035501Y-157313600I-249999J0D01*
G01*
X101410499Y-157313600D01*
G75*
G02*
X101160500Y-157063601I0J249999D01*
G01*
X101160500Y-155813599D01*
G75*
G02*
X101410499Y-155563600I249999J0D01*
G01*
X102035501Y-155563600D01*
G75*
G02*
X102285500Y-155813599I0J-249999D01*
G01*
G37*
G04 #@! TD.AperFunction*
G04 #@! TA.AperFunction,SMDPad,CuDef*
G36*
G01*
X105210500Y-155813599D02*
X105210500Y-157063601D01*
G75*
G02*
X104960501Y-157313600I-249999J0D01*
G01*
X104335499Y-157313600D01*
G75*
G02*
X104085500Y-157063601I0J249999D01*
G01*
X104085500Y-155813599D01*
G75*
G02*
X104335499Y-155563600I249999J0D01*
G01*
X104960501Y-155563600D01*
G75*
G02*
X105210500Y-155813599I0J-249999D01*
G01*
G37*
G04 #@! TD.AperFunction*
G04 #@! TA.AperFunction,SMDPad,CuDef*
G36*
G01*
X104060100Y-151907401D02*
X104060100Y-150657399D01*
G75*
G02*
X104310099Y-150407400I249999J0D01*
G01*
X104935101Y-150407400D01*
G75*
G02*
X105185100Y-150657399I0J-249999D01*
G01*
X105185100Y-151907401D01*
G75*
G02*
X104935101Y-152157400I-249999J0D01*
G01*
X104310099Y-152157400D01*
G75*
G02*
X104060100Y-151907401I0J249999D01*
G01*
G37*
G04 #@! TD.AperFunction*
G04 #@! TA.AperFunction,SMDPad,CuDef*
G36*
G01*
X101135100Y-151907401D02*
X101135100Y-150657399D01*
G75*
G02*
X101385099Y-150407400I249999J0D01*
G01*
X102010101Y-150407400D01*
G75*
G02*
X102260100Y-150657399I0J-249999D01*
G01*
X102260100Y-151907401D01*
G75*
G02*
X102010101Y-152157400I-249999J0D01*
G01*
X101385099Y-152157400D01*
G75*
G02*
X101135100Y-151907401I0J249999D01*
G01*
G37*
G04 #@! TD.AperFunction*
G04 #@! TA.AperFunction,SMDPad,CuDef*
G36*
G01*
X102238700Y-148142799D02*
X102238700Y-149392801D01*
G75*
G02*
X101988701Y-149642800I-249999J0D01*
G01*
X101363699Y-149642800D01*
G75*
G02*
X101113700Y-149392801I0J249999D01*
G01*
X101113700Y-148142799D01*
G75*
G02*
X101363699Y-147892800I249999J0D01*
G01*
X101988701Y-147892800D01*
G75*
G02*
X102238700Y-148142799I0J-249999D01*
G01*
G37*
G04 #@! TD.AperFunction*
G04 #@! TA.AperFunction,SMDPad,CuDef*
G36*
G01*
X105163700Y-148142799D02*
X105163700Y-149392801D01*
G75*
G02*
X104913701Y-149642800I-249999J0D01*
G01*
X104288699Y-149642800D01*
G75*
G02*
X104038700Y-149392801I0J249999D01*
G01*
X104038700Y-148142799D01*
G75*
G02*
X104288699Y-147892800I249999J0D01*
G01*
X104913701Y-147892800D01*
G75*
G02*
X105163700Y-148142799I0J-249999D01*
G01*
G37*
G04 #@! TD.AperFunction*
G04 #@! TA.AperFunction,SMDPad,CuDef*
G36*
G01*
X68754100Y-167579201D02*
X68754100Y-166329199D01*
G75*
G02*
X69004099Y-166079200I249999J0D01*
G01*
X69629101Y-166079200D01*
G75*
G02*
X69879100Y-166329199I0J-249999D01*
G01*
X69879100Y-167579201D01*
G75*
G02*
X69629101Y-167829200I-249999J0D01*
G01*
X69004099Y-167829200D01*
G75*
G02*
X68754100Y-167579201I0J249999D01*
G01*
G37*
G04 #@! TD.AperFunction*
G04 #@! TA.AperFunction,SMDPad,CuDef*
G36*
G01*
X65829100Y-167579201D02*
X65829100Y-166329199D01*
G75*
G02*
X66079099Y-166079200I249999J0D01*
G01*
X66704101Y-166079200D01*
G75*
G02*
X66954100Y-166329199I0J-249999D01*
G01*
X66954100Y-167579201D01*
G75*
G02*
X66704101Y-167829200I-249999J0D01*
G01*
X66079099Y-167829200D01*
G75*
G02*
X65829100Y-167579201I0J249999D01*
G01*
G37*
G04 #@! TD.AperFunction*
G04 #@! TA.AperFunction,SMDPad,CuDef*
G36*
G01*
X86903399Y-169392900D02*
X88153401Y-169392900D01*
G75*
G02*
X88403400Y-169642899I0J-249999D01*
G01*
X88403400Y-170267901D01*
G75*
G02*
X88153401Y-170517900I-249999J0D01*
G01*
X86903399Y-170517900D01*
G75*
G02*
X86653400Y-170267901I0J249999D01*
G01*
X86653400Y-169642899D01*
G75*
G02*
X86903399Y-169392900I249999J0D01*
G01*
G37*
G04 #@! TD.AperFunction*
G04 #@! TA.AperFunction,SMDPad,CuDef*
G36*
G01*
X86903399Y-166467900D02*
X88153401Y-166467900D01*
G75*
G02*
X88403400Y-166717899I0J-249999D01*
G01*
X88403400Y-167342901D01*
G75*
G02*
X88153401Y-167592900I-249999J0D01*
G01*
X86903399Y-167592900D01*
G75*
G02*
X86653400Y-167342901I0J249999D01*
G01*
X86653400Y-166717899D01*
G75*
G02*
X86903399Y-166467900I249999J0D01*
G01*
G37*
G04 #@! TD.AperFunction*
G04 #@! TA.AperFunction,SMDPad,CuDef*
G36*
G01*
X85448301Y-167576300D02*
X84198299Y-167576300D01*
G75*
G02*
X83948300Y-167326301I0J249999D01*
G01*
X83948300Y-166701299D01*
G75*
G02*
X84198299Y-166451300I249999J0D01*
G01*
X85448301Y-166451300D01*
G75*
G02*
X85698300Y-166701299I0J-249999D01*
G01*
X85698300Y-167326301D01*
G75*
G02*
X85448301Y-167576300I-249999J0D01*
G01*
G37*
G04 #@! TD.AperFunction*
G04 #@! TA.AperFunction,SMDPad,CuDef*
G36*
G01*
X85448301Y-170501300D02*
X84198299Y-170501300D01*
G75*
G02*
X83948300Y-170251301I0J249999D01*
G01*
X83948300Y-169626299D01*
G75*
G02*
X84198299Y-169376300I249999J0D01*
G01*
X85448301Y-169376300D01*
G75*
G02*
X85698300Y-169626299I0J-249999D01*
G01*
X85698300Y-170251301D01*
G75*
G02*
X85448301Y-170501300I-249999J0D01*
G01*
G37*
G04 #@! TD.AperFunction*
G04 #@! TA.AperFunction,SMDPad,CuDef*
G36*
G01*
X90414001Y-151946500D02*
X89163999Y-151946500D01*
G75*
G02*
X88914000Y-151696501I0J249999D01*
G01*
X88914000Y-151071499D01*
G75*
G02*
X89163999Y-150821500I249999J0D01*
G01*
X90414001Y-150821500D01*
G75*
G02*
X90664000Y-151071499I0J-249999D01*
G01*
X90664000Y-151696501D01*
G75*
G02*
X90414001Y-151946500I-249999J0D01*
G01*
G37*
G04 #@! TD.AperFunction*
G04 #@! TA.AperFunction,SMDPad,CuDef*
G36*
G01*
X90414001Y-154871500D02*
X89163999Y-154871500D01*
G75*
G02*
X88914000Y-154621501I0J249999D01*
G01*
X88914000Y-153996499D01*
G75*
G02*
X89163999Y-153746500I249999J0D01*
G01*
X90414001Y-153746500D01*
G75*
G02*
X90664000Y-153996499I0J-249999D01*
G01*
X90664000Y-154621501D01*
G75*
G02*
X90414001Y-154871500I-249999J0D01*
G01*
G37*
G04 #@! TD.AperFunction*
G04 #@! TA.AperFunction,SMDPad,CuDef*
G36*
G01*
X87874001Y-151946500D02*
X86623999Y-151946500D01*
G75*
G02*
X86374000Y-151696501I0J249999D01*
G01*
X86374000Y-151071499D01*
G75*
G02*
X86623999Y-150821500I249999J0D01*
G01*
X87874001Y-150821500D01*
G75*
G02*
X88124000Y-151071499I0J-249999D01*
G01*
X88124000Y-151696501D01*
G75*
G02*
X87874001Y-151946500I-249999J0D01*
G01*
G37*
G04 #@! TD.AperFunction*
G04 #@! TA.AperFunction,SMDPad,CuDef*
G36*
G01*
X87874001Y-154871500D02*
X86623999Y-154871500D01*
G75*
G02*
X86374000Y-154621501I0J249999D01*
G01*
X86374000Y-153996499D01*
G75*
G02*
X86623999Y-153746500I249999J0D01*
G01*
X87874001Y-153746500D01*
G75*
G02*
X88124000Y-153996499I0J-249999D01*
G01*
X88124000Y-154621501D01*
G75*
G02*
X87874001Y-154871500I-249999J0D01*
G01*
G37*
G04 #@! TD.AperFunction*
G04 #@! TA.AperFunction,SMDPad,CuDef*
G36*
G01*
X74863000Y-150205201D02*
X74863000Y-148905199D01*
G75*
G02*
X75112999Y-148655200I249999J0D01*
G01*
X75763001Y-148655200D01*
G75*
G02*
X76013000Y-148905199I0J-249999D01*
G01*
X76013000Y-150205201D01*
G75*
G02*
X75763001Y-150455200I-249999J0D01*
G01*
X75112999Y-150455200D01*
G75*
G02*
X74863000Y-150205201I0J249999D01*
G01*
G37*
G04 #@! TD.AperFunction*
G04 #@! TA.AperFunction,SMDPad,CuDef*
G36*
G01*
X71913000Y-150205201D02*
X71913000Y-148905199D01*
G75*
G02*
X72162999Y-148655200I249999J0D01*
G01*
X72813001Y-148655200D01*
G75*
G02*
X73063000Y-148905199I0J-249999D01*
G01*
X73063000Y-150205201D01*
G75*
G02*
X72813001Y-150455200I-249999J0D01*
G01*
X72162999Y-150455200D01*
G75*
G02*
X71913000Y-150205201I0J249999D01*
G01*
G37*
G04 #@! TD.AperFunction*
G04 #@! TA.AperFunction,SMDPad,CuDef*
G36*
G01*
X104073000Y-154497801D02*
X104073000Y-153197799D01*
G75*
G02*
X104322999Y-152947800I249999J0D01*
G01*
X104973001Y-152947800D01*
G75*
G02*
X105223000Y-153197799I0J-249999D01*
G01*
X105223000Y-154497801D01*
G75*
G02*
X104973001Y-154747800I-249999J0D01*
G01*
X104322999Y-154747800D01*
G75*
G02*
X104073000Y-154497801I0J249999D01*
G01*
G37*
G04 #@! TD.AperFunction*
G04 #@! TA.AperFunction,SMDPad,CuDef*
G36*
G01*
X101123000Y-154497801D02*
X101123000Y-153197799D01*
G75*
G02*
X101372999Y-152947800I249999J0D01*
G01*
X102023001Y-152947800D01*
G75*
G02*
X102273000Y-153197799I0J-249999D01*
G01*
X102273000Y-154497801D01*
G75*
G02*
X102023001Y-154747800I-249999J0D01*
G01*
X101372999Y-154747800D01*
G75*
G02*
X101123000Y-154497801I0J249999D01*
G01*
G37*
G04 #@! TD.AperFunction*
G04 #@! TA.AperFunction,SMDPad,CuDef*
G36*
G01*
X66992400Y-163840399D02*
X66992400Y-165140401D01*
G75*
G02*
X66742401Y-165390400I-249999J0D01*
G01*
X66092399Y-165390400D01*
G75*
G02*
X65842400Y-165140401I0J249999D01*
G01*
X65842400Y-163840399D01*
G75*
G02*
X66092399Y-163590400I249999J0D01*
G01*
X66742401Y-163590400D01*
G75*
G02*
X66992400Y-163840399I0J-249999D01*
G01*
G37*
G04 #@! TD.AperFunction*
G04 #@! TA.AperFunction,SMDPad,CuDef*
G36*
G01*
X69942400Y-163840399D02*
X69942400Y-165140401D01*
G75*
G02*
X69692401Y-165390400I-249999J0D01*
G01*
X69042399Y-165390400D01*
G75*
G02*
X68792400Y-165140401I0J249999D01*
G01*
X68792400Y-163840399D01*
G75*
G02*
X69042399Y-163590400I249999J0D01*
G01*
X69692401Y-163590400D01*
G75*
G02*
X69942400Y-163840399I0J-249999D01*
G01*
G37*
G04 #@! TD.AperFunction*
G04 #@! TA.AperFunction,SMDPad,CuDef*
G36*
G01*
X90180399Y-169401800D02*
X91480401Y-169401800D01*
G75*
G02*
X91730400Y-169651799I0J-249999D01*
G01*
X91730400Y-170301801D01*
G75*
G02*
X91480401Y-170551800I-249999J0D01*
G01*
X90180399Y-170551800D01*
G75*
G02*
X89930400Y-170301801I0J249999D01*
G01*
X89930400Y-169651799D01*
G75*
G02*
X90180399Y-169401800I249999J0D01*
G01*
G37*
G04 #@! TD.AperFunction*
G04 #@! TA.AperFunction,SMDPad,CuDef*
G36*
G01*
X90180399Y-166451800D02*
X91480401Y-166451800D01*
G75*
G02*
X91730400Y-166701799I0J-249999D01*
G01*
X91730400Y-167351801D01*
G75*
G02*
X91480401Y-167601800I-249999J0D01*
G01*
X90180399Y-167601800D01*
G75*
G02*
X89930400Y-167351801I0J249999D01*
G01*
X89930400Y-166701799D01*
G75*
G02*
X90180399Y-166451800I249999J0D01*
G01*
G37*
G04 #@! TD.AperFunction*
G04 #@! TA.AperFunction,SMDPad,CuDef*
G36*
G01*
X98630600Y-155779600D02*
X98930600Y-155779600D01*
G75*
G02*
X99080600Y-155929600I0J-150000D01*
G01*
X99080600Y-157579600D01*
G75*
G02*
X98930600Y-157729600I-150000J0D01*
G01*
X98630600Y-157729600D01*
G75*
G02*
X98480600Y-157579600I0J150000D01*
G01*
X98480600Y-155929600D01*
G75*
G02*
X98630600Y-155779600I150000J0D01*
G01*
G37*
G04 #@! TD.AperFunction*
G04 #@! TA.AperFunction,SMDPad,CuDef*
G36*
G01*
X97360600Y-155779600D02*
X97660600Y-155779600D01*
G75*
G02*
X97810600Y-155929600I0J-150000D01*
G01*
X97810600Y-157579600D01*
G75*
G02*
X97660600Y-157729600I-150000J0D01*
G01*
X97360600Y-157729600D01*
G75*
G02*
X97210600Y-157579600I0J150000D01*
G01*
X97210600Y-155929600D01*
G75*
G02*
X97360600Y-155779600I150000J0D01*
G01*
G37*
G04 #@! TD.AperFunction*
G04 #@! TA.AperFunction,SMDPad,CuDef*
G36*
G01*
X96090600Y-155779600D02*
X96390600Y-155779600D01*
G75*
G02*
X96540600Y-155929600I0J-150000D01*
G01*
X96540600Y-157579600D01*
G75*
G02*
X96390600Y-157729600I-150000J0D01*
G01*
X96090600Y-157729600D01*
G75*
G02*
X95940600Y-157579600I0J150000D01*
G01*
X95940600Y-155929600D01*
G75*
G02*
X96090600Y-155779600I150000J0D01*
G01*
G37*
G04 #@! TD.AperFunction*
G04 #@! TA.AperFunction,SMDPad,CuDef*
G36*
G01*
X94820600Y-155779600D02*
X95120600Y-155779600D01*
G75*
G02*
X95270600Y-155929600I0J-150000D01*
G01*
X95270600Y-157579600D01*
G75*
G02*
X95120600Y-157729600I-150000J0D01*
G01*
X94820600Y-157729600D01*
G75*
G02*
X94670600Y-157579600I0J150000D01*
G01*
X94670600Y-155929600D01*
G75*
G02*
X94820600Y-155779600I150000J0D01*
G01*
G37*
G04 #@! TD.AperFunction*
G04 #@! TA.AperFunction,SMDPad,CuDef*
G36*
G01*
X94820600Y-150829600D02*
X95120600Y-150829600D01*
G75*
G02*
X95270600Y-150979600I0J-150000D01*
G01*
X95270600Y-152629600D01*
G75*
G02*
X95120600Y-152779600I-150000J0D01*
G01*
X94820600Y-152779600D01*
G75*
G02*
X94670600Y-152629600I0J150000D01*
G01*
X94670600Y-150979600D01*
G75*
G02*
X94820600Y-150829600I150000J0D01*
G01*
G37*
G04 #@! TD.AperFunction*
G04 #@! TA.AperFunction,SMDPad,CuDef*
G36*
G01*
X96090600Y-150829600D02*
X96390600Y-150829600D01*
G75*
G02*
X96540600Y-150979600I0J-150000D01*
G01*
X96540600Y-152629600D01*
G75*
G02*
X96390600Y-152779600I-150000J0D01*
G01*
X96090600Y-152779600D01*
G75*
G02*
X95940600Y-152629600I0J150000D01*
G01*
X95940600Y-150979600D01*
G75*
G02*
X96090600Y-150829600I150000J0D01*
G01*
G37*
G04 #@! TD.AperFunction*
G04 #@! TA.AperFunction,SMDPad,CuDef*
G36*
G01*
X97360600Y-150829600D02*
X97660600Y-150829600D01*
G75*
G02*
X97810600Y-150979600I0J-150000D01*
G01*
X97810600Y-152629600D01*
G75*
G02*
X97660600Y-152779600I-150000J0D01*
G01*
X97360600Y-152779600D01*
G75*
G02*
X97210600Y-152629600I0J150000D01*
G01*
X97210600Y-150979600D01*
G75*
G02*
X97360600Y-150829600I150000J0D01*
G01*
G37*
G04 #@! TD.AperFunction*
G04 #@! TA.AperFunction,SMDPad,CuDef*
G36*
G01*
X98630600Y-150829600D02*
X98930600Y-150829600D01*
G75*
G02*
X99080600Y-150979600I0J-150000D01*
G01*
X99080600Y-152629600D01*
G75*
G02*
X98930600Y-152779600I-150000J0D01*
G01*
X98630600Y-152779600D01*
G75*
G02*
X98480600Y-152629600I0J150000D01*
G01*
X98480600Y-150979600D01*
G75*
G02*
X98630600Y-150829600I150000J0D01*
G01*
G37*
G04 #@! TD.AperFunction*
G04 #@! TA.AperFunction,SMDPad,CuDef*
G36*
G01*
X71778000Y-165567000D02*
X71478000Y-165567000D01*
G75*
G02*
X71328000Y-165417000I0J150000D01*
G01*
X71328000Y-163767000D01*
G75*
G02*
X71478000Y-163617000I150000J0D01*
G01*
X71778000Y-163617000D01*
G75*
G02*
X71928000Y-163767000I0J-150000D01*
G01*
X71928000Y-165417000D01*
G75*
G02*
X71778000Y-165567000I-150000J0D01*
G01*
G37*
G04 #@! TD.AperFunction*
G04 #@! TA.AperFunction,SMDPad,CuDef*
G36*
G01*
X73048000Y-165567000D02*
X72748000Y-165567000D01*
G75*
G02*
X72598000Y-165417000I0J150000D01*
G01*
X72598000Y-163767000D01*
G75*
G02*
X72748000Y-163617000I150000J0D01*
G01*
X73048000Y-163617000D01*
G75*
G02*
X73198000Y-163767000I0J-150000D01*
G01*
X73198000Y-165417000D01*
G75*
G02*
X73048000Y-165567000I-150000J0D01*
G01*
G37*
G04 #@! TD.AperFunction*
G04 #@! TA.AperFunction,SMDPad,CuDef*
G36*
G01*
X74318000Y-165567000D02*
X74018000Y-165567000D01*
G75*
G02*
X73868000Y-165417000I0J150000D01*
G01*
X73868000Y-163767000D01*
G75*
G02*
X74018000Y-163617000I150000J0D01*
G01*
X74318000Y-163617000D01*
G75*
G02*
X74468000Y-163767000I0J-150000D01*
G01*
X74468000Y-165417000D01*
G75*
G02*
X74318000Y-165567000I-150000J0D01*
G01*
G37*
G04 #@! TD.AperFunction*
G04 #@! TA.AperFunction,SMDPad,CuDef*
G36*
G01*
X75588000Y-165567000D02*
X75288000Y-165567000D01*
G75*
G02*
X75138000Y-165417000I0J150000D01*
G01*
X75138000Y-163767000D01*
G75*
G02*
X75288000Y-163617000I150000J0D01*
G01*
X75588000Y-163617000D01*
G75*
G02*
X75738000Y-163767000I0J-150000D01*
G01*
X75738000Y-165417000D01*
G75*
G02*
X75588000Y-165567000I-150000J0D01*
G01*
G37*
G04 #@! TD.AperFunction*
G04 #@! TA.AperFunction,SMDPad,CuDef*
G36*
G01*
X75588000Y-170517000D02*
X75288000Y-170517000D01*
G75*
G02*
X75138000Y-170367000I0J150000D01*
G01*
X75138000Y-168717000D01*
G75*
G02*
X75288000Y-168567000I150000J0D01*
G01*
X75588000Y-168567000D01*
G75*
G02*
X75738000Y-168717000I0J-150000D01*
G01*
X75738000Y-170367000D01*
G75*
G02*
X75588000Y-170517000I-150000J0D01*
G01*
G37*
G04 #@! TD.AperFunction*
G04 #@! TA.AperFunction,SMDPad,CuDef*
G36*
G01*
X74318000Y-170517000D02*
X74018000Y-170517000D01*
G75*
G02*
X73868000Y-170367000I0J150000D01*
G01*
X73868000Y-168717000D01*
G75*
G02*
X74018000Y-168567000I150000J0D01*
G01*
X74318000Y-168567000D01*
G75*
G02*
X74468000Y-168717000I0J-150000D01*
G01*
X74468000Y-170367000D01*
G75*
G02*
X74318000Y-170517000I-150000J0D01*
G01*
G37*
G04 #@! TD.AperFunction*
G04 #@! TA.AperFunction,SMDPad,CuDef*
G36*
G01*
X73048000Y-170517000D02*
X72748000Y-170517000D01*
G75*
G02*
X72598000Y-170367000I0J150000D01*
G01*
X72598000Y-168717000D01*
G75*
G02*
X72748000Y-168567000I150000J0D01*
G01*
X73048000Y-168567000D01*
G75*
G02*
X73198000Y-168717000I0J-150000D01*
G01*
X73198000Y-170367000D01*
G75*
G02*
X73048000Y-170517000I-150000J0D01*
G01*
G37*
G04 #@! TD.AperFunction*
G04 #@! TA.AperFunction,SMDPad,CuDef*
G36*
G01*
X71778000Y-170517000D02*
X71478000Y-170517000D01*
G75*
G02*
X71328000Y-170367000I0J150000D01*
G01*
X71328000Y-168717000D01*
G75*
G02*
X71478000Y-168567000I150000J0D01*
G01*
X71778000Y-168567000D01*
G75*
G02*
X71928000Y-168717000I0J-150000D01*
G01*
X71928000Y-170367000D01*
G75*
G02*
X71778000Y-170517000I-150000J0D01*
G01*
G37*
G04 #@! TD.AperFunction*
G04 #@! TA.AperFunction,SMDPad,CuDef*
G36*
G01*
X93672800Y-166546400D02*
X93372800Y-166546400D01*
G75*
G02*
X93222800Y-166396400I0J150000D01*
G01*
X93222800Y-164746400D01*
G75*
G02*
X93372800Y-164596400I150000J0D01*
G01*
X93672800Y-164596400D01*
G75*
G02*
X93822800Y-164746400I0J-150000D01*
G01*
X93822800Y-166396400D01*
G75*
G02*
X93672800Y-166546400I-150000J0D01*
G01*
G37*
G04 #@! TD.AperFunction*
G04 #@! TA.AperFunction,SMDPad,CuDef*
G36*
G01*
X94942800Y-166546400D02*
X94642800Y-166546400D01*
G75*
G02*
X94492800Y-166396400I0J150000D01*
G01*
X94492800Y-164746400D01*
G75*
G02*
X94642800Y-164596400I150000J0D01*
G01*
X94942800Y-164596400D01*
G75*
G02*
X95092800Y-164746400I0J-150000D01*
G01*
X95092800Y-166396400D01*
G75*
G02*
X94942800Y-166546400I-150000J0D01*
G01*
G37*
G04 #@! TD.AperFunction*
G04 #@! TA.AperFunction,SMDPad,CuDef*
G36*
G01*
X96212800Y-166546400D02*
X95912800Y-166546400D01*
G75*
G02*
X95762800Y-166396400I0J150000D01*
G01*
X95762800Y-164746400D01*
G75*
G02*
X95912800Y-164596400I150000J0D01*
G01*
X96212800Y-164596400D01*
G75*
G02*
X96362800Y-164746400I0J-150000D01*
G01*
X96362800Y-166396400D01*
G75*
G02*
X96212800Y-166546400I-150000J0D01*
G01*
G37*
G04 #@! TD.AperFunction*
G04 #@! TA.AperFunction,SMDPad,CuDef*
G36*
G01*
X97482800Y-166546400D02*
X97182800Y-166546400D01*
G75*
G02*
X97032800Y-166396400I0J150000D01*
G01*
X97032800Y-164746400D01*
G75*
G02*
X97182800Y-164596400I150000J0D01*
G01*
X97482800Y-164596400D01*
G75*
G02*
X97632800Y-164746400I0J-150000D01*
G01*
X97632800Y-166396400D01*
G75*
G02*
X97482800Y-166546400I-150000J0D01*
G01*
G37*
G04 #@! TD.AperFunction*
G04 #@! TA.AperFunction,SMDPad,CuDef*
G36*
G01*
X97482800Y-171496400D02*
X97182800Y-171496400D01*
G75*
G02*
X97032800Y-171346400I0J150000D01*
G01*
X97032800Y-169696400D01*
G75*
G02*
X97182800Y-169546400I150000J0D01*
G01*
X97482800Y-169546400D01*
G75*
G02*
X97632800Y-169696400I0J-150000D01*
G01*
X97632800Y-171346400D01*
G75*
G02*
X97482800Y-171496400I-150000J0D01*
G01*
G37*
G04 #@! TD.AperFunction*
G04 #@! TA.AperFunction,SMDPad,CuDef*
G36*
G01*
X96212800Y-171496400D02*
X95912800Y-171496400D01*
G75*
G02*
X95762800Y-171346400I0J150000D01*
G01*
X95762800Y-169696400D01*
G75*
G02*
X95912800Y-169546400I150000J0D01*
G01*
X96212800Y-169546400D01*
G75*
G02*
X96362800Y-169696400I0J-150000D01*
G01*
X96362800Y-171346400D01*
G75*
G02*
X96212800Y-171496400I-150000J0D01*
G01*
G37*
G04 #@! TD.AperFunction*
G04 #@! TA.AperFunction,SMDPad,CuDef*
G36*
G01*
X94942800Y-171496400D02*
X94642800Y-171496400D01*
G75*
G02*
X94492800Y-171346400I0J150000D01*
G01*
X94492800Y-169696400D01*
G75*
G02*
X94642800Y-169546400I150000J0D01*
G01*
X94942800Y-169546400D01*
G75*
G02*
X95092800Y-169696400I0J-150000D01*
G01*
X95092800Y-171346400D01*
G75*
G02*
X94942800Y-171496400I-150000J0D01*
G01*
G37*
G04 #@! TD.AperFunction*
G04 #@! TA.AperFunction,SMDPad,CuDef*
G36*
G01*
X93672800Y-171496400D02*
X93372800Y-171496400D01*
G75*
G02*
X93222800Y-171346400I0J150000D01*
G01*
X93222800Y-169696400D01*
G75*
G02*
X93372800Y-169546400I150000J0D01*
G01*
X93672800Y-169546400D01*
G75*
G02*
X93822800Y-169696400I0J-150000D01*
G01*
X93822800Y-171346400D01*
G75*
G02*
X93672800Y-171496400I-150000J0D01*
G01*
G37*
G04 #@! TD.AperFunction*
X84328000Y-176149000D03*
X86828000Y-173649000D03*
X89328000Y-176149000D03*
G04 #@! TA.AperFunction,SMDPad,CuDef*
G36*
G01*
X101432199Y-169211100D02*
X102682201Y-169211100D01*
G75*
G02*
X102932200Y-169461099I0J-249999D01*
G01*
X102932200Y-170086101D01*
G75*
G02*
X102682201Y-170336100I-249999J0D01*
G01*
X101432199Y-170336100D01*
G75*
G02*
X101182200Y-170086101I0J249999D01*
G01*
X101182200Y-169461099D01*
G75*
G02*
X101432199Y-169211100I249999J0D01*
G01*
G37*
G04 #@! TD.AperFunction*
G04 #@! TA.AperFunction,SMDPad,CuDef*
G36*
G01*
X101432199Y-166286100D02*
X102682201Y-166286100D01*
G75*
G02*
X102932200Y-166536099I0J-249999D01*
G01*
X102932200Y-167161101D01*
G75*
G02*
X102682201Y-167411100I-249999J0D01*
G01*
X101432199Y-167411100D01*
G75*
G02*
X101182200Y-167161101I0J249999D01*
G01*
X101182200Y-166536099D01*
G75*
G02*
X101432199Y-166286100I249999J0D01*
G01*
G37*
G04 #@! TD.AperFunction*
G04 #@! TA.AperFunction,SMDPad,CuDef*
G36*
G01*
X98968399Y-169215100D02*
X100218401Y-169215100D01*
G75*
G02*
X100468400Y-169465099I0J-249999D01*
G01*
X100468400Y-170090101D01*
G75*
G02*
X100218401Y-170340100I-249999J0D01*
G01*
X98968399Y-170340100D01*
G75*
G02*
X98718400Y-170090101I0J249999D01*
G01*
X98718400Y-169465099D01*
G75*
G02*
X98968399Y-169215100I249999J0D01*
G01*
G37*
G04 #@! TD.AperFunction*
G04 #@! TA.AperFunction,SMDPad,CuDef*
G36*
G01*
X98968399Y-166290100D02*
X100218401Y-166290100D01*
G75*
G02*
X100468400Y-166540099I0J-249999D01*
G01*
X100468400Y-167165101D01*
G75*
G02*
X100218401Y-167415100I-249999J0D01*
G01*
X98968399Y-167415100D01*
G75*
G02*
X98718400Y-167165101I0J249999D01*
G01*
X98718400Y-166540099D01*
G75*
G02*
X98968399Y-166290100I249999J0D01*
G01*
G37*
G04 #@! TD.AperFunction*
D15*
X124640000Y-159466000D03*
D18*
X122690000Y-165416000D03*
D15*
X110440000Y-165466000D03*
X110490000Y-153416000D03*
D18*
X122690000Y-153416000D03*
D19*
X65341500Y-149669500D03*
X69641500Y-149669500D03*
D20*
X74168000Y-141732000D03*
X74168000Y-146032000D03*
X103124000Y-141503400D03*
X103124000Y-145803400D03*
D19*
X98229200Y-174574200D03*
X93929200Y-174574200D03*
D17*
X73700000Y-176109000D03*
X76200000Y-173609000D03*
X78700000Y-176109000D03*
G04 #@! TA.AperFunction,SMDPad,CuDef*
G36*
G01*
X82128199Y-154326700D02*
X83378201Y-154326700D01*
G75*
G02*
X83628200Y-154576699I0J-249999D01*
G01*
X83628200Y-155201701D01*
G75*
G02*
X83378201Y-155451700I-249999J0D01*
G01*
X82128199Y-155451700D01*
G75*
G02*
X81878200Y-155201701I0J249999D01*
G01*
X81878200Y-154576699D01*
G75*
G02*
X82128199Y-154326700I249999J0D01*
G01*
G37*
G04 #@! TD.AperFunction*
G04 #@! TA.AperFunction,SMDPad,CuDef*
G36*
G01*
X82128199Y-151401700D02*
X83378201Y-151401700D01*
G75*
G02*
X83628200Y-151651699I0J-249999D01*
G01*
X83628200Y-152276701D01*
G75*
G02*
X83378201Y-152526700I-249999J0D01*
G01*
X82128199Y-152526700D01*
G75*
G02*
X81878200Y-152276701I0J249999D01*
G01*
X81878200Y-151651699D01*
G75*
G02*
X82128199Y-151401700I249999J0D01*
G01*
G37*
G04 #@! TD.AperFunction*
D20*
X78994000Y-169146000D03*
X78994000Y-164846000D03*
D21*
X69545200Y-159207200D03*
X79400400Y-146456400D03*
X89535000Y-160782000D03*
X88214200Y-163550600D03*
X88925400Y-172466000D03*
X90805000Y-171246800D03*
X97307400Y-171983400D03*
X99568000Y-171856400D03*
X108458000Y-167208200D03*
X115163600Y-163423600D03*
X76784200Y-165836600D03*
X87655400Y-158318200D03*
X84150200Y-159131000D03*
X81584800Y-166624000D03*
X71247000Y-155397200D03*
X109347000Y-143129000D03*
X121539000Y-150241000D03*
X100101400Y-142621000D03*
X106705400Y-141655800D03*
X107365800Y-145338800D03*
X107035600Y-155879800D03*
X100939600Y-161417000D03*
X93211572Y-158477028D03*
X82245200Y-156921200D03*
X103936800Y-174625000D03*
X105765600Y-171043600D03*
X92278200Y-171145200D03*
X86283800Y-165354000D03*
X108610400Y-150850600D03*
X91567000Y-155930600D03*
X99847400Y-162382200D03*
X88417400Y-156514800D03*
X89611200Y-157708600D03*
X92557600Y-161798000D03*
X94843600Y-161975800D03*
X73431400Y-150622000D03*
X118719600Y-147269200D03*
X118719600Y-151155400D03*
X70078600Y-169240200D03*
X92024200Y-164160200D03*
X98323400Y-158572200D03*
X101879400Y-158470600D03*
X95402400Y-141782800D03*
X91998800Y-158851600D03*
X90652600Y-163626800D03*
X90805000Y-160578800D03*
X106045000Y-177175000D03*
X84175600Y-162814000D03*
X84861400Y-152196800D03*
X70891400Y-141173200D03*
D22*
X89535000Y-160782000D02*
X89535000Y-162255200D01*
X89509600Y-162255200D02*
X88214200Y-163550600D01*
X89535000Y-162255200D02*
X89509600Y-162255200D01*
X98755200Y-174048200D02*
X98229200Y-174574200D01*
X97307400Y-170546800D02*
X97332800Y-170521400D01*
X97307400Y-171983400D02*
X97307400Y-170546800D01*
X99568000Y-173235400D02*
X98229200Y-174574200D01*
X99568000Y-171856400D02*
X99568000Y-173235400D01*
X75438000Y-152145600D02*
X75132200Y-152451400D01*
X75438000Y-149555200D02*
X75438000Y-152145600D01*
X94439544Y-159705000D02*
X93211572Y-158477028D01*
X97165400Y-159705000D02*
X94439544Y-159705000D01*
X66391600Y-166954200D02*
X67284600Y-166954200D01*
X67284600Y-166954200D02*
X67716400Y-166522400D01*
X67716400Y-166522400D02*
X67716400Y-165354000D01*
X68580000Y-164490400D02*
X69367400Y-164490400D01*
X67716400Y-165354000D02*
X68580000Y-164490400D01*
X69469000Y-164592000D02*
X69367400Y-164490400D01*
X71628000Y-164592000D02*
X69469000Y-164592000D01*
X84328000Y-170434100D02*
X84823300Y-169938800D01*
X84328000Y-176149000D02*
X84328000Y-170434100D01*
X98780600Y-156754600D02*
X98780600Y-155422600D01*
X100355400Y-153847800D02*
X101698000Y-153847800D01*
X98780600Y-155422600D02*
X100355400Y-153847800D01*
X101698000Y-153847800D02*
X102514400Y-153847800D01*
X102514400Y-153847800D02*
X103174800Y-154508200D01*
X103174800Y-154508200D02*
X103174800Y-155422600D01*
X104190800Y-156438600D02*
X104648000Y-156438600D01*
X103174800Y-155422600D02*
X104190800Y-156438600D01*
X104601200Y-148767800D02*
X103682800Y-148767800D01*
X103682800Y-148767800D02*
X103403400Y-149047200D01*
X103403400Y-152958800D02*
X102514400Y-153847800D01*
X103403400Y-149047200D02*
X103403400Y-152958800D01*
X98856800Y-162890200D02*
X98465400Y-162498800D01*
X99517200Y-162890200D02*
X98856800Y-162890200D01*
X99822000Y-162585400D02*
X99517200Y-162890200D01*
X99822000Y-158800800D02*
X99822000Y-162585400D01*
X98780600Y-157759400D02*
X99809300Y-158788100D01*
X98465400Y-162498800D02*
X98465400Y-161605000D01*
X98780600Y-156754600D02*
X98780600Y-157759400D01*
X66391600Y-166954200D02*
X67056000Y-166954200D01*
X69367400Y-164490400D02*
X69367400Y-162052000D01*
X69367400Y-162052000D02*
X70764400Y-160655000D01*
X70764400Y-160655000D02*
X70764400Y-156565600D01*
X70764400Y-156565600D02*
X68478400Y-154279600D01*
X66065400Y-154279600D02*
X65087500Y-155257500D01*
X68478400Y-154279600D02*
X66065400Y-154279600D01*
X82753200Y-156413200D02*
X82245200Y-156921200D01*
X82753200Y-154889200D02*
X82753200Y-156413200D01*
X92303600Y-154305000D02*
X92303600Y-153466800D01*
X92303600Y-153466800D02*
X91694000Y-152857200D01*
X91694000Y-152857200D02*
X86182200Y-152857200D01*
X84150200Y-154889200D02*
X82753200Y-154889200D01*
X86182200Y-152857200D02*
X84150200Y-154889200D01*
X102714800Y-175847000D02*
X103936800Y-174625000D01*
X101854000Y-175847000D02*
X102714800Y-175847000D01*
X104499600Y-169777600D02*
X105765600Y-171043600D01*
X104444800Y-169777600D02*
X104499600Y-169777600D01*
X93522800Y-165571400D02*
X92456000Y-166638200D01*
X91219000Y-166638200D02*
X90830400Y-167026800D01*
X92456000Y-166638200D02*
X91219000Y-166638200D01*
X92278200Y-168474600D02*
X92278200Y-171145200D01*
X90830400Y-167026800D02*
X92278200Y-168474600D01*
X90830400Y-167026800D02*
X89157600Y-165354000D01*
X85191600Y-165354000D02*
X84836000Y-165709600D01*
X84836000Y-165709600D02*
X83769200Y-165709600D01*
X83769200Y-165709600D02*
X82931000Y-166547800D01*
X82931000Y-166547800D02*
X82931000Y-169341800D01*
X83528000Y-169938800D02*
X84823300Y-169938800D01*
X82931000Y-169341800D02*
X83528000Y-169938800D01*
X86283800Y-165354000D02*
X85191600Y-165354000D01*
X89157600Y-165354000D02*
X86283800Y-165354000D01*
X106527600Y-148767800D02*
X108610400Y-150850600D01*
X104601200Y-148767800D02*
X106527600Y-148767800D01*
X92303600Y-155194000D02*
X91567000Y-155930600D01*
X92303600Y-154305000D02*
X92303600Y-155194000D01*
X96062800Y-170521400D02*
X96062800Y-165571400D01*
X96062800Y-172440600D02*
X93929200Y-174574200D01*
X96062800Y-170521400D02*
X96062800Y-172440600D01*
D23*
X87249000Y-155346400D02*
X88417400Y-156514800D01*
X87249000Y-154309000D02*
X87249000Y-155346400D01*
X92557600Y-160655000D02*
X92557600Y-161798000D01*
X89611200Y-157708600D02*
X92557600Y-160655000D01*
X96062800Y-163195000D02*
X96062800Y-165571400D01*
X94843600Y-161975800D02*
X96062800Y-163195000D01*
D22*
X72488000Y-149555200D02*
X72488000Y-150186600D01*
X72852200Y-150550800D02*
X72852200Y-152451400D01*
X72488000Y-150186600D02*
X72852200Y-150550800D01*
X72852200Y-151201200D02*
X73431400Y-150622000D01*
X72852200Y-152451400D02*
X72852200Y-151201200D01*
X118719600Y-147269200D02*
X118719600Y-151155400D01*
X86772000Y-148717000D02*
X86772000Y-150221200D01*
X87249000Y-150698200D02*
X87249000Y-151384000D01*
X86772000Y-150221200D02*
X87249000Y-150698200D01*
X92772000Y-148717000D02*
X92837000Y-148717000D01*
X95750600Y-145803400D02*
X103124000Y-145803400D01*
X92837000Y-148717000D02*
X95750600Y-145803400D01*
X96240600Y-151804600D02*
X96240600Y-156754600D01*
X92772000Y-150911600D02*
X92303600Y-151380000D01*
X92772000Y-148717000D02*
X92772000Y-150911600D01*
X96240600Y-151804600D02*
X96240600Y-153060400D01*
X96240600Y-153060400D02*
X95605600Y-153695400D01*
X95605600Y-153695400D02*
X94259400Y-153695400D01*
X92303600Y-151739600D02*
X92303600Y-151380000D01*
X94259400Y-153695400D02*
X92303600Y-151739600D01*
X87511800Y-167013800D02*
X87528400Y-167030400D01*
X84823300Y-167013800D02*
X87511800Y-167013800D01*
X87833200Y-167030400D02*
X87528400Y-167030400D01*
X89230200Y-168427400D02*
X87833200Y-167030400D01*
X89230200Y-171145200D02*
X89230200Y-168427400D01*
X90271600Y-172186600D02*
X89230200Y-171145200D01*
X94462600Y-172186600D02*
X90271600Y-172186600D01*
X94792800Y-171856400D02*
X94462600Y-172186600D01*
X94792800Y-170521400D02*
X94792800Y-171856400D01*
X71628000Y-168300400D02*
X71628000Y-169542000D01*
X72898000Y-167030400D02*
X71628000Y-168300400D01*
X71510800Y-166954200D02*
X71536200Y-166979600D01*
X69316600Y-166954200D02*
X71510800Y-166954200D01*
X71678800Y-166979600D02*
X72898000Y-165760400D01*
X71536200Y-166979600D02*
X71678800Y-166979600D01*
X72898000Y-165760400D02*
X72898000Y-167030400D01*
X72898000Y-164592000D02*
X72898000Y-165760400D01*
X93522800Y-170521400D02*
X93522800Y-168910000D01*
X94792800Y-167640000D02*
X94792800Y-165571400D01*
X93522800Y-168910000D02*
X94792800Y-167640000D01*
X93726000Y-162585400D02*
X94792800Y-163652200D01*
X93726000Y-161340800D02*
X93726000Y-162585400D01*
X98094800Y-160655000D02*
X94411800Y-160655000D01*
X94411800Y-160655000D02*
X93726000Y-161340800D01*
X98415401Y-160334399D02*
X98094800Y-160655000D01*
X94792800Y-163652200D02*
X94792800Y-165571400D01*
X98415401Y-159978799D02*
X98415401Y-160334399D01*
X98465400Y-159928800D02*
X98415401Y-159978799D01*
X98465400Y-159705000D02*
X98465400Y-159928800D01*
X70380400Y-169542000D02*
X70078600Y-169240200D01*
X71628000Y-169542000D02*
X70380400Y-169542000D01*
X93599000Y-162585400D02*
X93726000Y-162585400D01*
X92024200Y-164160200D02*
X93599000Y-162585400D01*
X101697600Y-148789200D02*
X101676200Y-148767800D01*
X101697600Y-151282400D02*
X101697600Y-148789200D01*
X97510600Y-151804600D02*
X97510600Y-150622000D01*
X97510600Y-150622000D02*
X98196400Y-149936200D01*
X100507800Y-149936200D02*
X101676200Y-148767800D01*
X98196400Y-149936200D02*
X100507800Y-149936200D01*
X97510600Y-154889200D02*
X97510600Y-156754600D01*
X98780600Y-153619200D02*
X97510600Y-154889200D01*
X101723000Y-158322200D02*
X101676200Y-158369000D01*
X98780600Y-153009600D02*
X98780600Y-153111200D01*
X98780600Y-153111200D02*
X98780600Y-153619200D01*
X98780600Y-151804600D02*
X98780600Y-153111200D01*
X97815400Y-159705000D02*
X97815400Y-158927800D01*
X97510600Y-158623000D02*
X97510600Y-156754600D01*
X97815400Y-158927800D02*
X97510600Y-158623000D01*
X97967800Y-158927800D02*
X98323400Y-158572200D01*
X97815400Y-158927800D02*
X97967800Y-158927800D01*
X101723000Y-158314200D02*
X101723000Y-157788800D01*
X101879400Y-158470600D02*
X101723000Y-158314200D01*
X101723000Y-157788800D02*
X101723000Y-158322200D01*
X101723000Y-156438600D02*
X101723000Y-157788800D01*
X98325610Y-163490210D02*
X106816590Y-163490210D01*
X97165400Y-162330000D02*
X98325610Y-163490210D01*
X97165400Y-161605000D02*
X97165400Y-162330000D01*
X106816590Y-163490210D02*
X108280200Y-162026600D01*
X108280200Y-162026600D02*
X113614200Y-162026600D01*
X113614200Y-162026600D02*
X115849400Y-159791400D01*
X115849400Y-159791400D02*
X115849400Y-144322800D01*
X115849400Y-144322800D02*
X113411000Y-141884400D01*
X113411000Y-141884400D02*
X108153200Y-141884400D01*
X108153200Y-141884400D02*
X106349800Y-143687800D01*
X106349800Y-143687800D02*
X98069400Y-143687800D01*
X98069400Y-143687800D02*
X97663000Y-143687800D01*
X95758000Y-141782800D02*
X95402400Y-141782800D01*
X97663000Y-143687800D02*
X95758000Y-141782800D01*
X97829600Y-165571400D02*
X97332800Y-165571400D01*
X98318390Y-166060190D02*
X97829600Y-165571400D01*
X86828000Y-173649000D02*
X90260800Y-173649000D01*
X90260800Y-173649000D02*
X91186000Y-174574200D01*
X98318390Y-170809990D02*
X98318390Y-166060190D01*
X91186000Y-174574200D02*
X91186000Y-175361600D01*
X95554800Y-176453800D02*
X96139000Y-175869600D01*
X98374200Y-172720000D02*
X98374200Y-170865800D01*
X91186000Y-175361600D02*
X92278200Y-176453800D01*
X92278200Y-176453800D02*
X95554800Y-176453800D01*
X96810998Y-172872400D02*
X98221800Y-172872400D01*
X96139000Y-175869600D02*
X96139000Y-173544398D01*
X96139000Y-173544398D02*
X96810998Y-172872400D01*
X98221800Y-172872400D02*
X98374200Y-172720000D01*
X98374200Y-170865800D02*
X98318390Y-170809990D01*
X90652600Y-160731200D02*
X90805000Y-160578800D01*
X90652600Y-163626800D02*
X90652600Y-160731200D01*
X91998800Y-158851600D02*
X91998800Y-157302200D01*
X92546400Y-156754600D02*
X94970600Y-156754600D01*
X91998800Y-157302200D02*
X92546400Y-156754600D01*
X101189600Y-172847000D02*
X101854000Y-172847000D01*
X99593400Y-170586400D02*
X101854000Y-172847000D01*
X99593400Y-169777600D02*
X99593400Y-170586400D01*
X102057200Y-169773600D02*
X102057200Y-170484800D01*
X102057200Y-170484800D02*
X102870000Y-171297600D01*
X104447600Y-171297600D02*
X106045000Y-172895000D01*
X102870000Y-171297600D02*
X104447600Y-171297600D01*
X106045000Y-177175000D02*
X106045000Y-175895000D01*
X78740000Y-164592000D02*
X78994000Y-164846000D01*
X75438000Y-164592000D02*
X78740000Y-164592000D01*
X72898000Y-169542000D02*
X72898000Y-168630600D01*
X75438000Y-166090600D02*
X75438000Y-164592000D01*
X72898000Y-168630600D02*
X75438000Y-166090600D01*
X89789000Y-156362400D02*
X89789000Y-154309000D01*
X88493600Y-157657800D02*
X89789000Y-156362400D01*
X88493600Y-160629600D02*
X88493600Y-157657800D01*
X84277200Y-164846000D02*
X88493600Y-160629600D01*
X78994000Y-164846000D02*
X84277200Y-164846000D01*
X89772000Y-151367000D02*
X89789000Y-151384000D01*
X89772000Y-148717000D02*
X89772000Y-151367000D01*
X74168000Y-164592000D02*
X74168000Y-163703000D01*
X74761790Y-163083810D02*
X82718210Y-163083810D01*
X82718210Y-163083810D02*
X82727800Y-163093400D01*
X74168000Y-163677600D02*
X74761790Y-163083810D01*
X74168000Y-164592000D02*
X74168000Y-163677600D01*
X83905790Y-163083810D02*
X84175600Y-162814000D01*
X82718210Y-163083810D02*
X83905790Y-163083810D01*
X74168000Y-171577000D02*
X76200000Y-173609000D01*
X74168000Y-169542000D02*
X74168000Y-171577000D01*
X110871000Y-173736000D02*
X108407200Y-171272200D01*
X108407200Y-171272200D02*
X107442000Y-171272200D01*
X107442000Y-171272200D02*
X106121200Y-169951400D01*
X106121200Y-168529000D02*
X104444800Y-166852600D01*
X106121200Y-169951400D02*
X106121200Y-168529000D01*
X80772000Y-148717000D02*
X80772000Y-149047200D01*
X82753200Y-151028400D02*
X82753200Y-151964200D01*
X80772000Y-149047200D02*
X82753200Y-151028400D01*
X84628800Y-151964200D02*
X84861400Y-152196800D01*
X82753200Y-151964200D02*
X84628800Y-151964200D01*
X69641500Y-149669500D02*
X69641500Y-148366700D01*
X71976200Y-146032000D02*
X74168000Y-146032000D01*
X69641500Y-148366700D02*
X71976200Y-146032000D01*
X77412200Y-152451400D02*
X77412200Y-152723200D01*
X80162400Y-156816000D02*
X80162400Y-154892800D01*
X79853600Y-154892800D02*
X77412200Y-152451400D01*
X80162400Y-154892800D02*
X79853600Y-154892800D01*
D24*
X74168000Y-146032000D02*
X76080400Y-146032000D01*
X77412200Y-147363800D02*
X77412200Y-152451400D01*
X76080400Y-146032000D02*
X77412200Y-147363800D01*
D22*
X71450200Y-141732000D02*
X70891400Y-141173200D01*
X74168000Y-141732000D02*
X71450200Y-141732000D01*
D25*
X100199506Y-174127537D02*
X100309820Y-174186502D01*
X100429518Y-174222812D01*
X100554000Y-174235072D01*
X102978037Y-174235072D01*
X102941574Y-174323102D01*
X102914557Y-174458928D01*
X100554000Y-174458928D01*
X100429518Y-174471188D01*
X100309820Y-174507498D01*
X100199506Y-174566463D01*
X100102815Y-174645815D01*
X100023463Y-174742506D01*
X100014160Y-174759910D01*
X99955450Y-174701200D01*
X98356200Y-174701200D01*
X98356200Y-176200450D01*
X98514950Y-176359200D01*
X99479200Y-176362272D01*
X99603682Y-176350012D01*
X99723380Y-176313702D01*
X99833694Y-176254737D01*
X99915928Y-176187250D01*
X99915928Y-176597000D01*
X99928188Y-176721482D01*
X99964498Y-176841180D01*
X100023463Y-176951494D01*
X100102815Y-177048185D01*
X100199506Y-177127537D01*
X100222822Y-177140000D01*
X96034881Y-177140000D01*
X96148091Y-177047091D01*
X96174245Y-177015222D01*
X96700432Y-176489036D01*
X96732291Y-176462891D01*
X96830866Y-176342777D01*
X96854718Y-176350012D01*
X96979200Y-176362272D01*
X97943450Y-176359200D01*
X98102200Y-176200450D01*
X98102200Y-174701200D01*
X98082200Y-174701200D01*
X98082200Y-174447200D01*
X98102200Y-174447200D01*
X98102200Y-174427200D01*
X98356200Y-174427200D01*
X98356200Y-174447200D01*
X99955450Y-174447200D01*
X100114200Y-174288450D01*
X100115018Y-174058200D01*
X100199506Y-174127537D01*
G04 #@! TA.AperFunction,Conductor*
D26*
G36*
X100199506Y-174127537D02*
G01*
X100309820Y-174186502D01*
X100429518Y-174222812D01*
X100554000Y-174235072D01*
X102978037Y-174235072D01*
X102941574Y-174323102D01*
X102914557Y-174458928D01*
X100554000Y-174458928D01*
X100429518Y-174471188D01*
X100309820Y-174507498D01*
X100199506Y-174566463D01*
X100102815Y-174645815D01*
X100023463Y-174742506D01*
X100014160Y-174759910D01*
X99955450Y-174701200D01*
X98356200Y-174701200D01*
X98356200Y-176200450D01*
X98514950Y-176359200D01*
X99479200Y-176362272D01*
X99603682Y-176350012D01*
X99723380Y-176313702D01*
X99833694Y-176254737D01*
X99915928Y-176187250D01*
X99915928Y-176597000D01*
X99928188Y-176721482D01*
X99964498Y-176841180D01*
X100023463Y-176951494D01*
X100102815Y-177048185D01*
X100199506Y-177127537D01*
X100222822Y-177140000D01*
X96034881Y-177140000D01*
X96148091Y-177047091D01*
X96174245Y-177015222D01*
X96700432Y-176489036D01*
X96732291Y-176462891D01*
X96830866Y-176342777D01*
X96854718Y-176350012D01*
X96979200Y-176362272D01*
X97943450Y-176359200D01*
X98102200Y-176200450D01*
X98102200Y-174701200D01*
X98082200Y-174701200D01*
X98082200Y-174447200D01*
X98102200Y-174447200D01*
X98102200Y-174427200D01*
X98356200Y-174427200D01*
X98356200Y-174447200D01*
X99955450Y-174447200D01*
X100114200Y-174288450D01*
X100115018Y-174058200D01*
X100199506Y-174127537D01*
G37*
G04 #@! TD.AperFunction*
D25*
X69929401Y-156911469D02*
X69929400Y-160309132D01*
X68805974Y-161432559D01*
X68774110Y-161458709D01*
X68728650Y-161514102D01*
X68669764Y-161585855D01*
X68592228Y-161730914D01*
X68544482Y-161888312D01*
X68528360Y-162052000D01*
X68532401Y-162093028D01*
X68532401Y-163115628D01*
X68414438Y-163212438D01*
X68303995Y-163347013D01*
X68221928Y-163500549D01*
X68171392Y-163667145D01*
X68161530Y-163767281D01*
X68113854Y-163792764D01*
X68021483Y-163868571D01*
X67986709Y-163897109D01*
X67960563Y-163928968D01*
X67526134Y-164363398D01*
X67468652Y-164363398D01*
X67627400Y-164204650D01*
X67630472Y-163590400D01*
X67618212Y-163465918D01*
X67581902Y-163346220D01*
X67522937Y-163235906D01*
X67443585Y-163139215D01*
X67346894Y-163059863D01*
X67236580Y-163000898D01*
X67116882Y-162964588D01*
X66992400Y-162952328D01*
X66703150Y-162955400D01*
X66544400Y-163114150D01*
X66544400Y-164363400D01*
X66564400Y-164363400D01*
X66564400Y-164617400D01*
X66544400Y-164617400D01*
X66544400Y-164637400D01*
X66290400Y-164637400D01*
X66290400Y-164617400D01*
X65366150Y-164617400D01*
X65207400Y-164776150D01*
X65204328Y-165390400D01*
X65216588Y-165514882D01*
X65252898Y-165634580D01*
X65311863Y-165744894D01*
X65363587Y-165807920D01*
X65340695Y-165835813D01*
X65258628Y-165989349D01*
X65208092Y-166155945D01*
X65191028Y-166329199D01*
X65191028Y-167579201D01*
X65208092Y-167752455D01*
X65258628Y-167919051D01*
X65340695Y-168072587D01*
X65451138Y-168207162D01*
X65585713Y-168317605D01*
X65739249Y-168399672D01*
X65905845Y-168450208D01*
X66079099Y-168467272D01*
X66704101Y-168467272D01*
X66877355Y-168450208D01*
X67043951Y-168399672D01*
X67197487Y-168317605D01*
X67332062Y-168207162D01*
X67442505Y-168072587D01*
X67524572Y-167919051D01*
X67575108Y-167752455D01*
X67576510Y-167738223D01*
X67605687Y-167729372D01*
X67750746Y-167651836D01*
X67877891Y-167547491D01*
X67904046Y-167515621D01*
X68116028Y-167303639D01*
X68116028Y-167579201D01*
X68133092Y-167752455D01*
X68183628Y-167919051D01*
X68265695Y-168072587D01*
X68376138Y-168207162D01*
X68510713Y-168317605D01*
X68664249Y-168399672D01*
X68830845Y-168450208D01*
X69004099Y-168467272D01*
X69387817Y-168467272D01*
X69274663Y-168580426D01*
X69161395Y-168749944D01*
X69083374Y-168938302D01*
X69043600Y-169138261D01*
X69043600Y-169342139D01*
X69083374Y-169542098D01*
X69161395Y-169730456D01*
X69274663Y-169899974D01*
X69418826Y-170044137D01*
X69588344Y-170157405D01*
X69776702Y-170235426D01*
X69976661Y-170275200D01*
X69980789Y-170275200D01*
X70059313Y-170317172D01*
X70216711Y-170364918D01*
X70339381Y-170377000D01*
X70339382Y-170377000D01*
X70380400Y-170381040D01*
X70421418Y-170377000D01*
X70690913Y-170377000D01*
X70705071Y-170520745D01*
X70749916Y-170668582D01*
X70822742Y-170804829D01*
X70920749Y-170924251D01*
X71040171Y-171022258D01*
X71176418Y-171095084D01*
X71324255Y-171139929D01*
X71478000Y-171155072D01*
X71778000Y-171155072D01*
X71931745Y-171139929D01*
X72079582Y-171095084D01*
X72215829Y-171022258D01*
X72263000Y-170983546D01*
X72310171Y-171022258D01*
X72446418Y-171095084D01*
X72594255Y-171139929D01*
X72748000Y-171155072D01*
X73048000Y-171155072D01*
X73201745Y-171139929D01*
X73333001Y-171100114D01*
X73333001Y-171535972D01*
X73328960Y-171577000D01*
X73345082Y-171740688D01*
X73392828Y-171898086D01*
X73470364Y-172043145D01*
X73470365Y-172043146D01*
X73574710Y-172170291D01*
X73606574Y-172196441D01*
X74472645Y-173062512D01*
X74464365Y-173082501D01*
X74395000Y-173431223D01*
X74395000Y-173786777D01*
X74464365Y-174135499D01*
X74600429Y-174463988D01*
X74691933Y-174600933D01*
X74554988Y-174509429D01*
X74226499Y-174373365D01*
X73877777Y-174304000D01*
X73522223Y-174304000D01*
X73173501Y-174373365D01*
X72845012Y-174509429D01*
X72549379Y-174706965D01*
X72297965Y-174958379D01*
X72100429Y-175254012D01*
X71964365Y-175582501D01*
X71895000Y-175931223D01*
X71895000Y-176286777D01*
X71964365Y-176635499D01*
X72100429Y-176963988D01*
X72218037Y-177140000D01*
X64160000Y-177140000D01*
X64160000Y-173769872D01*
X65075000Y-173769872D01*
X65075000Y-174210128D01*
X65160890Y-174641925D01*
X65329369Y-175048669D01*
X65573962Y-175414729D01*
X65885271Y-175726038D01*
X66251331Y-175970631D01*
X66658075Y-176139110D01*
X67089872Y-176225000D01*
X67530128Y-176225000D01*
X67961925Y-176139110D01*
X68368669Y-175970631D01*
X68734729Y-175726038D01*
X69046038Y-175414729D01*
X69290631Y-175048669D01*
X69459110Y-174641925D01*
X69545000Y-174210128D01*
X69545000Y-173769872D01*
X69459110Y-173338075D01*
X69290631Y-172931331D01*
X69046038Y-172565271D01*
X68734729Y-172253962D01*
X68368669Y-172009369D01*
X67961925Y-171840890D01*
X67530128Y-171755000D01*
X67089872Y-171755000D01*
X66658075Y-171840890D01*
X66251331Y-172009369D01*
X65885271Y-172253962D01*
X65573962Y-172565271D01*
X65329369Y-172931331D01*
X65160890Y-173338075D01*
X65075000Y-173769872D01*
X64160000Y-173769872D01*
X64160000Y-163590400D01*
X65204328Y-163590400D01*
X65207400Y-164204650D01*
X65366150Y-164363400D01*
X66290400Y-164363400D01*
X66290400Y-163114150D01*
X66131650Y-162955400D01*
X65842400Y-162952328D01*
X65717918Y-162964588D01*
X65598220Y-163000898D01*
X65487906Y-163059863D01*
X65391215Y-163139215D01*
X65311863Y-163235906D01*
X65252898Y-163346220D01*
X65216588Y-163465918D01*
X65204328Y-163590400D01*
X64160000Y-163590400D01*
X64160000Y-161812353D01*
X64445360Y-161953757D01*
X64788622Y-162046438D01*
X65143369Y-162070373D01*
X65495970Y-162024639D01*
X65832873Y-161910995D01*
X66048225Y-161795889D01*
X66164497Y-161514102D01*
X65087500Y-160437105D01*
X65073358Y-160451248D01*
X64893753Y-160271643D01*
X64907895Y-160257500D01*
X64893753Y-160243358D01*
X65073358Y-160063753D01*
X65087500Y-160077895D01*
X65101643Y-160063753D01*
X65281248Y-160243358D01*
X65267105Y-160257500D01*
X66344102Y-161334497D01*
X66625889Y-161218225D01*
X66783757Y-160899640D01*
X66876438Y-160556378D01*
X66900373Y-160201631D01*
X66854639Y-159849030D01*
X66740995Y-159512127D01*
X66625889Y-159296775D01*
X66344104Y-159180504D01*
X66400976Y-159123632D01*
X66436879Y-159159535D01*
X66732512Y-159357071D01*
X67061001Y-159493135D01*
X67409723Y-159562500D01*
X67765277Y-159562500D01*
X68113999Y-159493135D01*
X68442488Y-159357071D01*
X68738121Y-159159535D01*
X68989535Y-158908121D01*
X69187071Y-158612488D01*
X69323135Y-158283999D01*
X69392500Y-157935277D01*
X69392500Y-157579723D01*
X69323135Y-157231001D01*
X69187071Y-156902512D01*
X68989535Y-156606879D01*
X68738121Y-156355465D01*
X68442488Y-156157929D01*
X68113999Y-156021865D01*
X67765277Y-155952500D01*
X67409723Y-155952500D01*
X67061001Y-156021865D01*
X66732512Y-156157929D01*
X66595567Y-156249433D01*
X66687071Y-156112488D01*
X66823135Y-155783999D01*
X66892500Y-155435277D01*
X66892500Y-155114600D01*
X68132533Y-155114600D01*
X69929401Y-156911469D01*
G04 #@! TA.AperFunction,Conductor*
D26*
G36*
X69929401Y-156911469D02*
G01*
X69929400Y-160309132D01*
X68805974Y-161432559D01*
X68774110Y-161458709D01*
X68728650Y-161514102D01*
X68669764Y-161585855D01*
X68592228Y-161730914D01*
X68544482Y-161888312D01*
X68528360Y-162052000D01*
X68532401Y-162093028D01*
X68532401Y-163115628D01*
X68414438Y-163212438D01*
X68303995Y-163347013D01*
X68221928Y-163500549D01*
X68171392Y-163667145D01*
X68161530Y-163767281D01*
X68113854Y-163792764D01*
X68021483Y-163868571D01*
X67986709Y-163897109D01*
X67960563Y-163928968D01*
X67526134Y-164363398D01*
X67468652Y-164363398D01*
X67627400Y-164204650D01*
X67630472Y-163590400D01*
X67618212Y-163465918D01*
X67581902Y-163346220D01*
X67522937Y-163235906D01*
X67443585Y-163139215D01*
X67346894Y-163059863D01*
X67236580Y-163000898D01*
X67116882Y-162964588D01*
X66992400Y-162952328D01*
X66703150Y-162955400D01*
X66544400Y-163114150D01*
X66544400Y-164363400D01*
X66564400Y-164363400D01*
X66564400Y-164617400D01*
X66544400Y-164617400D01*
X66544400Y-164637400D01*
X66290400Y-164637400D01*
X66290400Y-164617400D01*
X65366150Y-164617400D01*
X65207400Y-164776150D01*
X65204328Y-165390400D01*
X65216588Y-165514882D01*
X65252898Y-165634580D01*
X65311863Y-165744894D01*
X65363587Y-165807920D01*
X65340695Y-165835813D01*
X65258628Y-165989349D01*
X65208092Y-166155945D01*
X65191028Y-166329199D01*
X65191028Y-167579201D01*
X65208092Y-167752455D01*
X65258628Y-167919051D01*
X65340695Y-168072587D01*
X65451138Y-168207162D01*
X65585713Y-168317605D01*
X65739249Y-168399672D01*
X65905845Y-168450208D01*
X66079099Y-168467272D01*
X66704101Y-168467272D01*
X66877355Y-168450208D01*
X67043951Y-168399672D01*
X67197487Y-168317605D01*
X67332062Y-168207162D01*
X67442505Y-168072587D01*
X67524572Y-167919051D01*
X67575108Y-167752455D01*
X67576510Y-167738223D01*
X67605687Y-167729372D01*
X67750746Y-167651836D01*
X67877891Y-167547491D01*
X67904046Y-167515621D01*
X68116028Y-167303639D01*
X68116028Y-167579201D01*
X68133092Y-167752455D01*
X68183628Y-167919051D01*
X68265695Y-168072587D01*
X68376138Y-168207162D01*
X68510713Y-168317605D01*
X68664249Y-168399672D01*
X68830845Y-168450208D01*
X69004099Y-168467272D01*
X69387817Y-168467272D01*
X69274663Y-168580426D01*
X69161395Y-168749944D01*
X69083374Y-168938302D01*
X69043600Y-169138261D01*
X69043600Y-169342139D01*
X69083374Y-169542098D01*
X69161395Y-169730456D01*
X69274663Y-169899974D01*
X69418826Y-170044137D01*
X69588344Y-170157405D01*
X69776702Y-170235426D01*
X69976661Y-170275200D01*
X69980789Y-170275200D01*
X70059313Y-170317172D01*
X70216711Y-170364918D01*
X70339381Y-170377000D01*
X70339382Y-170377000D01*
X70380400Y-170381040D01*
X70421418Y-170377000D01*
X70690913Y-170377000D01*
X70705071Y-170520745D01*
X70749916Y-170668582D01*
X70822742Y-170804829D01*
X70920749Y-170924251D01*
X71040171Y-171022258D01*
X71176418Y-171095084D01*
X71324255Y-171139929D01*
X71478000Y-171155072D01*
X71778000Y-171155072D01*
X71931745Y-171139929D01*
X72079582Y-171095084D01*
X72215829Y-171022258D01*
X72263000Y-170983546D01*
X72310171Y-171022258D01*
X72446418Y-171095084D01*
X72594255Y-171139929D01*
X72748000Y-171155072D01*
X73048000Y-171155072D01*
X73201745Y-171139929D01*
X73333001Y-171100114D01*
X73333001Y-171535972D01*
X73328960Y-171577000D01*
X73345082Y-171740688D01*
X73392828Y-171898086D01*
X73470364Y-172043145D01*
X73470365Y-172043146D01*
X73574710Y-172170291D01*
X73606574Y-172196441D01*
X74472645Y-173062512D01*
X74464365Y-173082501D01*
X74395000Y-173431223D01*
X74395000Y-173786777D01*
X74464365Y-174135499D01*
X74600429Y-174463988D01*
X74691933Y-174600933D01*
X74554988Y-174509429D01*
X74226499Y-174373365D01*
X73877777Y-174304000D01*
X73522223Y-174304000D01*
X73173501Y-174373365D01*
X72845012Y-174509429D01*
X72549379Y-174706965D01*
X72297965Y-174958379D01*
X72100429Y-175254012D01*
X71964365Y-175582501D01*
X71895000Y-175931223D01*
X71895000Y-176286777D01*
X71964365Y-176635499D01*
X72100429Y-176963988D01*
X72218037Y-177140000D01*
X64160000Y-177140000D01*
X64160000Y-173769872D01*
X65075000Y-173769872D01*
X65075000Y-174210128D01*
X65160890Y-174641925D01*
X65329369Y-175048669D01*
X65573962Y-175414729D01*
X65885271Y-175726038D01*
X66251331Y-175970631D01*
X66658075Y-176139110D01*
X67089872Y-176225000D01*
X67530128Y-176225000D01*
X67961925Y-176139110D01*
X68368669Y-175970631D01*
X68734729Y-175726038D01*
X69046038Y-175414729D01*
X69290631Y-175048669D01*
X69459110Y-174641925D01*
X69545000Y-174210128D01*
X69545000Y-173769872D01*
X69459110Y-173338075D01*
X69290631Y-172931331D01*
X69046038Y-172565271D01*
X68734729Y-172253962D01*
X68368669Y-172009369D01*
X67961925Y-171840890D01*
X67530128Y-171755000D01*
X67089872Y-171755000D01*
X66658075Y-171840890D01*
X66251331Y-172009369D01*
X65885271Y-172253962D01*
X65573962Y-172565271D01*
X65329369Y-172931331D01*
X65160890Y-173338075D01*
X65075000Y-173769872D01*
X64160000Y-173769872D01*
X64160000Y-163590400D01*
X65204328Y-163590400D01*
X65207400Y-164204650D01*
X65366150Y-164363400D01*
X66290400Y-164363400D01*
X66290400Y-163114150D01*
X66131650Y-162955400D01*
X65842400Y-162952328D01*
X65717918Y-162964588D01*
X65598220Y-163000898D01*
X65487906Y-163059863D01*
X65391215Y-163139215D01*
X65311863Y-163235906D01*
X65252898Y-163346220D01*
X65216588Y-163465918D01*
X65204328Y-163590400D01*
X64160000Y-163590400D01*
X64160000Y-161812353D01*
X64445360Y-161953757D01*
X64788622Y-162046438D01*
X65143369Y-162070373D01*
X65495970Y-162024639D01*
X65832873Y-161910995D01*
X66048225Y-161795889D01*
X66164497Y-161514102D01*
X65087500Y-160437105D01*
X65073358Y-160451248D01*
X64893753Y-160271643D01*
X64907895Y-160257500D01*
X64893753Y-160243358D01*
X65073358Y-160063753D01*
X65087500Y-160077895D01*
X65101643Y-160063753D01*
X65281248Y-160243358D01*
X65267105Y-160257500D01*
X66344102Y-161334497D01*
X66625889Y-161218225D01*
X66783757Y-160899640D01*
X66876438Y-160556378D01*
X66900373Y-160201631D01*
X66854639Y-159849030D01*
X66740995Y-159512127D01*
X66625889Y-159296775D01*
X66344104Y-159180504D01*
X66400976Y-159123632D01*
X66436879Y-159159535D01*
X66732512Y-159357071D01*
X67061001Y-159493135D01*
X67409723Y-159562500D01*
X67765277Y-159562500D01*
X68113999Y-159493135D01*
X68442488Y-159357071D01*
X68738121Y-159159535D01*
X68989535Y-158908121D01*
X69187071Y-158612488D01*
X69323135Y-158283999D01*
X69392500Y-157935277D01*
X69392500Y-157579723D01*
X69323135Y-157231001D01*
X69187071Y-156902512D01*
X68989535Y-156606879D01*
X68738121Y-156355465D01*
X68442488Y-156157929D01*
X68113999Y-156021865D01*
X67765277Y-155952500D01*
X67409723Y-155952500D01*
X67061001Y-156021865D01*
X66732512Y-156157929D01*
X66595567Y-156249433D01*
X66687071Y-156112488D01*
X66823135Y-155783999D01*
X66892500Y-155435277D01*
X66892500Y-155114600D01*
X68132533Y-155114600D01*
X69929401Y-156911469D01*
G37*
G04 #@! TD.AperFunction*
D25*
X126340001Y-158167332D02*
X126298363Y-158105017D01*
X126000983Y-157807637D01*
X125651302Y-157573988D01*
X125262756Y-157413047D01*
X124850279Y-157331000D01*
X124429721Y-157331000D01*
X124017244Y-157413047D01*
X123628698Y-157573988D01*
X123279017Y-157807637D01*
X122981637Y-158105017D01*
X122747988Y-158454698D01*
X122587047Y-158843244D01*
X122505000Y-159255721D01*
X122505000Y-159676279D01*
X122587047Y-160088756D01*
X122747988Y-160477302D01*
X122981637Y-160826983D01*
X123279017Y-161124363D01*
X123628698Y-161358012D01*
X124017244Y-161518953D01*
X124429721Y-161601000D01*
X124850279Y-161601000D01*
X125262756Y-161518953D01*
X125651302Y-161358012D01*
X126000983Y-161124363D01*
X126298363Y-160826983D01*
X126340000Y-160764668D01*
X126340000Y-177140000D01*
X107742796Y-177140000D01*
X107796185Y-177096185D01*
X107875537Y-176999494D01*
X107934502Y-176889180D01*
X107970812Y-176769482D01*
X107983072Y-176645000D01*
X107983072Y-175145000D01*
X107970812Y-175020518D01*
X107934502Y-174900820D01*
X107875537Y-174790506D01*
X107796185Y-174693815D01*
X107699494Y-174614463D01*
X107589180Y-174555498D01*
X107469482Y-174519188D01*
X107345000Y-174506928D01*
X104968591Y-174506928D01*
X104932026Y-174323102D01*
X104915445Y-174283072D01*
X107345000Y-174283072D01*
X107469482Y-174270812D01*
X107589180Y-174234502D01*
X107699494Y-174175537D01*
X107796185Y-174096185D01*
X107875537Y-173999494D01*
X107934502Y-173889180D01*
X107970812Y-173769482D01*
X107983072Y-173645000D01*
X107983072Y-172145000D01*
X107979349Y-172107200D01*
X108061333Y-172107200D01*
X108732928Y-172778795D01*
X108732928Y-175236000D01*
X108745188Y-175360482D01*
X108781498Y-175480180D01*
X108840463Y-175590494D01*
X108919815Y-175687185D01*
X109016506Y-175766537D01*
X109126820Y-175825502D01*
X109246518Y-175861812D01*
X109371000Y-175874072D01*
X112371000Y-175874072D01*
X112495482Y-175861812D01*
X112615180Y-175825502D01*
X112725494Y-175766537D01*
X112822185Y-175687185D01*
X112901537Y-175590494D01*
X112960502Y-175480180D01*
X112996812Y-175360482D01*
X113009072Y-175236000D01*
X113009072Y-173525721D01*
X113816000Y-173525721D01*
X113816000Y-173946279D01*
X113898047Y-174358756D01*
X114058988Y-174747302D01*
X114292637Y-175096983D01*
X114590017Y-175394363D01*
X114939698Y-175628012D01*
X115328244Y-175788953D01*
X115740721Y-175871000D01*
X116161279Y-175871000D01*
X116573756Y-175788953D01*
X116962302Y-175628012D01*
X117311983Y-175394363D01*
X117609363Y-175096983D01*
X117843012Y-174747302D01*
X118003953Y-174358756D01*
X118086000Y-173946279D01*
X118086000Y-173769872D01*
X120955000Y-173769872D01*
X120955000Y-174210128D01*
X121040890Y-174641925D01*
X121209369Y-175048669D01*
X121453962Y-175414729D01*
X121765271Y-175726038D01*
X122131331Y-175970631D01*
X122538075Y-176139110D01*
X122969872Y-176225000D01*
X123410128Y-176225000D01*
X123841925Y-176139110D01*
X124248669Y-175970631D01*
X124614729Y-175726038D01*
X124926038Y-175414729D01*
X125170631Y-175048669D01*
X125339110Y-174641925D01*
X125425000Y-174210128D01*
X125425000Y-173769872D01*
X125339110Y-173338075D01*
X125170631Y-172931331D01*
X124926038Y-172565271D01*
X124614729Y-172253962D01*
X124248669Y-172009369D01*
X123841925Y-171840890D01*
X123410128Y-171755000D01*
X122969872Y-171755000D01*
X122538075Y-171840890D01*
X122131331Y-172009369D01*
X121765271Y-172253962D01*
X121453962Y-172565271D01*
X121209369Y-172931331D01*
X121040890Y-173338075D01*
X120955000Y-173769872D01*
X118086000Y-173769872D01*
X118086000Y-173525721D01*
X118003953Y-173113244D01*
X117843012Y-172724698D01*
X117609363Y-172375017D01*
X117311983Y-172077637D01*
X116962302Y-171843988D01*
X116573756Y-171683047D01*
X116161279Y-171601000D01*
X115740721Y-171601000D01*
X115328244Y-171683047D01*
X114939698Y-171843988D01*
X114590017Y-172077637D01*
X114292637Y-172375017D01*
X114058988Y-172724698D01*
X113898047Y-173113244D01*
X113816000Y-173525721D01*
X113009072Y-173525721D01*
X113009072Y-172236000D01*
X112996812Y-172111518D01*
X112960502Y-171991820D01*
X112901537Y-171881506D01*
X112822185Y-171784815D01*
X112725494Y-171705463D01*
X112615180Y-171646498D01*
X112495482Y-171610188D01*
X112371000Y-171597928D01*
X109913795Y-171597928D01*
X109026646Y-170710779D01*
X109000491Y-170678909D01*
X108873346Y-170574564D01*
X108728287Y-170497028D01*
X108570889Y-170449282D01*
X108448219Y-170437200D01*
X108448218Y-170437200D01*
X108407200Y-170433160D01*
X108366182Y-170437200D01*
X107787868Y-170437200D01*
X106956200Y-169605533D01*
X106956200Y-168570018D01*
X106960240Y-168529000D01*
X106944118Y-168365312D01*
X106931282Y-168322995D01*
X106896372Y-168207913D01*
X106818836Y-168062854D01*
X106808369Y-168050100D01*
X106740639Y-167967570D01*
X106740637Y-167967568D01*
X106714491Y-167935709D01*
X106682632Y-167909563D01*
X105956105Y-167183037D01*
X105957872Y-167165101D01*
X105957872Y-166540099D01*
X105940808Y-166366845D01*
X105890272Y-166200249D01*
X105808205Y-166046713D01*
X105697762Y-165912138D01*
X105563187Y-165801695D01*
X105409651Y-165719628D01*
X105243055Y-165669092D01*
X105069801Y-165652028D01*
X103819799Y-165652028D01*
X103646545Y-165669092D01*
X103479949Y-165719628D01*
X103336401Y-165796356D01*
X103286694Y-165755563D01*
X103176380Y-165696598D01*
X103056682Y-165660288D01*
X102932200Y-165648028D01*
X102342950Y-165651100D01*
X102184200Y-165809850D01*
X102184200Y-166721600D01*
X102204200Y-166721600D01*
X102204200Y-166975600D01*
X102184200Y-166975600D01*
X102184200Y-167887350D01*
X102342950Y-168046100D01*
X102932200Y-168049172D01*
X103056682Y-168036912D01*
X103176380Y-168000602D01*
X103286694Y-167941637D01*
X103330498Y-167905688D01*
X103479949Y-167985572D01*
X103646545Y-168036108D01*
X103819799Y-168053172D01*
X104464504Y-168053172D01*
X104988360Y-168577028D01*
X103819799Y-168577028D01*
X103646545Y-168594092D01*
X103479949Y-168644628D01*
X103326413Y-168726695D01*
X103253437Y-168786585D01*
X103175587Y-168722695D01*
X103022051Y-168640628D01*
X102855455Y-168590092D01*
X102682201Y-168573028D01*
X101432199Y-168573028D01*
X101258945Y-168590092D01*
X101092349Y-168640628D01*
X100938813Y-168722695D01*
X100822863Y-168817853D01*
X100711787Y-168726695D01*
X100558251Y-168644628D01*
X100391655Y-168594092D01*
X100218401Y-168577028D01*
X99153390Y-168577028D01*
X99153390Y-168050904D01*
X99307650Y-168050100D01*
X99466400Y-167891350D01*
X99466400Y-166979600D01*
X99720400Y-166979600D01*
X99720400Y-167891350D01*
X99879150Y-168050100D01*
X100468400Y-168053172D01*
X100592882Y-168040912D01*
X100712580Y-168004602D01*
X100822894Y-167945637D01*
X100827744Y-167941657D01*
X100938020Y-168000602D01*
X101057718Y-168036912D01*
X101182200Y-168049172D01*
X101771450Y-168046100D01*
X101930200Y-167887350D01*
X101930200Y-166975600D01*
X100705950Y-166975600D01*
X100701950Y-166979600D01*
X99720400Y-166979600D01*
X99466400Y-166979600D01*
X99446400Y-166979600D01*
X99446400Y-166725600D01*
X99466400Y-166725600D01*
X99466400Y-165813850D01*
X99720400Y-165813850D01*
X99720400Y-166725600D01*
X100944650Y-166725600D01*
X100948650Y-166721600D01*
X101930200Y-166721600D01*
X101930200Y-165809850D01*
X101771450Y-165651100D01*
X101182200Y-165648028D01*
X101057718Y-165660288D01*
X100938020Y-165696598D01*
X100827706Y-165755563D01*
X100822856Y-165759543D01*
X100712580Y-165700598D01*
X100592882Y-165664288D01*
X100468400Y-165652028D01*
X99879150Y-165655100D01*
X99720400Y-165813850D01*
X99466400Y-165813850D01*
X99307650Y-165655100D01*
X99047938Y-165653746D01*
X99016026Y-165594044D01*
X98911681Y-165466899D01*
X98879811Y-165440744D01*
X98694788Y-165255721D01*
X108305000Y-165255721D01*
X108305000Y-165676279D01*
X108387047Y-166088756D01*
X108547988Y-166477302D01*
X108781637Y-166826983D01*
X109079017Y-167124363D01*
X109428698Y-167358012D01*
X109817244Y-167518953D01*
X110229721Y-167601000D01*
X110650279Y-167601000D01*
X111062756Y-167518953D01*
X111451302Y-167358012D01*
X111800983Y-167124363D01*
X112098363Y-166826983D01*
X112332012Y-166477302D01*
X112492953Y-166088756D01*
X112575000Y-165676279D01*
X112575000Y-165255721D01*
X112569953Y-165230344D01*
X120805000Y-165230344D01*
X120805000Y-165601656D01*
X120877439Y-165965834D01*
X121019534Y-166308882D01*
X121225825Y-166617618D01*
X121488382Y-166880175D01*
X121797118Y-167086466D01*
X122140166Y-167228561D01*
X122504344Y-167301000D01*
X122875656Y-167301000D01*
X123239834Y-167228561D01*
X123582882Y-167086466D01*
X123891618Y-166880175D01*
X124154175Y-166617618D01*
X124360466Y-166308882D01*
X124502561Y-165965834D01*
X124575000Y-165601656D01*
X124575000Y-165230344D01*
X124502561Y-164866166D01*
X124360466Y-164523118D01*
X124154175Y-164214382D01*
X123891618Y-163951825D01*
X123582882Y-163745534D01*
X123239834Y-163603439D01*
X122875656Y-163531000D01*
X122504344Y-163531000D01*
X122140166Y-163603439D01*
X121797118Y-163745534D01*
X121488382Y-163951825D01*
X121225825Y-164214382D01*
X121019534Y-164523118D01*
X120877439Y-164866166D01*
X120805000Y-165230344D01*
X112569953Y-165230344D01*
X112492953Y-164843244D01*
X112332012Y-164454698D01*
X112098363Y-164105017D01*
X111800983Y-163807637D01*
X111451302Y-163573988D01*
X111062756Y-163413047D01*
X110650279Y-163331000D01*
X110229721Y-163331000D01*
X109817244Y-163413047D01*
X109428698Y-163573988D01*
X109079017Y-163807637D01*
X108781637Y-164105017D01*
X108547988Y-164454698D01*
X108387047Y-164843244D01*
X108305000Y-165255721D01*
X98694788Y-165255721D01*
X98449046Y-165009979D01*
X98422891Y-164978109D01*
X98295746Y-164873764D01*
X98270872Y-164860469D01*
X98270872Y-164746400D01*
X98255729Y-164592655D01*
X98210884Y-164444818D01*
X98138058Y-164308571D01*
X98135128Y-164305000D01*
X98161921Y-164313128D01*
X98284591Y-164325210D01*
X98284592Y-164325210D01*
X98325610Y-164329250D01*
X98366628Y-164325210D01*
X106775572Y-164325210D01*
X106816590Y-164329250D01*
X106857608Y-164325210D01*
X106857609Y-164325210D01*
X106980279Y-164313128D01*
X107137677Y-164265382D01*
X107282736Y-164187846D01*
X107409881Y-164083501D01*
X107436036Y-164051631D01*
X108626068Y-162861600D01*
X113573182Y-162861600D01*
X113614200Y-162865640D01*
X113655218Y-162861600D01*
X113655219Y-162861600D01*
X113777889Y-162849518D01*
X113935287Y-162801772D01*
X114080346Y-162724236D01*
X114207491Y-162619891D01*
X114233646Y-162588021D01*
X116410828Y-160410840D01*
X116442691Y-160384691D01*
X116547036Y-160257546D01*
X116624572Y-160112487D01*
X116672318Y-159955089D01*
X116679599Y-159881164D01*
X116688440Y-159791401D01*
X116684400Y-159750382D01*
X116684400Y-153230344D01*
X120805000Y-153230344D01*
X120805000Y-153601656D01*
X120877439Y-153965834D01*
X121019534Y-154308882D01*
X121225825Y-154617618D01*
X121488382Y-154880175D01*
X121797118Y-155086466D01*
X122140166Y-155228561D01*
X122504344Y-155301000D01*
X122875656Y-155301000D01*
X123239834Y-155228561D01*
X123582882Y-155086466D01*
X123891618Y-154880175D01*
X124154175Y-154617618D01*
X124360466Y-154308882D01*
X124502561Y-153965834D01*
X124575000Y-153601656D01*
X124575000Y-153230344D01*
X124502561Y-152866166D01*
X124360466Y-152523118D01*
X124154175Y-152214382D01*
X123891618Y-151951825D01*
X123582882Y-151745534D01*
X123239834Y-151603439D01*
X122875656Y-151531000D01*
X122504344Y-151531000D01*
X122140166Y-151603439D01*
X121797118Y-151745534D01*
X121488382Y-151951825D01*
X121225825Y-152214382D01*
X121019534Y-152523118D01*
X120877439Y-152866166D01*
X120805000Y-153230344D01*
X116684400Y-153230344D01*
X116684400Y-147167261D01*
X117684600Y-147167261D01*
X117684600Y-147371139D01*
X117724374Y-147571098D01*
X117802395Y-147759456D01*
X117884600Y-147882485D01*
X117884601Y-150542114D01*
X117802395Y-150665144D01*
X117724374Y-150853502D01*
X117684600Y-151053461D01*
X117684600Y-151257339D01*
X117724374Y-151457298D01*
X117802395Y-151645656D01*
X117915663Y-151815174D01*
X118059826Y-151959337D01*
X118229344Y-152072605D01*
X118417702Y-152150626D01*
X118617661Y-152190400D01*
X118821539Y-152190400D01*
X119021498Y-152150626D01*
X119209856Y-152072605D01*
X119379374Y-151959337D01*
X119523537Y-151815174D01*
X119636805Y-151645656D01*
X119714826Y-151457298D01*
X119754600Y-151257339D01*
X119754600Y-151053461D01*
X119714826Y-150853502D01*
X119636805Y-150665144D01*
X119554600Y-150542115D01*
X119554600Y-147882485D01*
X119636805Y-147759456D01*
X119714826Y-147571098D01*
X119754600Y-147371139D01*
X119754600Y-147167261D01*
X119714826Y-146967302D01*
X119636805Y-146778944D01*
X119523537Y-146609426D01*
X119379374Y-146465263D01*
X119209856Y-146351995D01*
X119021498Y-146273974D01*
X118821539Y-146234200D01*
X118617661Y-146234200D01*
X118417702Y-146273974D01*
X118229344Y-146351995D01*
X118059826Y-146465263D01*
X117915663Y-146609426D01*
X117802395Y-146778944D01*
X117724374Y-146967302D01*
X117684600Y-147167261D01*
X116684400Y-147167261D01*
X116684400Y-144363807D01*
X116688439Y-144322799D01*
X116684400Y-144281791D01*
X116684400Y-144281781D01*
X116672318Y-144159111D01*
X116624572Y-144001713D01*
X116547036Y-143856654D01*
X116442691Y-143729509D01*
X116410827Y-143703359D01*
X115997340Y-143289872D01*
X120955000Y-143289872D01*
X120955000Y-143730128D01*
X121040890Y-144161925D01*
X121209369Y-144568669D01*
X121453962Y-144934729D01*
X121765271Y-145246038D01*
X122131331Y-145490631D01*
X122538075Y-145659110D01*
X122969872Y-145745000D01*
X123410128Y-145745000D01*
X123841925Y-145659110D01*
X124248669Y-145490631D01*
X124614729Y-145246038D01*
X124926038Y-144934729D01*
X125170631Y-144568669D01*
X125339110Y-144161925D01*
X125425000Y-143730128D01*
X125425000Y-143289872D01*
X125339110Y-142858075D01*
X125170631Y-142451331D01*
X124926038Y-142085271D01*
X124614729Y-141773962D01*
X124248669Y-141529369D01*
X123841925Y-141360890D01*
X123410128Y-141275000D01*
X122969872Y-141275000D01*
X122538075Y-141360890D01*
X122131331Y-141529369D01*
X121765271Y-141773962D01*
X121453962Y-142085271D01*
X121209369Y-142451331D01*
X121040890Y-142858075D01*
X120955000Y-143289872D01*
X115997340Y-143289872D01*
X114030446Y-141322979D01*
X114004291Y-141291109D01*
X113877146Y-141186764D01*
X113732087Y-141109228D01*
X113574689Y-141061482D01*
X113452019Y-141049400D01*
X113452018Y-141049400D01*
X113411000Y-141045360D01*
X113369982Y-141049400D01*
X108194218Y-141049400D01*
X108153200Y-141045360D01*
X108112182Y-141049400D01*
X108112181Y-141049400D01*
X107989511Y-141061482D01*
X107832113Y-141109228D01*
X107687054Y-141186764D01*
X107559909Y-141291109D01*
X107533763Y-141322968D01*
X106003933Y-142852800D01*
X104902282Y-142852800D01*
X104912072Y-142753400D01*
X104909000Y-141789150D01*
X104750250Y-141630400D01*
X103251000Y-141630400D01*
X103251000Y-141650400D01*
X102997000Y-141650400D01*
X102997000Y-141630400D01*
X101497750Y-141630400D01*
X101339000Y-141789150D01*
X101335928Y-142753400D01*
X101345718Y-142852800D01*
X98008869Y-142852800D01*
X96377446Y-141221379D01*
X96351291Y-141189509D01*
X96224146Y-141085164D01*
X96104549Y-141021238D01*
X96062174Y-140978863D01*
X95892656Y-140865595D01*
X95704298Y-140787574D01*
X95504339Y-140747800D01*
X95300461Y-140747800D01*
X95100502Y-140787574D01*
X94912144Y-140865595D01*
X94742626Y-140978863D01*
X94598463Y-141123026D01*
X94485195Y-141292544D01*
X94407174Y-141480902D01*
X94367400Y-141680861D01*
X94367400Y-141884739D01*
X94407174Y-142084698D01*
X94485195Y-142273056D01*
X94598463Y-142442574D01*
X94716404Y-142560515D01*
X94633302Y-142504988D01*
X94244756Y-142344047D01*
X93832279Y-142262000D01*
X93411721Y-142262000D01*
X92999244Y-142344047D01*
X92610698Y-142504988D01*
X92261017Y-142738637D01*
X91963637Y-143036017D01*
X91729988Y-143385698D01*
X91569047Y-143774244D01*
X91487000Y-144186721D01*
X91487000Y-144607279D01*
X91569047Y-145019756D01*
X91729988Y-145408302D01*
X91963637Y-145757983D01*
X92261017Y-146055363D01*
X92610698Y-146289012D01*
X92999244Y-146449953D01*
X93411721Y-146532000D01*
X93832279Y-146532000D01*
X93843330Y-146529802D01*
X93225795Y-147147337D01*
X93043506Y-147092040D01*
X92772000Y-147065299D01*
X92500493Y-147092040D01*
X92239419Y-147171236D01*
X91998812Y-147299843D01*
X91787919Y-147472920D01*
X91614843Y-147683813D01*
X91486236Y-147924420D01*
X91407040Y-148185494D01*
X91387000Y-148388964D01*
X91387000Y-149045037D01*
X91407040Y-149248507D01*
X91486236Y-149509581D01*
X91614843Y-149750188D01*
X91787920Y-149961081D01*
X91937001Y-150083429D01*
X91937001Y-150179428D01*
X91678599Y-150179428D01*
X91505345Y-150196492D01*
X91338749Y-150247028D01*
X91185213Y-150329095D01*
X91050638Y-150439538D01*
X91044659Y-150446824D01*
X91041962Y-150443538D01*
X90907387Y-150333095D01*
X90753851Y-150251028D01*
X90607000Y-150206482D01*
X90607000Y-150083429D01*
X90756081Y-149961081D01*
X90929157Y-149750188D01*
X91057764Y-149509581D01*
X91136960Y-149248506D01*
X91157000Y-149045036D01*
X91157000Y-148388963D01*
X91136960Y-148185493D01*
X91057764Y-147924419D01*
X90929157Y-147683812D01*
X90756080Y-147472919D01*
X90545187Y-147299843D01*
X90304580Y-147171236D01*
X90043506Y-147092040D01*
X89772000Y-147065299D01*
X89500493Y-147092040D01*
X89239419Y-147171236D01*
X88998812Y-147299843D01*
X88787919Y-147472920D01*
X88614843Y-147683813D01*
X88486236Y-147924420D01*
X88407040Y-148185494D01*
X88387000Y-148388964D01*
X88387000Y-149045037D01*
X88407040Y-149248507D01*
X88486236Y-149509581D01*
X88614843Y-149750188D01*
X88787920Y-149961081D01*
X88937001Y-150083429D01*
X88937001Y-150216795D01*
X88824149Y-150251028D01*
X88670613Y-150333095D01*
X88536038Y-150443538D01*
X88519000Y-150464299D01*
X88501962Y-150443538D01*
X88367387Y-150333095D01*
X88213851Y-150251028D01*
X88047255Y-150200492D01*
X87909608Y-150186935D01*
X87842291Y-150104909D01*
X87810427Y-150078759D01*
X87721296Y-149989628D01*
X87756081Y-149961081D01*
X87929157Y-149750188D01*
X88057764Y-149509581D01*
X88136960Y-149248506D01*
X88157000Y-149045036D01*
X88157000Y-148388963D01*
X88136960Y-148185493D01*
X88057764Y-147924419D01*
X87929157Y-147683812D01*
X87756080Y-147472919D01*
X87545187Y-147299843D01*
X87304580Y-147171236D01*
X87043506Y-147092040D01*
X86772000Y-147065299D01*
X86500493Y-147092040D01*
X86239419Y-147171236D01*
X85998812Y-147299843D01*
X85787919Y-147472920D01*
X85614843Y-147683813D01*
X85486236Y-147924420D01*
X85407040Y-148185494D01*
X85387000Y-148388964D01*
X85387000Y-149045037D01*
X85407040Y-149248507D01*
X85486236Y-149509581D01*
X85614843Y-149750188D01*
X85787920Y-149961081D01*
X85937001Y-150083429D01*
X85937001Y-150180172D01*
X85932960Y-150221200D01*
X85949082Y-150384888D01*
X85974744Y-150469485D01*
X85885595Y-150578113D01*
X85803528Y-150731649D01*
X85752992Y-150898245D01*
X85735928Y-151071499D01*
X85735928Y-151642673D01*
X85665337Y-151537026D01*
X85521174Y-151392863D01*
X85351656Y-151279595D01*
X85163298Y-151201574D01*
X84963339Y-151161800D01*
X84860128Y-151161800D01*
X84792489Y-151141282D01*
X84669819Y-151129200D01*
X84669818Y-151129200D01*
X84628800Y-151125160D01*
X84587782Y-151129200D01*
X84092713Y-151129200D01*
X84006162Y-151023738D01*
X83871587Y-150913295D01*
X83718051Y-150831228D01*
X83551455Y-150780692D01*
X83550606Y-150780608D01*
X83528372Y-150707313D01*
X83450836Y-150562254D01*
X83372639Y-150466970D01*
X83372637Y-150466968D01*
X83346491Y-150435109D01*
X83314633Y-150408964D01*
X83086920Y-150181251D01*
X83239420Y-150262764D01*
X83500494Y-150341960D01*
X83772000Y-150368701D01*
X84043507Y-150341960D01*
X84304581Y-150262764D01*
X84545188Y-150134157D01*
X84756081Y-149961081D01*
X84929157Y-149750188D01*
X85057764Y-149509581D01*
X85136960Y-149248506D01*
X85157000Y-149045036D01*
X85157000Y-148388963D01*
X85136960Y-148185493D01*
X85057764Y-147924419D01*
X84929157Y-147683812D01*
X84756080Y-147472919D01*
X84545187Y-147299843D01*
X84304580Y-147171236D01*
X84043506Y-147092040D01*
X83772000Y-147065299D01*
X83500493Y-147092040D01*
X83239419Y-147171236D01*
X82998812Y-147299843D01*
X82787919Y-147472920D01*
X82614843Y-147683813D01*
X82486236Y-147924420D01*
X82407040Y-148185494D01*
X82387000Y-148388964D01*
X82387000Y-149045037D01*
X82407040Y-149248507D01*
X82486236Y-149509581D01*
X82567748Y-149662080D01*
X82160072Y-149254404D01*
X82160072Y-147957000D01*
X82143008Y-147783746D01*
X82092472Y-147617150D01*
X82010405Y-147463614D01*
X81899962Y-147329038D01*
X81765386Y-147218595D01*
X81611850Y-147136528D01*
X81445254Y-147085992D01*
X81272000Y-147068928D01*
X80272000Y-147068928D01*
X80098746Y-147085992D01*
X79932150Y-147136528D01*
X79778614Y-147218595D01*
X79644038Y-147329038D01*
X79533595Y-147463614D01*
X79451528Y-147617150D01*
X79400992Y-147783746D01*
X79383928Y-147957000D01*
X79383928Y-149477000D01*
X79400992Y-149650254D01*
X79451528Y-149816850D01*
X79533595Y-149970386D01*
X79644038Y-150104962D01*
X79778614Y-150215405D01*
X79932150Y-150297472D01*
X80098746Y-150348008D01*
X80272000Y-150365072D01*
X80909004Y-150365072D01*
X81340201Y-150796269D01*
X81306580Y-150778298D01*
X81186882Y-150741988D01*
X81062400Y-150729728D01*
X80448150Y-150732800D01*
X80289400Y-150891550D01*
X80289400Y-151815800D01*
X80309400Y-151815800D01*
X80309400Y-152069800D01*
X80289400Y-152069800D01*
X80289400Y-152994050D01*
X80448150Y-153152800D01*
X81062400Y-153155872D01*
X81186882Y-153143612D01*
X81306580Y-153107302D01*
X81416894Y-153048337D01*
X81513585Y-152968985D01*
X81539757Y-152937094D01*
X81634813Y-153015105D01*
X81788349Y-153097172D01*
X81954945Y-153147708D01*
X82128199Y-153164772D01*
X83378201Y-153164772D01*
X83551455Y-153147708D01*
X83718051Y-153097172D01*
X83871587Y-153015105D01*
X84006162Y-152904662D01*
X84052151Y-152848624D01*
X84057463Y-152856574D01*
X84201626Y-153000737D01*
X84371144Y-153114005D01*
X84559502Y-153192026D01*
X84648753Y-153209779D01*
X83953233Y-153905300D01*
X83871587Y-153838295D01*
X83718051Y-153756228D01*
X83551455Y-153705692D01*
X83378201Y-153688628D01*
X82128199Y-153688628D01*
X81954945Y-153705692D01*
X81788349Y-153756228D01*
X81634813Y-153838295D01*
X81500238Y-153948738D01*
X81473952Y-153980768D01*
X81440362Y-153939838D01*
X81305787Y-153829395D01*
X81152251Y-153747328D01*
X80985655Y-153696792D01*
X80812401Y-153679728D01*
X79821396Y-153679728D01*
X79297365Y-153155697D01*
X79876650Y-153152800D01*
X80035400Y-152994050D01*
X80035400Y-152069800D01*
X80015400Y-152069800D01*
X80015400Y-151815800D01*
X80035400Y-151815800D01*
X80035400Y-150891550D01*
X79876650Y-150732800D01*
X79262400Y-150729728D01*
X79137918Y-150741988D01*
X79018220Y-150778298D01*
X78907906Y-150837263D01*
X78811215Y-150916615D01*
X78731863Y-151013306D01*
X78672898Y-151123620D01*
X78638882Y-151235755D01*
X78638012Y-151226918D01*
X78601702Y-151107220D01*
X78542737Y-150996906D01*
X78463385Y-150900215D01*
X78366694Y-150820863D01*
X78297200Y-150783717D01*
X78297200Y-147407269D01*
X78301481Y-147363800D01*
X78297200Y-147320331D01*
X78297200Y-147320323D01*
X78284395Y-147190310D01*
X78261453Y-147114682D01*
X78233789Y-147023486D01*
X78151611Y-146869741D01*
X78068732Y-146768753D01*
X78068730Y-146768751D01*
X78041017Y-146734983D01*
X78007250Y-146707271D01*
X76736934Y-145436956D01*
X76709217Y-145403183D01*
X76574459Y-145292589D01*
X76420713Y-145210411D01*
X76253890Y-145159805D01*
X76123877Y-145147000D01*
X76123869Y-145147000D01*
X76080400Y-145142719D01*
X76036931Y-145147000D01*
X75956072Y-145147000D01*
X75956072Y-144782000D01*
X75943812Y-144657518D01*
X75907502Y-144537820D01*
X75848537Y-144427506D01*
X75769185Y-144330815D01*
X75672494Y-144251463D01*
X75562180Y-144192498D01*
X75543136Y-144186721D01*
X80787000Y-144186721D01*
X80787000Y-144607279D01*
X80869047Y-145019756D01*
X81029988Y-145408302D01*
X81263637Y-145757983D01*
X81561017Y-146055363D01*
X81910698Y-146289012D01*
X82299244Y-146449953D01*
X82711721Y-146532000D01*
X83132279Y-146532000D01*
X83544756Y-146449953D01*
X83933302Y-146289012D01*
X84282983Y-146055363D01*
X84580363Y-145757983D01*
X84814012Y-145408302D01*
X84974953Y-145019756D01*
X85057000Y-144607279D01*
X85057000Y-144186721D01*
X84974953Y-143774244D01*
X84814012Y-143385698D01*
X84580363Y-143036017D01*
X84282983Y-142738637D01*
X83933302Y-142504988D01*
X83544756Y-142344047D01*
X83132279Y-142262000D01*
X82711721Y-142262000D01*
X82299244Y-142344047D01*
X81910698Y-142504988D01*
X81561017Y-142738637D01*
X81263637Y-143036017D01*
X81029988Y-143385698D01*
X80869047Y-143774244D01*
X80787000Y-144186721D01*
X75543136Y-144186721D01*
X75442482Y-144156188D01*
X75318000Y-144143928D01*
X73018000Y-144143928D01*
X72893518Y-144156188D01*
X72773820Y-144192498D01*
X72663506Y-144251463D01*
X72566815Y-144330815D01*
X72487463Y-144427506D01*
X72428498Y-144537820D01*
X72392188Y-144657518D01*
X72379928Y-144782000D01*
X72379928Y-145197000D01*
X72017207Y-145197000D01*
X71976199Y-145192961D01*
X71935191Y-145197000D01*
X71935181Y-145197000D01*
X71812511Y-145209082D01*
X71655113Y-145256828D01*
X71510054Y-145334364D01*
X71382909Y-145438709D01*
X71356759Y-145470573D01*
X69080074Y-147747259D01*
X69048210Y-147773409D01*
X69022062Y-147805271D01*
X68959561Y-147881428D01*
X68391500Y-147881428D01*
X68267018Y-147893688D01*
X68147320Y-147929998D01*
X68037006Y-147988963D01*
X67940315Y-148068315D01*
X67860963Y-148165006D01*
X67801998Y-148275320D01*
X67765688Y-148395018D01*
X67753428Y-148519500D01*
X67753428Y-150819500D01*
X67765688Y-150943982D01*
X67801998Y-151063680D01*
X67860963Y-151173994D01*
X67940315Y-151270685D01*
X68037006Y-151350037D01*
X68147320Y-151409002D01*
X68267018Y-151445312D01*
X68391500Y-151457572D01*
X70891500Y-151457572D01*
X71015982Y-151445312D01*
X71135680Y-151409002D01*
X71245994Y-151350037D01*
X71342685Y-151270685D01*
X71422037Y-151173994D01*
X71481002Y-151063680D01*
X71517312Y-150943982D01*
X71528956Y-150825751D01*
X71535038Y-150833162D01*
X71669613Y-150943605D01*
X71736198Y-150979195D01*
X71721663Y-150996906D01*
X71662698Y-151107220D01*
X71626388Y-151226918D01*
X71614128Y-151351400D01*
X71614128Y-153551400D01*
X71626388Y-153675882D01*
X71662698Y-153795580D01*
X71721663Y-153905894D01*
X71801015Y-154002585D01*
X71897706Y-154081937D01*
X72008020Y-154140902D01*
X72127718Y-154177212D01*
X72252200Y-154189472D01*
X73452200Y-154189472D01*
X73576682Y-154177212D01*
X73696380Y-154140902D01*
X73806694Y-154081937D01*
X73903385Y-154002585D01*
X73982737Y-153905894D01*
X73992200Y-153888190D01*
X74001663Y-153905894D01*
X74081015Y-154002585D01*
X74177706Y-154081937D01*
X74288020Y-154140902D01*
X74407718Y-154177212D01*
X74532200Y-154189472D01*
X74846450Y-154186400D01*
X75005200Y-154027650D01*
X75005200Y-152578400D01*
X74985200Y-152578400D01*
X74985200Y-152324400D01*
X75005200Y-152324400D01*
X75005200Y-152304400D01*
X75259200Y-152304400D01*
X75259200Y-152324400D01*
X75279200Y-152324400D01*
X75279200Y-152578400D01*
X75259200Y-152578400D01*
X75259200Y-154027650D01*
X75417950Y-154186400D01*
X75732200Y-154189472D01*
X75856682Y-154177212D01*
X75976380Y-154140902D01*
X76086694Y-154081937D01*
X76183385Y-154002585D01*
X76262737Y-153905894D01*
X76272200Y-153888190D01*
X76281663Y-153905894D01*
X76361015Y-154002585D01*
X76457706Y-154081937D01*
X76568020Y-154140902D01*
X76687718Y-154177212D01*
X76812200Y-154189472D01*
X77969405Y-154189472D01*
X78624328Y-154844396D01*
X78624328Y-155217801D01*
X78638632Y-155363030D01*
X78621702Y-155307220D01*
X78562737Y-155196906D01*
X78483385Y-155100215D01*
X78386694Y-155020863D01*
X78276380Y-154961898D01*
X78156682Y-154925588D01*
X78032200Y-154913328D01*
X75417950Y-154916400D01*
X75259200Y-155075150D01*
X75259200Y-158624400D01*
X78508450Y-158624400D01*
X78667200Y-158465650D01*
X78668320Y-157403026D01*
X78691928Y-157480851D01*
X78773995Y-157634387D01*
X78884438Y-157768962D01*
X79019013Y-157879405D01*
X79172549Y-157961472D01*
X79339145Y-158012008D01*
X79512399Y-158029072D01*
X80812401Y-158029072D01*
X80985655Y-158012008D01*
X81152251Y-157961472D01*
X81305787Y-157879405D01*
X81440362Y-157768962D01*
X81525505Y-157665216D01*
X81585426Y-157725137D01*
X81754944Y-157838405D01*
X81943302Y-157916426D01*
X82143261Y-157956200D01*
X82347139Y-157956200D01*
X82547098Y-157916426D01*
X82735456Y-157838405D01*
X82904974Y-157725137D01*
X83049137Y-157580974D01*
X83162405Y-157411456D01*
X83240426Y-157223098D01*
X83269293Y-157077974D01*
X83314621Y-157032646D01*
X83346491Y-157006491D01*
X83450836Y-156879346D01*
X83528372Y-156734287D01*
X83576118Y-156576889D01*
X83588200Y-156454219D01*
X83588200Y-156454209D01*
X83592239Y-156413201D01*
X83588200Y-156372193D01*
X83588200Y-156061562D01*
X83718051Y-156022172D01*
X83871587Y-155940105D01*
X84006162Y-155829662D01*
X84092713Y-155724200D01*
X84109182Y-155724200D01*
X84150200Y-155728240D01*
X84191218Y-155724200D01*
X84191219Y-155724200D01*
X84313889Y-155712118D01*
X84471287Y-155664372D01*
X84616346Y-155586836D01*
X84743491Y-155482491D01*
X84769646Y-155450621D01*
X85735928Y-154484340D01*
X85735928Y-154621501D01*
X85752992Y-154794755D01*
X85803528Y-154961351D01*
X85885595Y-155114887D01*
X85996038Y-155249462D01*
X86130613Y-155359905D01*
X86284149Y-155441972D01*
X86450745Y-155492508D01*
X86500615Y-155497420D01*
X86543454Y-155638646D01*
X86614026Y-155770676D01*
X86675648Y-155845762D01*
X86709000Y-155886401D01*
X86737998Y-155910199D01*
X87382400Y-156554602D01*
X87382400Y-156616739D01*
X87422174Y-156816698D01*
X87500195Y-157005056D01*
X87613463Y-157174574D01*
X87738344Y-157299455D01*
X87718428Y-157336714D01*
X87670682Y-157494112D01*
X87654560Y-157657800D01*
X87658601Y-157698828D01*
X87658600Y-160283732D01*
X85210600Y-162731733D01*
X85210600Y-162712061D01*
X85170826Y-162512102D01*
X85092805Y-162323744D01*
X84979537Y-162154226D01*
X84835374Y-162010063D01*
X84665856Y-161896795D01*
X84477498Y-161818774D01*
X84277539Y-161779000D01*
X84073661Y-161779000D01*
X83873702Y-161818774D01*
X83685344Y-161896795D01*
X83515826Y-162010063D01*
X83371663Y-162154226D01*
X83308464Y-162248810D01*
X82759228Y-162248810D01*
X82718210Y-162244770D01*
X82677192Y-162248810D01*
X78593250Y-162248810D01*
X78621702Y-162195580D01*
X78658012Y-162075882D01*
X78670272Y-161951400D01*
X78668818Y-160571729D01*
X78672898Y-160585180D01*
X78731863Y-160695494D01*
X78811215Y-160792185D01*
X78907906Y-160871537D01*
X79018220Y-160930502D01*
X79137918Y-160966812D01*
X79262400Y-160979072D01*
X79876650Y-160976000D01*
X80035400Y-160817250D01*
X80035400Y-159893000D01*
X80289400Y-159893000D01*
X80289400Y-160817250D01*
X80448150Y-160976000D01*
X81062400Y-160979072D01*
X81186882Y-160966812D01*
X81306580Y-160930502D01*
X81416894Y-160871537D01*
X81513585Y-160792185D01*
X81592937Y-160695494D01*
X81651902Y-160585180D01*
X81688212Y-160465482D01*
X81700472Y-160341000D01*
X81697400Y-160051750D01*
X81538650Y-159893000D01*
X80289400Y-159893000D01*
X80035400Y-159893000D01*
X80015400Y-159893000D01*
X80015400Y-159639000D01*
X80035400Y-159639000D01*
X80035400Y-158714750D01*
X80289400Y-158714750D01*
X80289400Y-159639000D01*
X81538650Y-159639000D01*
X81697400Y-159480250D01*
X81700472Y-159191000D01*
X81688212Y-159066518D01*
X81651902Y-158946820D01*
X81592937Y-158836506D01*
X81513585Y-158739815D01*
X81416894Y-158660463D01*
X81306580Y-158601498D01*
X81186882Y-158565188D01*
X81062400Y-158552928D01*
X80448150Y-158556000D01*
X80289400Y-158714750D01*
X80035400Y-158714750D01*
X79876650Y-158556000D01*
X79262400Y-158552928D01*
X79137918Y-158565188D01*
X79018220Y-158601498D01*
X78907906Y-158660463D01*
X78811215Y-158739815D01*
X78731863Y-158836506D01*
X78672898Y-158946820D01*
X78650548Y-159020498D01*
X78508450Y-158878400D01*
X75259200Y-158878400D01*
X75259200Y-158898400D01*
X75005200Y-158898400D01*
X75005200Y-158878400D01*
X74985200Y-158878400D01*
X74985200Y-158624400D01*
X75005200Y-158624400D01*
X75005200Y-155075150D01*
X74846450Y-154916400D01*
X72232200Y-154913328D01*
X72107718Y-154925588D01*
X71988020Y-154961898D01*
X71877706Y-155020863D01*
X71781015Y-155100215D01*
X71701663Y-155196906D01*
X71642698Y-155307220D01*
X71606388Y-155426918D01*
X71594128Y-155551400D01*
X71595108Y-156481003D01*
X71587318Y-156401911D01*
X71539572Y-156244513D01*
X71462036Y-156099454D01*
X71456012Y-156092114D01*
X71357691Y-155972309D01*
X71325827Y-155946159D01*
X69097846Y-153718179D01*
X69071691Y-153686309D01*
X68944546Y-153581964D01*
X68799487Y-153504428D01*
X68642089Y-153456682D01*
X68519419Y-153444600D01*
X68519418Y-153444600D01*
X68478400Y-153440560D01*
X68437382Y-153444600D01*
X66106407Y-153444600D01*
X66065399Y-153440561D01*
X66024391Y-153444600D01*
X66024381Y-153444600D01*
X65901711Y-153456682D01*
X65744313Y-153504428D01*
X65669039Y-153544663D01*
X65613999Y-153521865D01*
X65265277Y-153452500D01*
X64909723Y-153452500D01*
X64561001Y-153521865D01*
X64232512Y-153657929D01*
X64160000Y-153706380D01*
X64160000Y-151457354D01*
X65055750Y-151454500D01*
X65214500Y-151295750D01*
X65214500Y-149796500D01*
X65468500Y-149796500D01*
X65468500Y-151295750D01*
X65627250Y-151454500D01*
X66591500Y-151457572D01*
X66715982Y-151445312D01*
X66835680Y-151409002D01*
X66945994Y-151350037D01*
X67042685Y-151270685D01*
X67122037Y-151173994D01*
X67181002Y-151063680D01*
X67217312Y-150943982D01*
X67229572Y-150819500D01*
X67226500Y-149955250D01*
X67067750Y-149796500D01*
X65468500Y-149796500D01*
X65214500Y-149796500D01*
X65194500Y-149796500D01*
X65194500Y-149542500D01*
X65214500Y-149542500D01*
X65214500Y-148043250D01*
X65468500Y-148043250D01*
X65468500Y-149542500D01*
X67067750Y-149542500D01*
X67226500Y-149383750D01*
X67229572Y-148519500D01*
X67217312Y-148395018D01*
X67181002Y-148275320D01*
X67122037Y-148165006D01*
X67042685Y-148068315D01*
X66945994Y-147988963D01*
X66835680Y-147929998D01*
X66715982Y-147893688D01*
X66591500Y-147881428D01*
X65627250Y-147884500D01*
X65468500Y-148043250D01*
X65214500Y-148043250D01*
X65055750Y-147884500D01*
X64160000Y-147881646D01*
X64160000Y-143289872D01*
X65075000Y-143289872D01*
X65075000Y-143730128D01*
X65160890Y-144161925D01*
X65329369Y-144568669D01*
X65573962Y-144934729D01*
X65885271Y-145246038D01*
X66251331Y-145490631D01*
X66658075Y-145659110D01*
X67089872Y-145745000D01*
X67530128Y-145745000D01*
X67961925Y-145659110D01*
X68368669Y-145490631D01*
X68734729Y-145246038D01*
X69046038Y-144934729D01*
X69290631Y-144568669D01*
X69459110Y-144161925D01*
X69545000Y-143730128D01*
X69545000Y-143289872D01*
X69459110Y-142858075D01*
X69290631Y-142451331D01*
X69046038Y-142085271D01*
X68734729Y-141773962D01*
X68368669Y-141529369D01*
X67961925Y-141360890D01*
X67530128Y-141275000D01*
X67089872Y-141275000D01*
X66658075Y-141360890D01*
X66251331Y-141529369D01*
X65885271Y-141773962D01*
X65573962Y-142085271D01*
X65329369Y-142451331D01*
X65160890Y-142858075D01*
X65075000Y-143289872D01*
X64160000Y-143289872D01*
X64160000Y-140423368D01*
X70178725Y-140422164D01*
X70087463Y-140513426D01*
X69974195Y-140682944D01*
X69896174Y-140871302D01*
X69856400Y-141071261D01*
X69856400Y-141275139D01*
X69896174Y-141475098D01*
X69974195Y-141663456D01*
X70087463Y-141832974D01*
X70231626Y-141977137D01*
X70401144Y-142090405D01*
X70589502Y-142168426D01*
X70734625Y-142197292D01*
X70830758Y-142293426D01*
X70856909Y-142325291D01*
X70984054Y-142429636D01*
X71129113Y-142507172D01*
X71286511Y-142554918D01*
X71409181Y-142567000D01*
X71409182Y-142567000D01*
X71450200Y-142571040D01*
X71491218Y-142567000D01*
X72379928Y-142567000D01*
X72379928Y-142982000D01*
X72392188Y-143106482D01*
X72428498Y-143226180D01*
X72487463Y-143336494D01*
X72566815Y-143433185D01*
X72663506Y-143512537D01*
X72773820Y-143571502D01*
X72893518Y-143607812D01*
X73018000Y-143620072D01*
X75318000Y-143620072D01*
X75442482Y-143607812D01*
X75562180Y-143571502D01*
X75672494Y-143512537D01*
X75769185Y-143433185D01*
X75848537Y-143336494D01*
X75907502Y-143226180D01*
X75943812Y-143106482D01*
X75956072Y-142982000D01*
X75956072Y-140482000D01*
X75950065Y-140421010D01*
X101336446Y-140415932D01*
X101339000Y-141217650D01*
X101497750Y-141376400D01*
X102997000Y-141376400D01*
X102997000Y-141356400D01*
X103251000Y-141356400D01*
X103251000Y-141376400D01*
X104750250Y-141376400D01*
X104909000Y-141217650D01*
X104911556Y-140415217D01*
X126340001Y-140410932D01*
X126340001Y-158167332D01*
G04 #@! TA.AperFunction,Conductor*
D26*
G36*
X126340001Y-158167332D02*
G01*
X126298363Y-158105017D01*
X126000983Y-157807637D01*
X125651302Y-157573988D01*
X125262756Y-157413047D01*
X124850279Y-157331000D01*
X124429721Y-157331000D01*
X124017244Y-157413047D01*
X123628698Y-157573988D01*
X123279017Y-157807637D01*
X122981637Y-158105017D01*
X122747988Y-158454698D01*
X122587047Y-158843244D01*
X122505000Y-159255721D01*
X122505000Y-159676279D01*
X122587047Y-160088756D01*
X122747988Y-160477302D01*
X122981637Y-160826983D01*
X123279017Y-161124363D01*
X123628698Y-161358012D01*
X124017244Y-161518953D01*
X124429721Y-161601000D01*
X124850279Y-161601000D01*
X125262756Y-161518953D01*
X125651302Y-161358012D01*
X126000983Y-161124363D01*
X126298363Y-160826983D01*
X126340000Y-160764668D01*
X126340000Y-177140000D01*
X107742796Y-177140000D01*
X107796185Y-177096185D01*
X107875537Y-176999494D01*
X107934502Y-176889180D01*
X107970812Y-176769482D01*
X107983072Y-176645000D01*
X107983072Y-175145000D01*
X107970812Y-175020518D01*
X107934502Y-174900820D01*
X107875537Y-174790506D01*
X107796185Y-174693815D01*
X107699494Y-174614463D01*
X107589180Y-174555498D01*
X107469482Y-174519188D01*
X107345000Y-174506928D01*
X104968591Y-174506928D01*
X104932026Y-174323102D01*
X104915445Y-174283072D01*
X107345000Y-174283072D01*
X107469482Y-174270812D01*
X107589180Y-174234502D01*
X107699494Y-174175537D01*
X107796185Y-174096185D01*
X107875537Y-173999494D01*
X107934502Y-173889180D01*
X107970812Y-173769482D01*
X107983072Y-173645000D01*
X107983072Y-172145000D01*
X107979349Y-172107200D01*
X108061333Y-172107200D01*
X108732928Y-172778795D01*
X108732928Y-175236000D01*
X108745188Y-175360482D01*
X108781498Y-175480180D01*
X108840463Y-175590494D01*
X108919815Y-175687185D01*
X109016506Y-175766537D01*
X109126820Y-175825502D01*
X109246518Y-175861812D01*
X109371000Y-175874072D01*
X112371000Y-175874072D01*
X112495482Y-175861812D01*
X112615180Y-175825502D01*
X112725494Y-175766537D01*
X112822185Y-175687185D01*
X112901537Y-175590494D01*
X112960502Y-175480180D01*
X112996812Y-175360482D01*
X113009072Y-175236000D01*
X113009072Y-173525721D01*
X113816000Y-173525721D01*
X113816000Y-173946279D01*
X113898047Y-174358756D01*
X114058988Y-174747302D01*
X114292637Y-175096983D01*
X114590017Y-175394363D01*
X114939698Y-175628012D01*
X115328244Y-175788953D01*
X115740721Y-175871000D01*
X116161279Y-175871000D01*
X116573756Y-175788953D01*
X116962302Y-175628012D01*
X117311983Y-175394363D01*
X117609363Y-175096983D01*
X117843012Y-174747302D01*
X118003953Y-174358756D01*
X118086000Y-173946279D01*
X118086000Y-173769872D01*
X120955000Y-173769872D01*
X120955000Y-174210128D01*
X121040890Y-174641925D01*
X121209369Y-175048669D01*
X121453962Y-175414729D01*
X121765271Y-175726038D01*
X122131331Y-175970631D01*
X122538075Y-176139110D01*
X122969872Y-176225000D01*
X123410128Y-176225000D01*
X123841925Y-176139110D01*
X124248669Y-175970631D01*
X124614729Y-175726038D01*
X124926038Y-175414729D01*
X125170631Y-175048669D01*
X125339110Y-174641925D01*
X125425000Y-174210128D01*
X125425000Y-173769872D01*
X125339110Y-173338075D01*
X125170631Y-172931331D01*
X124926038Y-172565271D01*
X124614729Y-172253962D01*
X124248669Y-172009369D01*
X123841925Y-171840890D01*
X123410128Y-171755000D01*
X122969872Y-171755000D01*
X122538075Y-171840890D01*
X122131331Y-172009369D01*
X121765271Y-172253962D01*
X121453962Y-172565271D01*
X121209369Y-172931331D01*
X121040890Y-173338075D01*
X120955000Y-173769872D01*
X118086000Y-173769872D01*
X118086000Y-173525721D01*
X118003953Y-173113244D01*
X117843012Y-172724698D01*
X117609363Y-172375017D01*
X117311983Y-172077637D01*
X116962302Y-171843988D01*
X116573756Y-171683047D01*
X116161279Y-171601000D01*
X115740721Y-171601000D01*
X115328244Y-171683047D01*
X114939698Y-171843988D01*
X114590017Y-172077637D01*
X114292637Y-172375017D01*
X114058988Y-172724698D01*
X113898047Y-173113244D01*
X113816000Y-173525721D01*
X113009072Y-173525721D01*
X113009072Y-172236000D01*
X112996812Y-172111518D01*
X112960502Y-171991820D01*
X112901537Y-171881506D01*
X112822185Y-171784815D01*
X112725494Y-171705463D01*
X112615180Y-171646498D01*
X112495482Y-171610188D01*
X112371000Y-171597928D01*
X109913795Y-171597928D01*
X109026646Y-170710779D01*
X109000491Y-170678909D01*
X108873346Y-170574564D01*
X108728287Y-170497028D01*
X108570889Y-170449282D01*
X108448219Y-170437200D01*
X108448218Y-170437200D01*
X108407200Y-170433160D01*
X108366182Y-170437200D01*
X107787868Y-170437200D01*
X106956200Y-169605533D01*
X106956200Y-168570018D01*
X106960240Y-168529000D01*
X106944118Y-168365312D01*
X106931282Y-168322995D01*
X106896372Y-168207913D01*
X106818836Y-168062854D01*
X106808369Y-168050100D01*
X106740639Y-167967570D01*
X106740637Y-167967568D01*
X106714491Y-167935709D01*
X106682632Y-167909563D01*
X105956105Y-167183037D01*
X105957872Y-167165101D01*
X105957872Y-166540099D01*
X105940808Y-166366845D01*
X105890272Y-166200249D01*
X105808205Y-166046713D01*
X105697762Y-165912138D01*
X105563187Y-165801695D01*
X105409651Y-165719628D01*
X105243055Y-165669092D01*
X105069801Y-165652028D01*
X103819799Y-165652028D01*
X103646545Y-165669092D01*
X103479949Y-165719628D01*
X103336401Y-165796356D01*
X103286694Y-165755563D01*
X103176380Y-165696598D01*
X103056682Y-165660288D01*
X102932200Y-165648028D01*
X102342950Y-165651100D01*
X102184200Y-165809850D01*
X102184200Y-166721600D01*
X102204200Y-166721600D01*
X102204200Y-166975600D01*
X102184200Y-166975600D01*
X102184200Y-167887350D01*
X102342950Y-168046100D01*
X102932200Y-168049172D01*
X103056682Y-168036912D01*
X103176380Y-168000602D01*
X103286694Y-167941637D01*
X103330498Y-167905688D01*
X103479949Y-167985572D01*
X103646545Y-168036108D01*
X103819799Y-168053172D01*
X104464504Y-168053172D01*
X104988360Y-168577028D01*
X103819799Y-168577028D01*
X103646545Y-168594092D01*
X103479949Y-168644628D01*
X103326413Y-168726695D01*
X103253437Y-168786585D01*
X103175587Y-168722695D01*
X103022051Y-168640628D01*
X102855455Y-168590092D01*
X102682201Y-168573028D01*
X101432199Y-168573028D01*
X101258945Y-168590092D01*
X101092349Y-168640628D01*
X100938813Y-168722695D01*
X100822863Y-168817853D01*
X100711787Y-168726695D01*
X100558251Y-168644628D01*
X100391655Y-168594092D01*
X100218401Y-168577028D01*
X99153390Y-168577028D01*
X99153390Y-168050904D01*
X99307650Y-168050100D01*
X99466400Y-167891350D01*
X99466400Y-166979600D01*
X99720400Y-166979600D01*
X99720400Y-167891350D01*
X99879150Y-168050100D01*
X100468400Y-168053172D01*
X100592882Y-168040912D01*
X100712580Y-168004602D01*
X100822894Y-167945637D01*
X100827744Y-167941657D01*
X100938020Y-168000602D01*
X101057718Y-168036912D01*
X101182200Y-168049172D01*
X101771450Y-168046100D01*
X101930200Y-167887350D01*
X101930200Y-166975600D01*
X100705950Y-166975600D01*
X100701950Y-166979600D01*
X99720400Y-166979600D01*
X99466400Y-166979600D01*
X99446400Y-166979600D01*
X99446400Y-166725600D01*
X99466400Y-166725600D01*
X99466400Y-165813850D01*
X99720400Y-165813850D01*
X99720400Y-166725600D01*
X100944650Y-166725600D01*
X100948650Y-166721600D01*
X101930200Y-166721600D01*
X101930200Y-165809850D01*
X101771450Y-165651100D01*
X101182200Y-165648028D01*
X101057718Y-165660288D01*
X100938020Y-165696598D01*
X100827706Y-165755563D01*
X100822856Y-165759543D01*
X100712580Y-165700598D01*
X100592882Y-165664288D01*
X100468400Y-165652028D01*
X99879150Y-165655100D01*
X99720400Y-165813850D01*
X99466400Y-165813850D01*
X99307650Y-165655100D01*
X99047938Y-165653746D01*
X99016026Y-165594044D01*
X98911681Y-165466899D01*
X98879811Y-165440744D01*
X98694788Y-165255721D01*
X108305000Y-165255721D01*
X108305000Y-165676279D01*
X108387047Y-166088756D01*
X108547988Y-166477302D01*
X108781637Y-166826983D01*
X109079017Y-167124363D01*
X109428698Y-167358012D01*
X109817244Y-167518953D01*
X110229721Y-167601000D01*
X110650279Y-167601000D01*
X111062756Y-167518953D01*
X111451302Y-167358012D01*
X111800983Y-167124363D01*
X112098363Y-166826983D01*
X112332012Y-166477302D01*
X112492953Y-166088756D01*
X112575000Y-165676279D01*
X112575000Y-165255721D01*
X112569953Y-165230344D01*
X120805000Y-165230344D01*
X120805000Y-165601656D01*
X120877439Y-165965834D01*
X121019534Y-166308882D01*
X121225825Y-166617618D01*
X121488382Y-166880175D01*
X121797118Y-167086466D01*
X122140166Y-167228561D01*
X122504344Y-167301000D01*
X122875656Y-167301000D01*
X123239834Y-167228561D01*
X123582882Y-167086466D01*
X123891618Y-166880175D01*
X124154175Y-166617618D01*
X124360466Y-166308882D01*
X124502561Y-165965834D01*
X124575000Y-165601656D01*
X124575000Y-165230344D01*
X124502561Y-164866166D01*
X124360466Y-164523118D01*
X124154175Y-164214382D01*
X123891618Y-163951825D01*
X123582882Y-163745534D01*
X123239834Y-163603439D01*
X122875656Y-163531000D01*
X122504344Y-163531000D01*
X122140166Y-163603439D01*
X121797118Y-163745534D01*
X121488382Y-163951825D01*
X121225825Y-164214382D01*
X121019534Y-164523118D01*
X120877439Y-164866166D01*
X120805000Y-165230344D01*
X112569953Y-165230344D01*
X112492953Y-164843244D01*
X112332012Y-164454698D01*
X112098363Y-164105017D01*
X111800983Y-163807637D01*
X111451302Y-163573988D01*
X111062756Y-163413047D01*
X110650279Y-163331000D01*
X110229721Y-163331000D01*
X109817244Y-163413047D01*
X109428698Y-163573988D01*
X109079017Y-163807637D01*
X108781637Y-164105017D01*
X108547988Y-164454698D01*
X108387047Y-164843244D01*
X108305000Y-165255721D01*
X98694788Y-165255721D01*
X98449046Y-165009979D01*
X98422891Y-164978109D01*
X98295746Y-164873764D01*
X98270872Y-164860469D01*
X98270872Y-164746400D01*
X98255729Y-164592655D01*
X98210884Y-164444818D01*
X98138058Y-164308571D01*
X98135128Y-164305000D01*
X98161921Y-164313128D01*
X98284591Y-164325210D01*
X98284592Y-164325210D01*
X98325610Y-164329250D01*
X98366628Y-164325210D01*
X106775572Y-164325210D01*
X106816590Y-164329250D01*
X106857608Y-164325210D01*
X106857609Y-164325210D01*
X106980279Y-164313128D01*
X107137677Y-164265382D01*
X107282736Y-164187846D01*
X107409881Y-164083501D01*
X107436036Y-164051631D01*
X108626068Y-162861600D01*
X113573182Y-162861600D01*
X113614200Y-162865640D01*
X113655218Y-162861600D01*
X113655219Y-162861600D01*
X113777889Y-162849518D01*
X113935287Y-162801772D01*
X114080346Y-162724236D01*
X114207491Y-162619891D01*
X114233646Y-162588021D01*
X116410828Y-160410840D01*
X116442691Y-160384691D01*
X116547036Y-160257546D01*
X116624572Y-160112487D01*
X116672318Y-159955089D01*
X116679599Y-159881164D01*
X116688440Y-159791401D01*
X116684400Y-159750382D01*
X116684400Y-153230344D01*
X120805000Y-153230344D01*
X120805000Y-153601656D01*
X120877439Y-153965834D01*
X121019534Y-154308882D01*
X121225825Y-154617618D01*
X121488382Y-154880175D01*
X121797118Y-155086466D01*
X122140166Y-155228561D01*
X122504344Y-155301000D01*
X122875656Y-155301000D01*
X123239834Y-155228561D01*
X123582882Y-155086466D01*
X123891618Y-154880175D01*
X124154175Y-154617618D01*
X124360466Y-154308882D01*
X124502561Y-153965834D01*
X124575000Y-153601656D01*
X124575000Y-153230344D01*
X124502561Y-152866166D01*
X124360466Y-152523118D01*
X124154175Y-152214382D01*
X123891618Y-151951825D01*
X123582882Y-151745534D01*
X123239834Y-151603439D01*
X122875656Y-151531000D01*
X122504344Y-151531000D01*
X122140166Y-151603439D01*
X121797118Y-151745534D01*
X121488382Y-151951825D01*
X121225825Y-152214382D01*
X121019534Y-152523118D01*
X120877439Y-152866166D01*
X120805000Y-153230344D01*
X116684400Y-153230344D01*
X116684400Y-147167261D01*
X117684600Y-147167261D01*
X117684600Y-147371139D01*
X117724374Y-147571098D01*
X117802395Y-147759456D01*
X117884600Y-147882485D01*
X117884601Y-150542114D01*
X117802395Y-150665144D01*
X117724374Y-150853502D01*
X117684600Y-151053461D01*
X117684600Y-151257339D01*
X117724374Y-151457298D01*
X117802395Y-151645656D01*
X117915663Y-151815174D01*
X118059826Y-151959337D01*
X118229344Y-152072605D01*
X118417702Y-152150626D01*
X118617661Y-152190400D01*
X118821539Y-152190400D01*
X119021498Y-152150626D01*
X119209856Y-152072605D01*
X119379374Y-151959337D01*
X119523537Y-151815174D01*
X119636805Y-151645656D01*
X119714826Y-151457298D01*
X119754600Y-151257339D01*
X119754600Y-151053461D01*
X119714826Y-150853502D01*
X119636805Y-150665144D01*
X119554600Y-150542115D01*
X119554600Y-147882485D01*
X119636805Y-147759456D01*
X119714826Y-147571098D01*
X119754600Y-147371139D01*
X119754600Y-147167261D01*
X119714826Y-146967302D01*
X119636805Y-146778944D01*
X119523537Y-146609426D01*
X119379374Y-146465263D01*
X119209856Y-146351995D01*
X119021498Y-146273974D01*
X118821539Y-146234200D01*
X118617661Y-146234200D01*
X118417702Y-146273974D01*
X118229344Y-146351995D01*
X118059826Y-146465263D01*
X117915663Y-146609426D01*
X117802395Y-146778944D01*
X117724374Y-146967302D01*
X117684600Y-147167261D01*
X116684400Y-147167261D01*
X116684400Y-144363807D01*
X116688439Y-144322799D01*
X116684400Y-144281791D01*
X116684400Y-144281781D01*
X116672318Y-144159111D01*
X116624572Y-144001713D01*
X116547036Y-143856654D01*
X116442691Y-143729509D01*
X116410827Y-143703359D01*
X115997340Y-143289872D01*
X120955000Y-143289872D01*
X120955000Y-143730128D01*
X121040890Y-144161925D01*
X121209369Y-144568669D01*
X121453962Y-144934729D01*
X121765271Y-145246038D01*
X122131331Y-145490631D01*
X122538075Y-145659110D01*
X122969872Y-145745000D01*
X123410128Y-145745000D01*
X123841925Y-145659110D01*
X124248669Y-145490631D01*
X124614729Y-145246038D01*
X124926038Y-144934729D01*
X125170631Y-144568669D01*
X125339110Y-144161925D01*
X125425000Y-143730128D01*
X125425000Y-143289872D01*
X125339110Y-142858075D01*
X125170631Y-142451331D01*
X124926038Y-142085271D01*
X124614729Y-141773962D01*
X124248669Y-141529369D01*
X123841925Y-141360890D01*
X123410128Y-141275000D01*
X122969872Y-141275000D01*
X122538075Y-141360890D01*
X122131331Y-141529369D01*
X121765271Y-141773962D01*
X121453962Y-142085271D01*
X121209369Y-142451331D01*
X121040890Y-142858075D01*
X120955000Y-143289872D01*
X115997340Y-143289872D01*
X114030446Y-141322979D01*
X114004291Y-141291109D01*
X113877146Y-141186764D01*
X113732087Y-141109228D01*
X113574689Y-141061482D01*
X113452019Y-141049400D01*
X113452018Y-141049400D01*
X113411000Y-141045360D01*
X113369982Y-141049400D01*
X108194218Y-141049400D01*
X108153200Y-141045360D01*
X108112182Y-141049400D01*
X108112181Y-141049400D01*
X107989511Y-141061482D01*
X107832113Y-141109228D01*
X107687054Y-141186764D01*
X107559909Y-141291109D01*
X107533763Y-141322968D01*
X106003933Y-142852800D01*
X104902282Y-142852800D01*
X104912072Y-142753400D01*
X104909000Y-141789150D01*
X104750250Y-141630400D01*
X103251000Y-141630400D01*
X103251000Y-141650400D01*
X102997000Y-141650400D01*
X102997000Y-141630400D01*
X101497750Y-141630400D01*
X101339000Y-141789150D01*
X101335928Y-142753400D01*
X101345718Y-142852800D01*
X98008869Y-142852800D01*
X96377446Y-141221379D01*
X96351291Y-141189509D01*
X96224146Y-141085164D01*
X96104549Y-141021238D01*
X96062174Y-140978863D01*
X95892656Y-140865595D01*
X95704298Y-140787574D01*
X95504339Y-140747800D01*
X95300461Y-140747800D01*
X95100502Y-140787574D01*
X94912144Y-140865595D01*
X94742626Y-140978863D01*
X94598463Y-141123026D01*
X94485195Y-141292544D01*
X94407174Y-141480902D01*
X94367400Y-141680861D01*
X94367400Y-141884739D01*
X94407174Y-142084698D01*
X94485195Y-142273056D01*
X94598463Y-142442574D01*
X94716404Y-142560515D01*
X94633302Y-142504988D01*
X94244756Y-142344047D01*
X93832279Y-142262000D01*
X93411721Y-142262000D01*
X92999244Y-142344047D01*
X92610698Y-142504988D01*
X92261017Y-142738637D01*
X91963637Y-143036017D01*
X91729988Y-143385698D01*
X91569047Y-143774244D01*
X91487000Y-144186721D01*
X91487000Y-144607279D01*
X91569047Y-145019756D01*
X91729988Y-145408302D01*
X91963637Y-145757983D01*
X92261017Y-146055363D01*
X92610698Y-146289012D01*
X92999244Y-146449953D01*
X93411721Y-146532000D01*
X93832279Y-146532000D01*
X93843330Y-146529802D01*
X93225795Y-147147337D01*
X93043506Y-147092040D01*
X92772000Y-147065299D01*
X92500493Y-147092040D01*
X92239419Y-147171236D01*
X91998812Y-147299843D01*
X91787919Y-147472920D01*
X91614843Y-147683813D01*
X91486236Y-147924420D01*
X91407040Y-148185494D01*
X91387000Y-148388964D01*
X91387000Y-149045037D01*
X91407040Y-149248507D01*
X91486236Y-149509581D01*
X91614843Y-149750188D01*
X91787920Y-149961081D01*
X91937001Y-150083429D01*
X91937001Y-150179428D01*
X91678599Y-150179428D01*
X91505345Y-150196492D01*
X91338749Y-150247028D01*
X91185213Y-150329095D01*
X91050638Y-150439538D01*
X91044659Y-150446824D01*
X91041962Y-150443538D01*
X90907387Y-150333095D01*
X90753851Y-150251028D01*
X90607000Y-150206482D01*
X90607000Y-150083429D01*
X90756081Y-149961081D01*
X90929157Y-149750188D01*
X91057764Y-149509581D01*
X91136960Y-149248506D01*
X91157000Y-149045036D01*
X91157000Y-148388963D01*
X91136960Y-148185493D01*
X91057764Y-147924419D01*
X90929157Y-147683812D01*
X90756080Y-147472919D01*
X90545187Y-147299843D01*
X90304580Y-147171236D01*
X90043506Y-147092040D01*
X89772000Y-147065299D01*
X89500493Y-147092040D01*
X89239419Y-147171236D01*
X88998812Y-147299843D01*
X88787919Y-147472920D01*
X88614843Y-147683813D01*
X88486236Y-147924420D01*
X88407040Y-148185494D01*
X88387000Y-148388964D01*
X88387000Y-149045037D01*
X88407040Y-149248507D01*
X88486236Y-149509581D01*
X88614843Y-149750188D01*
X88787920Y-149961081D01*
X88937001Y-150083429D01*
X88937001Y-150216795D01*
X88824149Y-150251028D01*
X88670613Y-150333095D01*
X88536038Y-150443538D01*
X88519000Y-150464299D01*
X88501962Y-150443538D01*
X88367387Y-150333095D01*
X88213851Y-150251028D01*
X88047255Y-150200492D01*
X87909608Y-150186935D01*
X87842291Y-150104909D01*
X87810427Y-150078759D01*
X87721296Y-149989628D01*
X87756081Y-149961081D01*
X87929157Y-149750188D01*
X88057764Y-149509581D01*
X88136960Y-149248506D01*
X88157000Y-149045036D01*
X88157000Y-148388963D01*
X88136960Y-148185493D01*
X88057764Y-147924419D01*
X87929157Y-147683812D01*
X87756080Y-147472919D01*
X87545187Y-147299843D01*
X87304580Y-147171236D01*
X87043506Y-147092040D01*
X86772000Y-147065299D01*
X86500493Y-147092040D01*
X86239419Y-147171236D01*
X85998812Y-147299843D01*
X85787919Y-147472920D01*
X85614843Y-147683813D01*
X85486236Y-147924420D01*
X85407040Y-148185494D01*
X85387000Y-148388964D01*
X85387000Y-149045037D01*
X85407040Y-149248507D01*
X85486236Y-149509581D01*
X85614843Y-149750188D01*
X85787920Y-149961081D01*
X85937001Y-150083429D01*
X85937001Y-150180172D01*
X85932960Y-150221200D01*
X85949082Y-150384888D01*
X85974744Y-150469485D01*
X85885595Y-150578113D01*
X85803528Y-150731649D01*
X85752992Y-150898245D01*
X85735928Y-151071499D01*
X85735928Y-151642673D01*
X85665337Y-151537026D01*
X85521174Y-151392863D01*
X85351656Y-151279595D01*
X85163298Y-151201574D01*
X84963339Y-151161800D01*
X84860128Y-151161800D01*
X84792489Y-151141282D01*
X84669819Y-151129200D01*
X84669818Y-151129200D01*
X84628800Y-151125160D01*
X84587782Y-151129200D01*
X84092713Y-151129200D01*
X84006162Y-151023738D01*
X83871587Y-150913295D01*
X83718051Y-150831228D01*
X83551455Y-150780692D01*
X83550606Y-150780608D01*
X83528372Y-150707313D01*
X83450836Y-150562254D01*
X83372639Y-150466970D01*
X83372637Y-150466968D01*
X83346491Y-150435109D01*
X83314633Y-150408964D01*
X83086920Y-150181251D01*
X83239420Y-150262764D01*
X83500494Y-150341960D01*
X83772000Y-150368701D01*
X84043507Y-150341960D01*
X84304581Y-150262764D01*
X84545188Y-150134157D01*
X84756081Y-149961081D01*
X84929157Y-149750188D01*
X85057764Y-149509581D01*
X85136960Y-149248506D01*
X85157000Y-149045036D01*
X85157000Y-148388963D01*
X85136960Y-148185493D01*
X85057764Y-147924419D01*
X84929157Y-147683812D01*
X84756080Y-147472919D01*
X84545187Y-147299843D01*
X84304580Y-147171236D01*
X84043506Y-147092040D01*
X83772000Y-147065299D01*
X83500493Y-147092040D01*
X83239419Y-147171236D01*
X82998812Y-147299843D01*
X82787919Y-147472920D01*
X82614843Y-147683813D01*
X82486236Y-147924420D01*
X82407040Y-148185494D01*
X82387000Y-148388964D01*
X82387000Y-149045037D01*
X82407040Y-149248507D01*
X82486236Y-149509581D01*
X82567748Y-149662080D01*
X82160072Y-149254404D01*
X82160072Y-147957000D01*
X82143008Y-147783746D01*
X82092472Y-147617150D01*
X82010405Y-147463614D01*
X81899962Y-147329038D01*
X81765386Y-147218595D01*
X81611850Y-147136528D01*
X81445254Y-147085992D01*
X81272000Y-147068928D01*
X80272000Y-147068928D01*
X80098746Y-147085992D01*
X79932150Y-147136528D01*
X79778614Y-147218595D01*
X79644038Y-147329038D01*
X79533595Y-147463614D01*
X79451528Y-147617150D01*
X79400992Y-147783746D01*
X79383928Y-147957000D01*
X79383928Y-149477000D01*
X79400992Y-149650254D01*
X79451528Y-149816850D01*
X79533595Y-149970386D01*
X79644038Y-150104962D01*
X79778614Y-150215405D01*
X79932150Y-150297472D01*
X80098746Y-150348008D01*
X80272000Y-150365072D01*
X80909004Y-150365072D01*
X81340201Y-150796269D01*
X81306580Y-150778298D01*
X81186882Y-150741988D01*
X81062400Y-150729728D01*
X80448150Y-150732800D01*
X80289400Y-150891550D01*
X80289400Y-151815800D01*
X80309400Y-151815800D01*
X80309400Y-152069800D01*
X80289400Y-152069800D01*
X80289400Y-152994050D01*
X80448150Y-153152800D01*
X81062400Y-153155872D01*
X81186882Y-153143612D01*
X81306580Y-153107302D01*
X81416894Y-153048337D01*
X81513585Y-152968985D01*
X81539757Y-152937094D01*
X81634813Y-153015105D01*
X81788349Y-153097172D01*
X81954945Y-153147708D01*
X82128199Y-153164772D01*
X83378201Y-153164772D01*
X83551455Y-153147708D01*
X83718051Y-153097172D01*
X83871587Y-153015105D01*
X84006162Y-152904662D01*
X84052151Y-152848624D01*
X84057463Y-152856574D01*
X84201626Y-153000737D01*
X84371144Y-153114005D01*
X84559502Y-153192026D01*
X84648753Y-153209779D01*
X83953233Y-153905300D01*
X83871587Y-153838295D01*
X83718051Y-153756228D01*
X83551455Y-153705692D01*
X83378201Y-153688628D01*
X82128199Y-153688628D01*
X81954945Y-153705692D01*
X81788349Y-153756228D01*
X81634813Y-153838295D01*
X81500238Y-153948738D01*
X81473952Y-153980768D01*
X81440362Y-153939838D01*
X81305787Y-153829395D01*
X81152251Y-153747328D01*
X80985655Y-153696792D01*
X80812401Y-153679728D01*
X79821396Y-153679728D01*
X79297365Y-153155697D01*
X79876650Y-153152800D01*
X80035400Y-152994050D01*
X80035400Y-152069800D01*
X80015400Y-152069800D01*
X80015400Y-151815800D01*
X80035400Y-151815800D01*
X80035400Y-150891550D01*
X79876650Y-150732800D01*
X79262400Y-150729728D01*
X79137918Y-150741988D01*
X79018220Y-150778298D01*
X78907906Y-150837263D01*
X78811215Y-150916615D01*
X78731863Y-151013306D01*
X78672898Y-151123620D01*
X78638882Y-151235755D01*
X78638012Y-151226918D01*
X78601702Y-151107220D01*
X78542737Y-150996906D01*
X78463385Y-150900215D01*
X78366694Y-150820863D01*
X78297200Y-150783717D01*
X78297200Y-147407269D01*
X78301481Y-147363800D01*
X78297200Y-147320331D01*
X78297200Y-147320323D01*
X78284395Y-147190310D01*
X78261453Y-147114682D01*
X78233789Y-147023486D01*
X78151611Y-146869741D01*
X78068732Y-146768753D01*
X78068730Y-146768751D01*
X78041017Y-146734983D01*
X78007250Y-146707271D01*
X76736934Y-145436956D01*
X76709217Y-145403183D01*
X76574459Y-145292589D01*
X76420713Y-145210411D01*
X76253890Y-145159805D01*
X76123877Y-145147000D01*
X76123869Y-145147000D01*
X76080400Y-145142719D01*
X76036931Y-145147000D01*
X75956072Y-145147000D01*
X75956072Y-144782000D01*
X75943812Y-144657518D01*
X75907502Y-144537820D01*
X75848537Y-144427506D01*
X75769185Y-144330815D01*
X75672494Y-144251463D01*
X75562180Y-144192498D01*
X75543136Y-144186721D01*
X80787000Y-144186721D01*
X80787000Y-144607279D01*
X80869047Y-145019756D01*
X81029988Y-145408302D01*
X81263637Y-145757983D01*
X81561017Y-146055363D01*
X81910698Y-146289012D01*
X82299244Y-146449953D01*
X82711721Y-146532000D01*
X83132279Y-146532000D01*
X83544756Y-146449953D01*
X83933302Y-146289012D01*
X84282983Y-146055363D01*
X84580363Y-145757983D01*
X84814012Y-145408302D01*
X84974953Y-145019756D01*
X85057000Y-144607279D01*
X85057000Y-144186721D01*
X84974953Y-143774244D01*
X84814012Y-143385698D01*
X84580363Y-143036017D01*
X84282983Y-142738637D01*
X83933302Y-142504988D01*
X83544756Y-142344047D01*
X83132279Y-142262000D01*
X82711721Y-142262000D01*
X82299244Y-142344047D01*
X81910698Y-142504988D01*
X81561017Y-142738637D01*
X81263637Y-143036017D01*
X81029988Y-143385698D01*
X80869047Y-143774244D01*
X80787000Y-144186721D01*
X75543136Y-144186721D01*
X75442482Y-144156188D01*
X75318000Y-144143928D01*
X73018000Y-144143928D01*
X72893518Y-144156188D01*
X72773820Y-144192498D01*
X72663506Y-144251463D01*
X72566815Y-144330815D01*
X72487463Y-144427506D01*
X72428498Y-144537820D01*
X72392188Y-144657518D01*
X72379928Y-144782000D01*
X72379928Y-145197000D01*
X72017207Y-145197000D01*
X71976199Y-145192961D01*
X71935191Y-145197000D01*
X71935181Y-145197000D01*
X71812511Y-145209082D01*
X71655113Y-145256828D01*
X71510054Y-145334364D01*
X71382909Y-145438709D01*
X71356759Y-145470573D01*
X69080074Y-147747259D01*
X69048210Y-147773409D01*
X69022062Y-147805271D01*
X68959561Y-147881428D01*
X68391500Y-147881428D01*
X68267018Y-147893688D01*
X68147320Y-147929998D01*
X68037006Y-147988963D01*
X67940315Y-148068315D01*
X67860963Y-148165006D01*
X67801998Y-148275320D01*
X67765688Y-148395018D01*
X67753428Y-148519500D01*
X67753428Y-150819500D01*
X67765688Y-150943982D01*
X67801998Y-151063680D01*
X67860963Y-151173994D01*
X67940315Y-151270685D01*
X68037006Y-151350037D01*
X68147320Y-151409002D01*
X68267018Y-151445312D01*
X68391500Y-151457572D01*
X70891500Y-151457572D01*
X71015982Y-151445312D01*
X71135680Y-151409002D01*
X71245994Y-151350037D01*
X71342685Y-151270685D01*
X71422037Y-151173994D01*
X71481002Y-151063680D01*
X71517312Y-150943982D01*
X71528956Y-150825751D01*
X71535038Y-150833162D01*
X71669613Y-150943605D01*
X71736198Y-150979195D01*
X71721663Y-150996906D01*
X71662698Y-151107220D01*
X71626388Y-151226918D01*
X71614128Y-151351400D01*
X71614128Y-153551400D01*
X71626388Y-153675882D01*
X71662698Y-153795580D01*
X71721663Y-153905894D01*
X71801015Y-154002585D01*
X71897706Y-154081937D01*
X72008020Y-154140902D01*
X72127718Y-154177212D01*
X72252200Y-154189472D01*
X73452200Y-154189472D01*
X73576682Y-154177212D01*
X73696380Y-154140902D01*
X73806694Y-154081937D01*
X73903385Y-154002585D01*
X73982737Y-153905894D01*
X73992200Y-153888190D01*
X74001663Y-153905894D01*
X74081015Y-154002585D01*
X74177706Y-154081937D01*
X74288020Y-154140902D01*
X74407718Y-154177212D01*
X74532200Y-154189472D01*
X74846450Y-154186400D01*
X75005200Y-154027650D01*
X75005200Y-152578400D01*
X74985200Y-152578400D01*
X74985200Y-152324400D01*
X75005200Y-152324400D01*
X75005200Y-152304400D01*
X75259200Y-152304400D01*
X75259200Y-152324400D01*
X75279200Y-152324400D01*
X75279200Y-152578400D01*
X75259200Y-152578400D01*
X75259200Y-154027650D01*
X75417950Y-154186400D01*
X75732200Y-154189472D01*
X75856682Y-154177212D01*
X75976380Y-154140902D01*
X76086694Y-154081937D01*
X76183385Y-154002585D01*
X76262737Y-153905894D01*
X76272200Y-153888190D01*
X76281663Y-153905894D01*
X76361015Y-154002585D01*
X76457706Y-154081937D01*
X76568020Y-154140902D01*
X76687718Y-154177212D01*
X76812200Y-154189472D01*
X77969405Y-154189472D01*
X78624328Y-154844396D01*
X78624328Y-155217801D01*
X78638632Y-155363030D01*
X78621702Y-155307220D01*
X78562737Y-155196906D01*
X78483385Y-155100215D01*
X78386694Y-155020863D01*
X78276380Y-154961898D01*
X78156682Y-154925588D01*
X78032200Y-154913328D01*
X75417950Y-154916400D01*
X75259200Y-155075150D01*
X75259200Y-158624400D01*
X78508450Y-158624400D01*
X78667200Y-158465650D01*
X78668320Y-157403026D01*
X78691928Y-157480851D01*
X78773995Y-157634387D01*
X78884438Y-157768962D01*
X79019013Y-157879405D01*
X79172549Y-157961472D01*
X79339145Y-158012008D01*
X79512399Y-158029072D01*
X80812401Y-158029072D01*
X80985655Y-158012008D01*
X81152251Y-157961472D01*
X81305787Y-157879405D01*
X81440362Y-157768962D01*
X81525505Y-157665216D01*
X81585426Y-157725137D01*
X81754944Y-157838405D01*
X81943302Y-157916426D01*
X82143261Y-157956200D01*
X82347139Y-157956200D01*
X82547098Y-157916426D01*
X82735456Y-157838405D01*
X82904974Y-157725137D01*
X83049137Y-157580974D01*
X83162405Y-157411456D01*
X83240426Y-157223098D01*
X83269293Y-157077974D01*
X83314621Y-157032646D01*
X83346491Y-157006491D01*
X83450836Y-156879346D01*
X83528372Y-156734287D01*
X83576118Y-156576889D01*
X83588200Y-156454219D01*
X83588200Y-156454209D01*
X83592239Y-156413201D01*
X83588200Y-156372193D01*
X83588200Y-156061562D01*
X83718051Y-156022172D01*
X83871587Y-155940105D01*
X84006162Y-155829662D01*
X84092713Y-155724200D01*
X84109182Y-155724200D01*
X84150200Y-155728240D01*
X84191218Y-155724200D01*
X84191219Y-155724200D01*
X84313889Y-155712118D01*
X84471287Y-155664372D01*
X84616346Y-155586836D01*
X84743491Y-155482491D01*
X84769646Y-155450621D01*
X85735928Y-154484340D01*
X85735928Y-154621501D01*
X85752992Y-154794755D01*
X85803528Y-154961351D01*
X85885595Y-155114887D01*
X85996038Y-155249462D01*
X86130613Y-155359905D01*
X86284149Y-155441972D01*
X86450745Y-155492508D01*
X86500615Y-155497420D01*
X86543454Y-155638646D01*
X86614026Y-155770676D01*
X86675648Y-155845762D01*
X86709000Y-155886401D01*
X86737998Y-155910199D01*
X87382400Y-156554602D01*
X87382400Y-156616739D01*
X87422174Y-156816698D01*
X87500195Y-157005056D01*
X87613463Y-157174574D01*
X87738344Y-157299455D01*
X87718428Y-157336714D01*
X87670682Y-157494112D01*
X87654560Y-157657800D01*
X87658601Y-157698828D01*
X87658600Y-160283732D01*
X85210600Y-162731733D01*
X85210600Y-162712061D01*
X85170826Y-162512102D01*
X85092805Y-162323744D01*
X84979537Y-162154226D01*
X84835374Y-162010063D01*
X84665856Y-161896795D01*
X84477498Y-161818774D01*
X84277539Y-161779000D01*
X84073661Y-161779000D01*
X83873702Y-161818774D01*
X83685344Y-161896795D01*
X83515826Y-162010063D01*
X83371663Y-162154226D01*
X83308464Y-162248810D01*
X82759228Y-162248810D01*
X82718210Y-162244770D01*
X82677192Y-162248810D01*
X78593250Y-162248810D01*
X78621702Y-162195580D01*
X78658012Y-162075882D01*
X78670272Y-161951400D01*
X78668818Y-160571729D01*
X78672898Y-160585180D01*
X78731863Y-160695494D01*
X78811215Y-160792185D01*
X78907906Y-160871537D01*
X79018220Y-160930502D01*
X79137918Y-160966812D01*
X79262400Y-160979072D01*
X79876650Y-160976000D01*
X80035400Y-160817250D01*
X80035400Y-159893000D01*
X80289400Y-159893000D01*
X80289400Y-160817250D01*
X80448150Y-160976000D01*
X81062400Y-160979072D01*
X81186882Y-160966812D01*
X81306580Y-160930502D01*
X81416894Y-160871537D01*
X81513585Y-160792185D01*
X81592937Y-160695494D01*
X81651902Y-160585180D01*
X81688212Y-160465482D01*
X81700472Y-160341000D01*
X81697400Y-160051750D01*
X81538650Y-159893000D01*
X80289400Y-159893000D01*
X80035400Y-159893000D01*
X80015400Y-159893000D01*
X80015400Y-159639000D01*
X80035400Y-159639000D01*
X80035400Y-158714750D01*
X80289400Y-158714750D01*
X80289400Y-159639000D01*
X81538650Y-159639000D01*
X81697400Y-159480250D01*
X81700472Y-159191000D01*
X81688212Y-159066518D01*
X81651902Y-158946820D01*
X81592937Y-158836506D01*
X81513585Y-158739815D01*
X81416894Y-158660463D01*
X81306580Y-158601498D01*
X81186882Y-158565188D01*
X81062400Y-158552928D01*
X80448150Y-158556000D01*
X80289400Y-158714750D01*
X80035400Y-158714750D01*
X79876650Y-158556000D01*
X79262400Y-158552928D01*
X79137918Y-158565188D01*
X79018220Y-158601498D01*
X78907906Y-158660463D01*
X78811215Y-158739815D01*
X78731863Y-158836506D01*
X78672898Y-158946820D01*
X78650548Y-159020498D01*
X78508450Y-158878400D01*
X75259200Y-158878400D01*
X75259200Y-158898400D01*
X75005200Y-158898400D01*
X75005200Y-158878400D01*
X74985200Y-158878400D01*
X74985200Y-158624400D01*
X75005200Y-158624400D01*
X75005200Y-155075150D01*
X74846450Y-154916400D01*
X72232200Y-154913328D01*
X72107718Y-154925588D01*
X71988020Y-154961898D01*
X71877706Y-155020863D01*
X71781015Y-155100215D01*
X71701663Y-155196906D01*
X71642698Y-155307220D01*
X71606388Y-155426918D01*
X71594128Y-155551400D01*
X71595108Y-156481003D01*
X71587318Y-156401911D01*
X71539572Y-156244513D01*
X71462036Y-156099454D01*
X71456012Y-156092114D01*
X71357691Y-155972309D01*
X71325827Y-155946159D01*
X69097846Y-153718179D01*
X69071691Y-153686309D01*
X68944546Y-153581964D01*
X68799487Y-153504428D01*
X68642089Y-153456682D01*
X68519419Y-153444600D01*
X68519418Y-153444600D01*
X68478400Y-153440560D01*
X68437382Y-153444600D01*
X66106407Y-153444600D01*
X66065399Y-153440561D01*
X66024391Y-153444600D01*
X66024381Y-153444600D01*
X65901711Y-153456682D01*
X65744313Y-153504428D01*
X65669039Y-153544663D01*
X65613999Y-153521865D01*
X65265277Y-153452500D01*
X64909723Y-153452500D01*
X64561001Y-153521865D01*
X64232512Y-153657929D01*
X64160000Y-153706380D01*
X64160000Y-151457354D01*
X65055750Y-151454500D01*
X65214500Y-151295750D01*
X65214500Y-149796500D01*
X65468500Y-149796500D01*
X65468500Y-151295750D01*
X65627250Y-151454500D01*
X66591500Y-151457572D01*
X66715982Y-151445312D01*
X66835680Y-151409002D01*
X66945994Y-151350037D01*
X67042685Y-151270685D01*
X67122037Y-151173994D01*
X67181002Y-151063680D01*
X67217312Y-150943982D01*
X67229572Y-150819500D01*
X67226500Y-149955250D01*
X67067750Y-149796500D01*
X65468500Y-149796500D01*
X65214500Y-149796500D01*
X65194500Y-149796500D01*
X65194500Y-149542500D01*
X65214500Y-149542500D01*
X65214500Y-148043250D01*
X65468500Y-148043250D01*
X65468500Y-149542500D01*
X67067750Y-149542500D01*
X67226500Y-149383750D01*
X67229572Y-148519500D01*
X67217312Y-148395018D01*
X67181002Y-148275320D01*
X67122037Y-148165006D01*
X67042685Y-148068315D01*
X66945994Y-147988963D01*
X66835680Y-147929998D01*
X66715982Y-147893688D01*
X66591500Y-147881428D01*
X65627250Y-147884500D01*
X65468500Y-148043250D01*
X65214500Y-148043250D01*
X65055750Y-147884500D01*
X64160000Y-147881646D01*
X64160000Y-143289872D01*
X65075000Y-143289872D01*
X65075000Y-143730128D01*
X65160890Y-144161925D01*
X65329369Y-144568669D01*
X65573962Y-144934729D01*
X65885271Y-145246038D01*
X66251331Y-145490631D01*
X66658075Y-145659110D01*
X67089872Y-145745000D01*
X67530128Y-145745000D01*
X67961925Y-145659110D01*
X68368669Y-145490631D01*
X68734729Y-145246038D01*
X69046038Y-144934729D01*
X69290631Y-144568669D01*
X69459110Y-144161925D01*
X69545000Y-143730128D01*
X69545000Y-143289872D01*
X69459110Y-142858075D01*
X69290631Y-142451331D01*
X69046038Y-142085271D01*
X68734729Y-141773962D01*
X68368669Y-141529369D01*
X67961925Y-141360890D01*
X67530128Y-141275000D01*
X67089872Y-141275000D01*
X66658075Y-141360890D01*
X66251331Y-141529369D01*
X65885271Y-141773962D01*
X65573962Y-142085271D01*
X65329369Y-142451331D01*
X65160890Y-142858075D01*
X65075000Y-143289872D01*
X64160000Y-143289872D01*
X64160000Y-140423368D01*
X70178725Y-140422164D01*
X70087463Y-140513426D01*
X69974195Y-140682944D01*
X69896174Y-140871302D01*
X69856400Y-141071261D01*
X69856400Y-141275139D01*
X69896174Y-141475098D01*
X69974195Y-141663456D01*
X70087463Y-141832974D01*
X70231626Y-141977137D01*
X70401144Y-142090405D01*
X70589502Y-142168426D01*
X70734625Y-142197292D01*
X70830758Y-142293426D01*
X70856909Y-142325291D01*
X70984054Y-142429636D01*
X71129113Y-142507172D01*
X71286511Y-142554918D01*
X71409181Y-142567000D01*
X71409182Y-142567000D01*
X71450200Y-142571040D01*
X71491218Y-142567000D01*
X72379928Y-142567000D01*
X72379928Y-142982000D01*
X72392188Y-143106482D01*
X72428498Y-143226180D01*
X72487463Y-143336494D01*
X72566815Y-143433185D01*
X72663506Y-143512537D01*
X72773820Y-143571502D01*
X72893518Y-143607812D01*
X73018000Y-143620072D01*
X75318000Y-143620072D01*
X75442482Y-143607812D01*
X75562180Y-143571502D01*
X75672494Y-143512537D01*
X75769185Y-143433185D01*
X75848537Y-143336494D01*
X75907502Y-143226180D01*
X75943812Y-143106482D01*
X75956072Y-142982000D01*
X75956072Y-140482000D01*
X75950065Y-140421010D01*
X101336446Y-140415932D01*
X101339000Y-141217650D01*
X101497750Y-141376400D01*
X102997000Y-141376400D01*
X102997000Y-141356400D01*
X103251000Y-141356400D01*
X103251000Y-141376400D01*
X104750250Y-141376400D01*
X104909000Y-141217650D01*
X104911556Y-140415217D01*
X126340001Y-140410932D01*
X126340001Y-158167332D01*
G37*
G04 #@! TD.AperFunction*
D25*
X77205928Y-166096000D02*
X77218188Y-166220482D01*
X77254498Y-166340180D01*
X77313463Y-166450494D01*
X77392815Y-166547185D01*
X77489506Y-166626537D01*
X77599820Y-166685502D01*
X77719518Y-166721812D01*
X77844000Y-166734072D01*
X80144000Y-166734072D01*
X80268482Y-166721812D01*
X80388180Y-166685502D01*
X80498494Y-166626537D01*
X80595185Y-166547185D01*
X80674537Y-166450494D01*
X80733502Y-166340180D01*
X80769812Y-166220482D01*
X80782072Y-166096000D01*
X80782072Y-165681000D01*
X82616932Y-165681000D01*
X82369578Y-165928355D01*
X82337709Y-165954509D01*
X82263520Y-166044910D01*
X82233364Y-166081655D01*
X82155828Y-166226714D01*
X82108082Y-166384112D01*
X82091960Y-166547800D01*
X82096000Y-166588819D01*
X82096001Y-169300772D01*
X82091960Y-169341800D01*
X82108082Y-169505488D01*
X82155828Y-169662886D01*
X82229988Y-169801629D01*
X82233365Y-169807946D01*
X82337710Y-169935091D01*
X82369574Y-169961241D01*
X82908558Y-170500226D01*
X82934709Y-170532091D01*
X83061854Y-170636436D01*
X83206913Y-170713972D01*
X83364311Y-170761718D01*
X83483507Y-170773458D01*
X83493001Y-170785027D01*
X83493000Y-174541150D01*
X83473012Y-174549429D01*
X83177379Y-174746965D01*
X82925965Y-174998379D01*
X82728429Y-175294012D01*
X82592365Y-175622501D01*
X82523000Y-175971223D01*
X82523000Y-176326777D01*
X82592365Y-176675499D01*
X82728429Y-177003988D01*
X82819309Y-177140000D01*
X80068076Y-177140000D01*
X80238389Y-177069725D01*
X80396257Y-176751140D01*
X80488938Y-176407878D01*
X80512873Y-176053131D01*
X80467139Y-175700530D01*
X80353495Y-175363627D01*
X80238389Y-175148275D01*
X79956602Y-175032003D01*
X78879605Y-176109000D01*
X78893748Y-176123143D01*
X78714143Y-176302748D01*
X78700000Y-176288605D01*
X78685858Y-176302748D01*
X78506253Y-176123143D01*
X78520395Y-176109000D01*
X78506253Y-176094858D01*
X78685858Y-175915253D01*
X78700000Y-175929395D01*
X79776997Y-174852398D01*
X79660725Y-174570611D01*
X79342140Y-174412743D01*
X78998878Y-174320062D01*
X78644131Y-174296127D01*
X78291530Y-174341861D01*
X77954627Y-174455505D01*
X77739275Y-174570611D01*
X77623004Y-174852396D01*
X77566132Y-174795524D01*
X77602035Y-174759621D01*
X77799571Y-174463988D01*
X77935635Y-174135499D01*
X78005000Y-173786777D01*
X78005000Y-173431223D01*
X77935635Y-173082501D01*
X77799571Y-172754012D01*
X77602035Y-172458379D01*
X77350621Y-172206965D01*
X77054988Y-172009429D01*
X76726499Y-171873365D01*
X76377777Y-171804000D01*
X76022223Y-171804000D01*
X75673501Y-171873365D01*
X75653512Y-171881645D01*
X75003000Y-171231133D01*
X75003000Y-171139621D01*
X75013518Y-171142812D01*
X75138000Y-171155072D01*
X75152250Y-171152000D01*
X75311000Y-170993250D01*
X75311000Y-169669000D01*
X75565000Y-169669000D01*
X75565000Y-170993250D01*
X75723750Y-171152000D01*
X75738000Y-171155072D01*
X75862482Y-171142812D01*
X75982180Y-171106502D01*
X76092494Y-171047537D01*
X76189185Y-170968185D01*
X76268537Y-170871494D01*
X76327502Y-170761180D01*
X76363812Y-170641482D01*
X76376072Y-170517000D01*
X76375533Y-170396000D01*
X77205928Y-170396000D01*
X77218188Y-170520482D01*
X77254498Y-170640180D01*
X77313463Y-170750494D01*
X77392815Y-170847185D01*
X77489506Y-170926537D01*
X77599820Y-170985502D01*
X77719518Y-171021812D01*
X77844000Y-171034072D01*
X78708250Y-171031000D01*
X78867000Y-170872250D01*
X78867000Y-169273000D01*
X79121000Y-169273000D01*
X79121000Y-170872250D01*
X79279750Y-171031000D01*
X80144000Y-171034072D01*
X80268482Y-171021812D01*
X80388180Y-170985502D01*
X80498494Y-170926537D01*
X80595185Y-170847185D01*
X80674537Y-170750494D01*
X80733502Y-170640180D01*
X80769812Y-170520482D01*
X80782072Y-170396000D01*
X80779000Y-169431750D01*
X80620250Y-169273000D01*
X79121000Y-169273000D01*
X78867000Y-169273000D01*
X77367750Y-169273000D01*
X77209000Y-169431750D01*
X77205928Y-170396000D01*
X76375533Y-170396000D01*
X76373000Y-169827750D01*
X76214250Y-169669000D01*
X75565000Y-169669000D01*
X75311000Y-169669000D01*
X75291000Y-169669000D01*
X75291000Y-169415000D01*
X75311000Y-169415000D01*
X75311000Y-168090750D01*
X75565000Y-168090750D01*
X75565000Y-169415000D01*
X76214250Y-169415000D01*
X76373000Y-169256250D01*
X76376072Y-168567000D01*
X76363812Y-168442518D01*
X76327502Y-168322820D01*
X76268537Y-168212506D01*
X76189185Y-168115815D01*
X76092494Y-168036463D01*
X75982180Y-167977498D01*
X75862482Y-167941188D01*
X75738000Y-167928928D01*
X75723750Y-167932000D01*
X75565000Y-168090750D01*
X75311000Y-168090750D01*
X75152250Y-167932000D01*
X75138000Y-167928928D01*
X75013518Y-167941188D01*
X74893820Y-167977498D01*
X74783506Y-168036463D01*
X74753936Y-168060730D01*
X74685381Y-168024087D01*
X74813468Y-167896000D01*
X77205928Y-167896000D01*
X77209000Y-168860250D01*
X77367750Y-169019000D01*
X78867000Y-169019000D01*
X78867000Y-167419750D01*
X79121000Y-167419750D01*
X79121000Y-169019000D01*
X80620250Y-169019000D01*
X80779000Y-168860250D01*
X80782072Y-167896000D01*
X80769812Y-167771518D01*
X80733502Y-167651820D01*
X80674537Y-167541506D01*
X80595185Y-167444815D01*
X80498494Y-167365463D01*
X80388180Y-167306498D01*
X80268482Y-167270188D01*
X80144000Y-167257928D01*
X79279750Y-167261000D01*
X79121000Y-167419750D01*
X78867000Y-167419750D01*
X78708250Y-167261000D01*
X77844000Y-167257928D01*
X77719518Y-167270188D01*
X77599820Y-167306498D01*
X77489506Y-167365463D01*
X77392815Y-167444815D01*
X77313463Y-167541506D01*
X77254498Y-167651820D01*
X77218188Y-167771518D01*
X77205928Y-167896000D01*
X74813468Y-167896000D01*
X75999428Y-166710040D01*
X76031291Y-166683891D01*
X76135636Y-166556746D01*
X76213172Y-166411687D01*
X76260918Y-166254289D01*
X76273000Y-166131619D01*
X76273000Y-166131609D01*
X76277039Y-166090601D01*
X76273000Y-166049593D01*
X76273000Y-165799186D01*
X76316084Y-165718582D01*
X76360929Y-165570745D01*
X76375087Y-165427000D01*
X77205928Y-165427000D01*
X77205928Y-166096000D01*
G04 #@! TA.AperFunction,Conductor*
D26*
G36*
X77205928Y-166096000D02*
G01*
X77218188Y-166220482D01*
X77254498Y-166340180D01*
X77313463Y-166450494D01*
X77392815Y-166547185D01*
X77489506Y-166626537D01*
X77599820Y-166685502D01*
X77719518Y-166721812D01*
X77844000Y-166734072D01*
X80144000Y-166734072D01*
X80268482Y-166721812D01*
X80388180Y-166685502D01*
X80498494Y-166626537D01*
X80595185Y-166547185D01*
X80674537Y-166450494D01*
X80733502Y-166340180D01*
X80769812Y-166220482D01*
X80782072Y-166096000D01*
X80782072Y-165681000D01*
X82616932Y-165681000D01*
X82369578Y-165928355D01*
X82337709Y-165954509D01*
X82263520Y-166044910D01*
X82233364Y-166081655D01*
X82155828Y-166226714D01*
X82108082Y-166384112D01*
X82091960Y-166547800D01*
X82096000Y-166588819D01*
X82096001Y-169300772D01*
X82091960Y-169341800D01*
X82108082Y-169505488D01*
X82155828Y-169662886D01*
X82229988Y-169801629D01*
X82233365Y-169807946D01*
X82337710Y-169935091D01*
X82369574Y-169961241D01*
X82908558Y-170500226D01*
X82934709Y-170532091D01*
X83061854Y-170636436D01*
X83206913Y-170713972D01*
X83364311Y-170761718D01*
X83483507Y-170773458D01*
X83493001Y-170785027D01*
X83493000Y-174541150D01*
X83473012Y-174549429D01*
X83177379Y-174746965D01*
X82925965Y-174998379D01*
X82728429Y-175294012D01*
X82592365Y-175622501D01*
X82523000Y-175971223D01*
X82523000Y-176326777D01*
X82592365Y-176675499D01*
X82728429Y-177003988D01*
X82819309Y-177140000D01*
X80068076Y-177140000D01*
X80238389Y-177069725D01*
X80396257Y-176751140D01*
X80488938Y-176407878D01*
X80512873Y-176053131D01*
X80467139Y-175700530D01*
X80353495Y-175363627D01*
X80238389Y-175148275D01*
X79956602Y-175032003D01*
X78879605Y-176109000D01*
X78893748Y-176123143D01*
X78714143Y-176302748D01*
X78700000Y-176288605D01*
X78685858Y-176302748D01*
X78506253Y-176123143D01*
X78520395Y-176109000D01*
X78506253Y-176094858D01*
X78685858Y-175915253D01*
X78700000Y-175929395D01*
X79776997Y-174852398D01*
X79660725Y-174570611D01*
X79342140Y-174412743D01*
X78998878Y-174320062D01*
X78644131Y-174296127D01*
X78291530Y-174341861D01*
X77954627Y-174455505D01*
X77739275Y-174570611D01*
X77623004Y-174852396D01*
X77566132Y-174795524D01*
X77602035Y-174759621D01*
X77799571Y-174463988D01*
X77935635Y-174135499D01*
X78005000Y-173786777D01*
X78005000Y-173431223D01*
X77935635Y-173082501D01*
X77799571Y-172754012D01*
X77602035Y-172458379D01*
X77350621Y-172206965D01*
X77054988Y-172009429D01*
X76726499Y-171873365D01*
X76377777Y-171804000D01*
X76022223Y-171804000D01*
X75673501Y-171873365D01*
X75653512Y-171881645D01*
X75003000Y-171231133D01*
X75003000Y-171139621D01*
X75013518Y-171142812D01*
X75138000Y-171155072D01*
X75152250Y-171152000D01*
X75311000Y-170993250D01*
X75311000Y-169669000D01*
X75565000Y-169669000D01*
X75565000Y-170993250D01*
X75723750Y-171152000D01*
X75738000Y-171155072D01*
X75862482Y-171142812D01*
X75982180Y-171106502D01*
X76092494Y-171047537D01*
X76189185Y-170968185D01*
X76268537Y-170871494D01*
X76327502Y-170761180D01*
X76363812Y-170641482D01*
X76376072Y-170517000D01*
X76375533Y-170396000D01*
X77205928Y-170396000D01*
X77218188Y-170520482D01*
X77254498Y-170640180D01*
X77313463Y-170750494D01*
X77392815Y-170847185D01*
X77489506Y-170926537D01*
X77599820Y-170985502D01*
X77719518Y-171021812D01*
X77844000Y-171034072D01*
X78708250Y-171031000D01*
X78867000Y-170872250D01*
X78867000Y-169273000D01*
X79121000Y-169273000D01*
X79121000Y-170872250D01*
X79279750Y-171031000D01*
X80144000Y-171034072D01*
X80268482Y-171021812D01*
X80388180Y-170985502D01*
X80498494Y-170926537D01*
X80595185Y-170847185D01*
X80674537Y-170750494D01*
X80733502Y-170640180D01*
X80769812Y-170520482D01*
X80782072Y-170396000D01*
X80779000Y-169431750D01*
X80620250Y-169273000D01*
X79121000Y-169273000D01*
X78867000Y-169273000D01*
X77367750Y-169273000D01*
X77209000Y-169431750D01*
X77205928Y-170396000D01*
X76375533Y-170396000D01*
X76373000Y-169827750D01*
X76214250Y-169669000D01*
X75565000Y-169669000D01*
X75311000Y-169669000D01*
X75291000Y-169669000D01*
X75291000Y-169415000D01*
X75311000Y-169415000D01*
X75311000Y-168090750D01*
X75565000Y-168090750D01*
X75565000Y-169415000D01*
X76214250Y-169415000D01*
X76373000Y-169256250D01*
X76376072Y-168567000D01*
X76363812Y-168442518D01*
X76327502Y-168322820D01*
X76268537Y-168212506D01*
X76189185Y-168115815D01*
X76092494Y-168036463D01*
X75982180Y-167977498D01*
X75862482Y-167941188D01*
X75738000Y-167928928D01*
X75723750Y-167932000D01*
X75565000Y-168090750D01*
X75311000Y-168090750D01*
X75152250Y-167932000D01*
X75138000Y-167928928D01*
X75013518Y-167941188D01*
X74893820Y-167977498D01*
X74783506Y-168036463D01*
X74753936Y-168060730D01*
X74685381Y-168024087D01*
X74813468Y-167896000D01*
X77205928Y-167896000D01*
X77209000Y-168860250D01*
X77367750Y-169019000D01*
X78867000Y-169019000D01*
X78867000Y-167419750D01*
X79121000Y-167419750D01*
X79121000Y-169019000D01*
X80620250Y-169019000D01*
X80779000Y-168860250D01*
X80782072Y-167896000D01*
X80769812Y-167771518D01*
X80733502Y-167651820D01*
X80674537Y-167541506D01*
X80595185Y-167444815D01*
X80498494Y-167365463D01*
X80388180Y-167306498D01*
X80268482Y-167270188D01*
X80144000Y-167257928D01*
X79279750Y-167261000D01*
X79121000Y-167419750D01*
X78867000Y-167419750D01*
X78708250Y-167261000D01*
X77844000Y-167257928D01*
X77719518Y-167270188D01*
X77599820Y-167306498D01*
X77489506Y-167365463D01*
X77392815Y-167444815D01*
X77313463Y-167541506D01*
X77254498Y-167651820D01*
X77218188Y-167771518D01*
X77205928Y-167896000D01*
X74813468Y-167896000D01*
X75999428Y-166710040D01*
X76031291Y-166683891D01*
X76135636Y-166556746D01*
X76213172Y-166411687D01*
X76260918Y-166254289D01*
X76273000Y-166131619D01*
X76273000Y-166131609D01*
X76277039Y-166090601D01*
X76273000Y-166049593D01*
X76273000Y-165799186D01*
X76316084Y-165718582D01*
X76360929Y-165570745D01*
X76375087Y-165427000D01*
X77205928Y-165427000D01*
X77205928Y-166096000D01*
G37*
G04 #@! TD.AperFunction*
D25*
X89521748Y-176134858D02*
X89507605Y-176149000D01*
X89521748Y-176163143D01*
X89342143Y-176342748D01*
X89328000Y-176328605D01*
X89313858Y-176342748D01*
X89134253Y-176163143D01*
X89148395Y-176149000D01*
X89134253Y-176134858D01*
X89313858Y-175955253D01*
X89328000Y-175969395D01*
X89342143Y-175955253D01*
X89521748Y-176134858D01*
G04 #@! TA.AperFunction,Conductor*
D26*
G36*
X89521748Y-176134858D02*
G01*
X89507605Y-176149000D01*
X89521748Y-176163143D01*
X89342143Y-176342748D01*
X89328000Y-176328605D01*
X89313858Y-176342748D01*
X89134253Y-176163143D01*
X89148395Y-176149000D01*
X89134253Y-176134858D01*
X89313858Y-175955253D01*
X89328000Y-175969395D01*
X89342143Y-175955253D01*
X89521748Y-176134858D01*
G37*
G04 #@! TD.AperFunction*
D25*
X99916574Y-172090441D02*
X99915928Y-172097000D01*
X99915928Y-172961150D01*
X99833694Y-172893663D01*
X99723380Y-172834698D01*
X99603682Y-172798388D01*
X99479200Y-172786128D01*
X99206641Y-172786996D01*
X99209200Y-172761019D01*
X99209200Y-172761018D01*
X99213240Y-172720001D01*
X99209200Y-172678982D01*
X99209200Y-171383067D01*
X99916574Y-172090441D01*
G04 #@! TA.AperFunction,Conductor*
D26*
G36*
X99916574Y-172090441D02*
G01*
X99915928Y-172097000D01*
X99915928Y-172961150D01*
X99833694Y-172893663D01*
X99723380Y-172834698D01*
X99603682Y-172798388D01*
X99479200Y-172786128D01*
X99206641Y-172786996D01*
X99209200Y-172761019D01*
X99209200Y-172761018D01*
X99213240Y-172720001D01*
X99209200Y-172678982D01*
X99209200Y-171383067D01*
X99916574Y-172090441D01*
G37*
G04 #@! TD.AperFunction*
D25*
X86275438Y-167970862D02*
X86410013Y-168081305D01*
X86563549Y-168163372D01*
X86730145Y-168213908D01*
X86903399Y-168230972D01*
X87852905Y-168230972D01*
X88376898Y-168754966D01*
X87814150Y-168757900D01*
X87655400Y-168916650D01*
X87655400Y-169828400D01*
X87675400Y-169828400D01*
X87675400Y-170082400D01*
X87655400Y-170082400D01*
X87655400Y-170994150D01*
X87814150Y-171152900D01*
X88392215Y-171155914D01*
X88395200Y-171186218D01*
X88407282Y-171308888D01*
X88455028Y-171466286D01*
X88532564Y-171611345D01*
X88636909Y-171738491D01*
X88668779Y-171764646D01*
X89652158Y-172748026D01*
X89678309Y-172779891D01*
X89719871Y-172814000D01*
X88435850Y-172814000D01*
X88427571Y-172794012D01*
X88230035Y-172498379D01*
X87978621Y-172246965D01*
X87682988Y-172049429D01*
X87354499Y-171913365D01*
X87005777Y-171844000D01*
X86650223Y-171844000D01*
X86301501Y-171913365D01*
X85973012Y-172049429D01*
X85677379Y-172246965D01*
X85425965Y-172498379D01*
X85228429Y-172794012D01*
X85163000Y-172951972D01*
X85163000Y-171139372D01*
X85448301Y-171139372D01*
X85621555Y-171122308D01*
X85788151Y-171071772D01*
X85941687Y-170989705D01*
X86076262Y-170879262D01*
X86106706Y-170842166D01*
X86122863Y-170872394D01*
X86202215Y-170969085D01*
X86298906Y-171048437D01*
X86409220Y-171107402D01*
X86528918Y-171143712D01*
X86653400Y-171155972D01*
X87242650Y-171152900D01*
X87401400Y-170994150D01*
X87401400Y-170082400D01*
X87381400Y-170082400D01*
X87381400Y-169828400D01*
X87401400Y-169828400D01*
X87401400Y-168916650D01*
X87242650Y-168757900D01*
X86653400Y-168754828D01*
X86528918Y-168767088D01*
X86409220Y-168803398D01*
X86298906Y-168862363D01*
X86202215Y-168941715D01*
X86122863Y-169038406D01*
X86117452Y-169048528D01*
X86076262Y-168998338D01*
X85941687Y-168887895D01*
X85788151Y-168805828D01*
X85621555Y-168755292D01*
X85448301Y-168738228D01*
X84198299Y-168738228D01*
X84025045Y-168755292D01*
X83858449Y-168805828D01*
X83766000Y-168855243D01*
X83766000Y-168097357D01*
X83858449Y-168146772D01*
X84025045Y-168197308D01*
X84198299Y-168214372D01*
X85448301Y-168214372D01*
X85621555Y-168197308D01*
X85788151Y-168146772D01*
X85941687Y-168064705D01*
X86076262Y-167954262D01*
X86162813Y-167848800D01*
X86175264Y-167848800D01*
X86275438Y-167970862D01*
G04 #@! TA.AperFunction,Conductor*
D26*
G36*
X86275438Y-167970862D02*
G01*
X86410013Y-168081305D01*
X86563549Y-168163372D01*
X86730145Y-168213908D01*
X86903399Y-168230972D01*
X87852905Y-168230972D01*
X88376898Y-168754966D01*
X87814150Y-168757900D01*
X87655400Y-168916650D01*
X87655400Y-169828400D01*
X87675400Y-169828400D01*
X87675400Y-170082400D01*
X87655400Y-170082400D01*
X87655400Y-170994150D01*
X87814150Y-171152900D01*
X88392215Y-171155914D01*
X88395200Y-171186218D01*
X88407282Y-171308888D01*
X88455028Y-171466286D01*
X88532564Y-171611345D01*
X88636909Y-171738491D01*
X88668779Y-171764646D01*
X89652158Y-172748026D01*
X89678309Y-172779891D01*
X89719871Y-172814000D01*
X88435850Y-172814000D01*
X88427571Y-172794012D01*
X88230035Y-172498379D01*
X87978621Y-172246965D01*
X87682988Y-172049429D01*
X87354499Y-171913365D01*
X87005777Y-171844000D01*
X86650223Y-171844000D01*
X86301501Y-171913365D01*
X85973012Y-172049429D01*
X85677379Y-172246965D01*
X85425965Y-172498379D01*
X85228429Y-172794012D01*
X85163000Y-172951972D01*
X85163000Y-171139372D01*
X85448301Y-171139372D01*
X85621555Y-171122308D01*
X85788151Y-171071772D01*
X85941687Y-170989705D01*
X86076262Y-170879262D01*
X86106706Y-170842166D01*
X86122863Y-170872394D01*
X86202215Y-170969085D01*
X86298906Y-171048437D01*
X86409220Y-171107402D01*
X86528918Y-171143712D01*
X86653400Y-171155972D01*
X87242650Y-171152900D01*
X87401400Y-170994150D01*
X87401400Y-170082400D01*
X87381400Y-170082400D01*
X87381400Y-169828400D01*
X87401400Y-169828400D01*
X87401400Y-168916650D01*
X87242650Y-168757900D01*
X86653400Y-168754828D01*
X86528918Y-168767088D01*
X86409220Y-168803398D01*
X86298906Y-168862363D01*
X86202215Y-168941715D01*
X86122863Y-169038406D01*
X86117452Y-169048528D01*
X86076262Y-168998338D01*
X85941687Y-168887895D01*
X85788151Y-168805828D01*
X85621555Y-168755292D01*
X85448301Y-168738228D01*
X84198299Y-168738228D01*
X84025045Y-168755292D01*
X83858449Y-168805828D01*
X83766000Y-168855243D01*
X83766000Y-168097357D01*
X83858449Y-168146772D01*
X84025045Y-168197308D01*
X84198299Y-168214372D01*
X85448301Y-168214372D01*
X85621555Y-168197308D01*
X85788151Y-168146772D01*
X85941687Y-168064705D01*
X86076262Y-167954262D01*
X86162813Y-167848800D01*
X86175264Y-167848800D01*
X86275438Y-167970862D01*
G37*
G04 #@! TD.AperFunction*
D25*
X97205798Y-172037400D02*
X97141050Y-172037400D01*
X97205798Y-171972652D01*
X97205798Y-172037400D01*
G04 #@! TA.AperFunction,Conductor*
D26*
G36*
X97205798Y-172037400D02*
G01*
X97141050Y-172037400D01*
X97205798Y-171972652D01*
X97205798Y-172037400D01*
G37*
G04 #@! TD.AperFunction*
D25*
X90180399Y-168239872D02*
X90862605Y-168239872D01*
X91388172Y-168765440D01*
X91116150Y-168766800D01*
X90957400Y-168925550D01*
X90957400Y-169849800D01*
X90977400Y-169849800D01*
X90977400Y-170103800D01*
X90957400Y-170103800D01*
X90957400Y-171028050D01*
X91116150Y-171186800D01*
X91243200Y-171187435D01*
X91243200Y-171247139D01*
X91263978Y-171351600D01*
X90617468Y-171351600D01*
X90453125Y-171187258D01*
X90544650Y-171186800D01*
X90703400Y-171028050D01*
X90703400Y-170103800D01*
X90683400Y-170103800D01*
X90683400Y-169849800D01*
X90703400Y-169849800D01*
X90703400Y-168925550D01*
X90544650Y-168766800D01*
X90065200Y-168764402D01*
X90065200Y-168468407D01*
X90069239Y-168427399D01*
X90065200Y-168386391D01*
X90065200Y-168386381D01*
X90053118Y-168263711D01*
X90041744Y-168226216D01*
X90180399Y-168239872D01*
G04 #@! TA.AperFunction,Conductor*
D26*
G36*
X90180399Y-168239872D02*
G01*
X90862605Y-168239872D01*
X91388172Y-168765440D01*
X91116150Y-168766800D01*
X90957400Y-168925550D01*
X90957400Y-169849800D01*
X90977400Y-169849800D01*
X90977400Y-170103800D01*
X90957400Y-170103800D01*
X90957400Y-171028050D01*
X91116150Y-171186800D01*
X91243200Y-171187435D01*
X91243200Y-171247139D01*
X91263978Y-171351600D01*
X90617468Y-171351600D01*
X90453125Y-171187258D01*
X90544650Y-171186800D01*
X90703400Y-171028050D01*
X90703400Y-170103800D01*
X90683400Y-170103800D01*
X90683400Y-169849800D01*
X90703400Y-169849800D01*
X90703400Y-168925550D01*
X90544650Y-168766800D01*
X90065200Y-168764402D01*
X90065200Y-168468407D01*
X90069239Y-168427399D01*
X90065200Y-168386391D01*
X90065200Y-168386381D01*
X90053118Y-168263711D01*
X90041744Y-168226216D01*
X90180399Y-168239872D01*
G37*
G04 #@! TD.AperFunction*
D25*
X97029055Y-167169329D02*
X97182800Y-167184472D01*
X97482800Y-167184472D01*
X97483391Y-167184414D01*
X97483390Y-169046560D01*
X97459800Y-169070150D01*
X97459800Y-170394400D01*
X97479800Y-170394400D01*
X97479800Y-170648400D01*
X97459800Y-170648400D01*
X97459800Y-170668400D01*
X97205800Y-170668400D01*
X97205800Y-170648400D01*
X97185800Y-170648400D01*
X97185800Y-170394400D01*
X97205800Y-170394400D01*
X97205800Y-169070150D01*
X97047050Y-168911400D01*
X97032800Y-168908328D01*
X96908318Y-168920588D01*
X96897800Y-168923779D01*
X96897800Y-167129514D01*
X97029055Y-167169329D01*
G04 #@! TA.AperFunction,Conductor*
D26*
G36*
X97029055Y-167169329D02*
G01*
X97182800Y-167184472D01*
X97482800Y-167184472D01*
X97483391Y-167184414D01*
X97483390Y-169046560D01*
X97459800Y-169070150D01*
X97459800Y-170394400D01*
X97479800Y-170394400D01*
X97479800Y-170648400D01*
X97459800Y-170648400D01*
X97459800Y-170668400D01*
X97205800Y-170668400D01*
X97205800Y-170648400D01*
X97185800Y-170648400D01*
X97185800Y-170394400D01*
X97205800Y-170394400D01*
X97205800Y-169070150D01*
X97047050Y-168911400D01*
X97032800Y-168908328D01*
X96908318Y-168920588D01*
X96897800Y-168923779D01*
X96897800Y-167129514D01*
X97029055Y-167169329D01*
G37*
G04 #@! TD.AperFunction*
D25*
X89509261Y-158743600D02*
X89571399Y-158743600D01*
X90438240Y-159610441D01*
X90314744Y-159661595D01*
X90145226Y-159774863D01*
X90001063Y-159919026D01*
X89887795Y-160088544D01*
X89809774Y-160276902D01*
X89770000Y-160476861D01*
X89770000Y-160680739D01*
X89809774Y-160880698D01*
X89817601Y-160899594D01*
X89817600Y-163013515D01*
X89735395Y-163136544D01*
X89657374Y-163324902D01*
X89617600Y-163524861D01*
X89617600Y-163728739D01*
X89657374Y-163928698D01*
X89735395Y-164117056D01*
X89848663Y-164286574D01*
X89992826Y-164430737D01*
X90162344Y-164544005D01*
X90350702Y-164622026D01*
X90550661Y-164661800D01*
X90754539Y-164661800D01*
X90954498Y-164622026D01*
X91074610Y-164572273D01*
X91106995Y-164650456D01*
X91220263Y-164819974D01*
X91364426Y-164964137D01*
X91533944Y-165077405D01*
X91722302Y-165155426D01*
X91922261Y-165195200D01*
X92126139Y-165195200D01*
X92326098Y-165155426D01*
X92514456Y-165077405D01*
X92584728Y-165030451D01*
X92584728Y-165328604D01*
X92110133Y-165803200D01*
X91260007Y-165803200D01*
X91218999Y-165799161D01*
X91177991Y-165803200D01*
X91177981Y-165803200D01*
X91071089Y-165813728D01*
X90798196Y-165813728D01*
X89777046Y-164792579D01*
X89750891Y-164760709D01*
X89623746Y-164656364D01*
X89478687Y-164578828D01*
X89321289Y-164531082D01*
X89198619Y-164519000D01*
X89198618Y-164519000D01*
X89157600Y-164514960D01*
X89116582Y-164519000D01*
X86897085Y-164519000D01*
X86774056Y-164436795D01*
X86585698Y-164358774D01*
X86385739Y-164319000D01*
X86181861Y-164319000D01*
X85981902Y-164358774D01*
X85919407Y-164384661D01*
X89055028Y-161249040D01*
X89086891Y-161222891D01*
X89191236Y-161095746D01*
X89268772Y-160950687D01*
X89316518Y-160793289D01*
X89321027Y-160747509D01*
X89332640Y-160629601D01*
X89328600Y-160588582D01*
X89328600Y-158707665D01*
X89509261Y-158743600D01*
G04 #@! TA.AperFunction,Conductor*
D26*
G36*
X89509261Y-158743600D02*
G01*
X89571399Y-158743600D01*
X90438240Y-159610441D01*
X90314744Y-159661595D01*
X90145226Y-159774863D01*
X90001063Y-159919026D01*
X89887795Y-160088544D01*
X89809774Y-160276902D01*
X89770000Y-160476861D01*
X89770000Y-160680739D01*
X89809774Y-160880698D01*
X89817601Y-160899594D01*
X89817600Y-163013515D01*
X89735395Y-163136544D01*
X89657374Y-163324902D01*
X89617600Y-163524861D01*
X89617600Y-163728739D01*
X89657374Y-163928698D01*
X89735395Y-164117056D01*
X89848663Y-164286574D01*
X89992826Y-164430737D01*
X90162344Y-164544005D01*
X90350702Y-164622026D01*
X90550661Y-164661800D01*
X90754539Y-164661800D01*
X90954498Y-164622026D01*
X91074610Y-164572273D01*
X91106995Y-164650456D01*
X91220263Y-164819974D01*
X91364426Y-164964137D01*
X91533944Y-165077405D01*
X91722302Y-165155426D01*
X91922261Y-165195200D01*
X92126139Y-165195200D01*
X92326098Y-165155426D01*
X92514456Y-165077405D01*
X92584728Y-165030451D01*
X92584728Y-165328604D01*
X92110133Y-165803200D01*
X91260007Y-165803200D01*
X91218999Y-165799161D01*
X91177991Y-165803200D01*
X91177981Y-165803200D01*
X91071089Y-165813728D01*
X90798196Y-165813728D01*
X89777046Y-164792579D01*
X89750891Y-164760709D01*
X89623746Y-164656364D01*
X89478687Y-164578828D01*
X89321289Y-164531082D01*
X89198619Y-164519000D01*
X89198618Y-164519000D01*
X89157600Y-164514960D01*
X89116582Y-164519000D01*
X86897085Y-164519000D01*
X86774056Y-164436795D01*
X86585698Y-164358774D01*
X86385739Y-164319000D01*
X86181861Y-164319000D01*
X85981902Y-164358774D01*
X85919407Y-164384661D01*
X89055028Y-161249040D01*
X89086891Y-161222891D01*
X89191236Y-161095746D01*
X89268772Y-160950687D01*
X89316518Y-160793289D01*
X89321027Y-160747509D01*
X89332640Y-160629601D01*
X89328600Y-160588582D01*
X89328600Y-158707665D01*
X89509261Y-158743600D01*
G37*
G04 #@! TD.AperFunction*
D25*
X110780017Y-142867637D02*
X110482637Y-143165017D01*
X110248988Y-143514698D01*
X110088047Y-143903244D01*
X110006000Y-144315721D01*
X110006000Y-144736279D01*
X110088047Y-145148756D01*
X110248988Y-145537302D01*
X110482637Y-145886983D01*
X110780017Y-146184363D01*
X111129698Y-146418012D01*
X111518244Y-146578953D01*
X111930721Y-146661000D01*
X112351279Y-146661000D01*
X112763756Y-146578953D01*
X113152302Y-146418012D01*
X113501983Y-146184363D01*
X113799363Y-145886983D01*
X114033012Y-145537302D01*
X114193953Y-145148756D01*
X114276000Y-144736279D01*
X114276000Y-144315721D01*
X114193953Y-143903244D01*
X114155046Y-143809313D01*
X115014401Y-144668669D01*
X115014401Y-148400193D01*
X115005960Y-148314493D01*
X114926764Y-148053419D01*
X114798157Y-147812812D01*
X114625080Y-147601919D01*
X114414187Y-147428843D01*
X114173580Y-147300236D01*
X113912506Y-147221040D01*
X113641000Y-147194299D01*
X113369493Y-147221040D01*
X113108419Y-147300236D01*
X112867812Y-147428843D01*
X112656919Y-147601920D01*
X112483843Y-147812813D01*
X112355236Y-148053420D01*
X112276040Y-148314494D01*
X112256000Y-148517964D01*
X112256000Y-149174037D01*
X112276040Y-149377507D01*
X112355236Y-149638581D01*
X112483843Y-149879188D01*
X112656920Y-150090081D01*
X112867813Y-150263157D01*
X113108420Y-150391764D01*
X113369494Y-150470960D01*
X113641000Y-150497701D01*
X113912507Y-150470960D01*
X114173581Y-150391764D01*
X114414188Y-150263157D01*
X114625081Y-150090081D01*
X114798157Y-149879188D01*
X114926764Y-149638581D01*
X115005960Y-149377506D01*
X115014401Y-149291806D01*
X115014400Y-159445532D01*
X113268333Y-161191600D01*
X108321218Y-161191600D01*
X108280199Y-161187560D01*
X108239181Y-161191600D01*
X108116511Y-161203682D01*
X107959113Y-161251428D01*
X107814054Y-161328964D01*
X107686909Y-161433309D01*
X107660761Y-161465171D01*
X106470723Y-162655210D01*
X100848372Y-162655210D01*
X100882400Y-162484139D01*
X100882400Y-162280261D01*
X100842626Y-162080302D01*
X100764605Y-161891944D01*
X100657000Y-161730901D01*
X100657000Y-158759781D01*
X100644918Y-158637111D01*
X100597172Y-158479713D01*
X100519636Y-158334654D01*
X100415291Y-158207509D01*
X100383428Y-158181360D01*
X99718672Y-157516605D01*
X99718672Y-155929600D01*
X99703529Y-155775855D01*
X99681345Y-155702722D01*
X100551106Y-154832963D01*
X100552528Y-154837651D01*
X100634595Y-154991187D01*
X100745038Y-155125762D01*
X100800268Y-155171088D01*
X100782538Y-155185638D01*
X100672095Y-155320213D01*
X100590028Y-155473749D01*
X100539492Y-155640345D01*
X100522428Y-155813599D01*
X100522428Y-157063601D01*
X100539492Y-157236855D01*
X100590028Y-157403451D01*
X100672095Y-157556987D01*
X100782538Y-157691562D01*
X100888000Y-157778113D01*
X100888000Y-158090862D01*
X100853282Y-158205312D01*
X100837160Y-158369000D01*
X100844400Y-158442508D01*
X100844400Y-158572539D01*
X100884174Y-158772498D01*
X100962195Y-158960856D01*
X101075463Y-159130374D01*
X101219626Y-159274537D01*
X101389144Y-159387805D01*
X101577502Y-159465826D01*
X101777461Y-159505600D01*
X101981339Y-159505600D01*
X102181298Y-159465826D01*
X102369656Y-159387805D01*
X102539174Y-159274537D01*
X102683337Y-159130374D01*
X102796605Y-158960856D01*
X102874626Y-158772498D01*
X102914400Y-158572539D01*
X102914400Y-158368661D01*
X102874626Y-158168702D01*
X102796605Y-157980344D01*
X102683337Y-157810826D01*
X102608873Y-157736362D01*
X102663462Y-157691562D01*
X102773905Y-157556987D01*
X102855972Y-157403451D01*
X102906508Y-157236855D01*
X102923572Y-157063601D01*
X102923572Y-156352239D01*
X103447428Y-156876096D01*
X103447428Y-157063601D01*
X103464492Y-157236855D01*
X103515028Y-157403451D01*
X103597095Y-157556987D01*
X103707538Y-157691562D01*
X103842113Y-157802005D01*
X103995649Y-157884072D01*
X104162245Y-157934608D01*
X104335499Y-157951672D01*
X104960501Y-157951672D01*
X105133755Y-157934608D01*
X105300351Y-157884072D01*
X105453887Y-157802005D01*
X105588462Y-157691562D01*
X105698905Y-157556987D01*
X105780972Y-157403451D01*
X105831508Y-157236855D01*
X105848572Y-157063601D01*
X105848572Y-155813599D01*
X105831508Y-155640345D01*
X105780972Y-155473749D01*
X105698905Y-155320213D01*
X105629507Y-155235651D01*
X105674185Y-155198985D01*
X105753537Y-155102294D01*
X105812502Y-154991980D01*
X105848812Y-154872282D01*
X105861072Y-154747800D01*
X105858000Y-154133550D01*
X105699250Y-153974800D01*
X104775000Y-153974800D01*
X104775000Y-153994800D01*
X104521000Y-153994800D01*
X104521000Y-153974800D01*
X104501000Y-153974800D01*
X104501000Y-153720800D01*
X104521000Y-153720800D01*
X104521000Y-152471550D01*
X104495600Y-152446150D01*
X104495600Y-151409400D01*
X104749600Y-151409400D01*
X104749600Y-152633650D01*
X104775000Y-152659050D01*
X104775000Y-153720800D01*
X105699250Y-153720800D01*
X105858000Y-153562050D01*
X105859782Y-153205721D01*
X108355000Y-153205721D01*
X108355000Y-153626279D01*
X108437047Y-154038756D01*
X108597988Y-154427302D01*
X108831637Y-154776983D01*
X109129017Y-155074363D01*
X109478698Y-155308012D01*
X109867244Y-155468953D01*
X110279721Y-155551000D01*
X110700279Y-155551000D01*
X111112756Y-155468953D01*
X111501302Y-155308012D01*
X111850983Y-155074363D01*
X112148363Y-154776983D01*
X112382012Y-154427302D01*
X112542953Y-154038756D01*
X112625000Y-153626279D01*
X112625000Y-153205721D01*
X112542953Y-152793244D01*
X112382012Y-152404698D01*
X112148363Y-152055017D01*
X111850983Y-151757637D01*
X111501302Y-151523988D01*
X111112756Y-151363047D01*
X110700279Y-151281000D01*
X110279721Y-151281000D01*
X109867244Y-151363047D01*
X109478698Y-151523988D01*
X109129017Y-151757637D01*
X108831637Y-152055017D01*
X108597988Y-152404698D01*
X108437047Y-152793244D01*
X108355000Y-153205721D01*
X105859782Y-153205721D01*
X105861072Y-152947800D01*
X105848812Y-152823318D01*
X105812502Y-152703620D01*
X105753537Y-152593306D01*
X105701181Y-152529509D01*
X105715637Y-152511894D01*
X105774602Y-152401580D01*
X105810912Y-152281882D01*
X105823172Y-152157400D01*
X105820100Y-151568150D01*
X105661350Y-151409400D01*
X104749600Y-151409400D01*
X104495600Y-151409400D01*
X104475600Y-151409400D01*
X104475600Y-151155400D01*
X104495600Y-151155400D01*
X104495600Y-151135400D01*
X104749600Y-151135400D01*
X104749600Y-151155400D01*
X105661350Y-151155400D01*
X105820100Y-150996650D01*
X105823172Y-150407400D01*
X105810912Y-150282918D01*
X105774602Y-150163220D01*
X105715637Y-150052906D01*
X105636285Y-149956215D01*
X105611397Y-149935790D01*
X105652105Y-149886187D01*
X105734172Y-149732651D01*
X105773562Y-149602800D01*
X106181733Y-149602800D01*
X107586308Y-151007375D01*
X107615174Y-151152498D01*
X107693195Y-151340856D01*
X107806463Y-151510374D01*
X107950626Y-151654537D01*
X108120144Y-151767805D01*
X108308502Y-151845826D01*
X108508461Y-151885600D01*
X108712339Y-151885600D01*
X108912298Y-151845826D01*
X109100656Y-151767805D01*
X109270174Y-151654537D01*
X109414337Y-151510374D01*
X109527605Y-151340856D01*
X109605626Y-151152498D01*
X109645400Y-150952539D01*
X109645400Y-150748661D01*
X109605626Y-150548702D01*
X109527605Y-150360344D01*
X109414337Y-150190826D01*
X109270174Y-150046663D01*
X109100656Y-149933395D01*
X108912298Y-149855374D01*
X108767175Y-149826508D01*
X107147046Y-148206379D01*
X107120891Y-148174509D01*
X107013043Y-148086000D01*
X109252928Y-148086000D01*
X109252928Y-149606000D01*
X109269992Y-149779254D01*
X109320528Y-149945850D01*
X109402595Y-150099386D01*
X109513038Y-150233962D01*
X109647614Y-150344405D01*
X109801150Y-150426472D01*
X109967746Y-150477008D01*
X110141000Y-150494072D01*
X111141000Y-150494072D01*
X111314254Y-150477008D01*
X111480850Y-150426472D01*
X111634386Y-150344405D01*
X111768962Y-150233962D01*
X111879405Y-150099386D01*
X111961472Y-149945850D01*
X112012008Y-149779254D01*
X112029072Y-149606000D01*
X112029072Y-148086000D01*
X112012008Y-147912746D01*
X111961472Y-147746150D01*
X111879405Y-147592614D01*
X111768962Y-147458038D01*
X111634386Y-147347595D01*
X111480850Y-147265528D01*
X111314254Y-147214992D01*
X111141000Y-147197928D01*
X110141000Y-147197928D01*
X109967746Y-147214992D01*
X109801150Y-147265528D01*
X109647614Y-147347595D01*
X109513038Y-147458038D01*
X109402595Y-147592614D01*
X109320528Y-147746150D01*
X109269992Y-147912746D01*
X109252928Y-148086000D01*
X107013043Y-148086000D01*
X106993746Y-148070164D01*
X106848687Y-147992628D01*
X106691289Y-147944882D01*
X106568619Y-147932800D01*
X106568618Y-147932800D01*
X106527600Y-147928760D01*
X106486582Y-147932800D01*
X105773562Y-147932800D01*
X105734172Y-147802949D01*
X105652105Y-147649413D01*
X105541662Y-147514838D01*
X105407087Y-147404395D01*
X105253551Y-147322328D01*
X105086955Y-147271792D01*
X104913701Y-147254728D01*
X104876501Y-147254728D01*
X104899812Y-147177882D01*
X104912072Y-147053400D01*
X104912072Y-144553400D01*
X104909058Y-144522800D01*
X106308782Y-144522800D01*
X106349800Y-144526840D01*
X106390818Y-144522800D01*
X106390819Y-144522800D01*
X106513489Y-144510718D01*
X106670887Y-144462972D01*
X106815946Y-144385436D01*
X106943091Y-144281091D01*
X106969246Y-144249221D01*
X108499069Y-142719400D01*
X111001870Y-142719400D01*
X110780017Y-142867637D01*
G04 #@! TA.AperFunction,Conductor*
D26*
G36*
X110780017Y-142867637D02*
G01*
X110482637Y-143165017D01*
X110248988Y-143514698D01*
X110088047Y-143903244D01*
X110006000Y-144315721D01*
X110006000Y-144736279D01*
X110088047Y-145148756D01*
X110248988Y-145537302D01*
X110482637Y-145886983D01*
X110780017Y-146184363D01*
X111129698Y-146418012D01*
X111518244Y-146578953D01*
X111930721Y-146661000D01*
X112351279Y-146661000D01*
X112763756Y-146578953D01*
X113152302Y-146418012D01*
X113501983Y-146184363D01*
X113799363Y-145886983D01*
X114033012Y-145537302D01*
X114193953Y-145148756D01*
X114276000Y-144736279D01*
X114276000Y-144315721D01*
X114193953Y-143903244D01*
X114155046Y-143809313D01*
X115014401Y-144668669D01*
X115014401Y-148400193D01*
X115005960Y-148314493D01*
X114926764Y-148053419D01*
X114798157Y-147812812D01*
X114625080Y-147601919D01*
X114414187Y-147428843D01*
X114173580Y-147300236D01*
X113912506Y-147221040D01*
X113641000Y-147194299D01*
X113369493Y-147221040D01*
X113108419Y-147300236D01*
X112867812Y-147428843D01*
X112656919Y-147601920D01*
X112483843Y-147812813D01*
X112355236Y-148053420D01*
X112276040Y-148314494D01*
X112256000Y-148517964D01*
X112256000Y-149174037D01*
X112276040Y-149377507D01*
X112355236Y-149638581D01*
X112483843Y-149879188D01*
X112656920Y-150090081D01*
X112867813Y-150263157D01*
X113108420Y-150391764D01*
X113369494Y-150470960D01*
X113641000Y-150497701D01*
X113912507Y-150470960D01*
X114173581Y-150391764D01*
X114414188Y-150263157D01*
X114625081Y-150090081D01*
X114798157Y-149879188D01*
X114926764Y-149638581D01*
X115005960Y-149377506D01*
X115014401Y-149291806D01*
X115014400Y-159445532D01*
X113268333Y-161191600D01*
X108321218Y-161191600D01*
X108280199Y-161187560D01*
X108239181Y-161191600D01*
X108116511Y-161203682D01*
X107959113Y-161251428D01*
X107814054Y-161328964D01*
X107686909Y-161433309D01*
X107660761Y-161465171D01*
X106470723Y-162655210D01*
X100848372Y-162655210D01*
X100882400Y-162484139D01*
X100882400Y-162280261D01*
X100842626Y-162080302D01*
X100764605Y-161891944D01*
X100657000Y-161730901D01*
X100657000Y-158759781D01*
X100644918Y-158637111D01*
X100597172Y-158479713D01*
X100519636Y-158334654D01*
X100415291Y-158207509D01*
X100383428Y-158181360D01*
X99718672Y-157516605D01*
X99718672Y-155929600D01*
X99703529Y-155775855D01*
X99681345Y-155702722D01*
X100551106Y-154832963D01*
X100552528Y-154837651D01*
X100634595Y-154991187D01*
X100745038Y-155125762D01*
X100800268Y-155171088D01*
X100782538Y-155185638D01*
X100672095Y-155320213D01*
X100590028Y-155473749D01*
X100539492Y-155640345D01*
X100522428Y-155813599D01*
X100522428Y-157063601D01*
X100539492Y-157236855D01*
X100590028Y-157403451D01*
X100672095Y-157556987D01*
X100782538Y-157691562D01*
X100888000Y-157778113D01*
X100888000Y-158090862D01*
X100853282Y-158205312D01*
X100837160Y-158369000D01*
X100844400Y-158442508D01*
X100844400Y-158572539D01*
X100884174Y-158772498D01*
X100962195Y-158960856D01*
X101075463Y-159130374D01*
X101219626Y-159274537D01*
X101389144Y-159387805D01*
X101577502Y-159465826D01*
X101777461Y-159505600D01*
X101981339Y-159505600D01*
X102181298Y-159465826D01*
X102369656Y-159387805D01*
X102539174Y-159274537D01*
X102683337Y-159130374D01*
X102796605Y-158960856D01*
X102874626Y-158772498D01*
X102914400Y-158572539D01*
X102914400Y-158368661D01*
X102874626Y-158168702D01*
X102796605Y-157980344D01*
X102683337Y-157810826D01*
X102608873Y-157736362D01*
X102663462Y-157691562D01*
X102773905Y-157556987D01*
X102855972Y-157403451D01*
X102906508Y-157236855D01*
X102923572Y-157063601D01*
X102923572Y-156352239D01*
X103447428Y-156876096D01*
X103447428Y-157063601D01*
X103464492Y-157236855D01*
X103515028Y-157403451D01*
X103597095Y-157556987D01*
X103707538Y-157691562D01*
X103842113Y-157802005D01*
X103995649Y-157884072D01*
X104162245Y-157934608D01*
X104335499Y-157951672D01*
X104960501Y-157951672D01*
X105133755Y-157934608D01*
X105300351Y-157884072D01*
X105453887Y-157802005D01*
X105588462Y-157691562D01*
X105698905Y-157556987D01*
X105780972Y-157403451D01*
X105831508Y-157236855D01*
X105848572Y-157063601D01*
X105848572Y-155813599D01*
X105831508Y-155640345D01*
X105780972Y-155473749D01*
X105698905Y-155320213D01*
X105629507Y-155235651D01*
X105674185Y-155198985D01*
X105753537Y-155102294D01*
X105812502Y-154991980D01*
X105848812Y-154872282D01*
X105861072Y-154747800D01*
X105858000Y-154133550D01*
X105699250Y-153974800D01*
X104775000Y-153974800D01*
X104775000Y-153994800D01*
X104521000Y-153994800D01*
X104521000Y-153974800D01*
X104501000Y-153974800D01*
X104501000Y-153720800D01*
X104521000Y-153720800D01*
X104521000Y-152471550D01*
X104495600Y-152446150D01*
X104495600Y-151409400D01*
X104749600Y-151409400D01*
X104749600Y-152633650D01*
X104775000Y-152659050D01*
X104775000Y-153720800D01*
X105699250Y-153720800D01*
X105858000Y-153562050D01*
X105859782Y-153205721D01*
X108355000Y-153205721D01*
X108355000Y-153626279D01*
X108437047Y-154038756D01*
X108597988Y-154427302D01*
X108831637Y-154776983D01*
X109129017Y-155074363D01*
X109478698Y-155308012D01*
X109867244Y-155468953D01*
X110279721Y-155551000D01*
X110700279Y-155551000D01*
X111112756Y-155468953D01*
X111501302Y-155308012D01*
X111850983Y-155074363D01*
X112148363Y-154776983D01*
X112382012Y-154427302D01*
X112542953Y-154038756D01*
X112625000Y-153626279D01*
X112625000Y-153205721D01*
X112542953Y-152793244D01*
X112382012Y-152404698D01*
X112148363Y-152055017D01*
X111850983Y-151757637D01*
X111501302Y-151523988D01*
X111112756Y-151363047D01*
X110700279Y-151281000D01*
X110279721Y-151281000D01*
X109867244Y-151363047D01*
X109478698Y-151523988D01*
X109129017Y-151757637D01*
X108831637Y-152055017D01*
X108597988Y-152404698D01*
X108437047Y-152793244D01*
X108355000Y-153205721D01*
X105859782Y-153205721D01*
X105861072Y-152947800D01*
X105848812Y-152823318D01*
X105812502Y-152703620D01*
X105753537Y-152593306D01*
X105701181Y-152529509D01*
X105715637Y-152511894D01*
X105774602Y-152401580D01*
X105810912Y-152281882D01*
X105823172Y-152157400D01*
X105820100Y-151568150D01*
X105661350Y-151409400D01*
X104749600Y-151409400D01*
X104495600Y-151409400D01*
X104475600Y-151409400D01*
X104475600Y-151155400D01*
X104495600Y-151155400D01*
X104495600Y-151135400D01*
X104749600Y-151135400D01*
X104749600Y-151155400D01*
X105661350Y-151155400D01*
X105820100Y-150996650D01*
X105823172Y-150407400D01*
X105810912Y-150282918D01*
X105774602Y-150163220D01*
X105715637Y-150052906D01*
X105636285Y-149956215D01*
X105611397Y-149935790D01*
X105652105Y-149886187D01*
X105734172Y-149732651D01*
X105773562Y-149602800D01*
X106181733Y-149602800D01*
X107586308Y-151007375D01*
X107615174Y-151152498D01*
X107693195Y-151340856D01*
X107806463Y-151510374D01*
X107950626Y-151654537D01*
X108120144Y-151767805D01*
X108308502Y-151845826D01*
X108508461Y-151885600D01*
X108712339Y-151885600D01*
X108912298Y-151845826D01*
X109100656Y-151767805D01*
X109270174Y-151654537D01*
X109414337Y-151510374D01*
X109527605Y-151340856D01*
X109605626Y-151152498D01*
X109645400Y-150952539D01*
X109645400Y-150748661D01*
X109605626Y-150548702D01*
X109527605Y-150360344D01*
X109414337Y-150190826D01*
X109270174Y-150046663D01*
X109100656Y-149933395D01*
X108912298Y-149855374D01*
X108767175Y-149826508D01*
X107147046Y-148206379D01*
X107120891Y-148174509D01*
X107013043Y-148086000D01*
X109252928Y-148086000D01*
X109252928Y-149606000D01*
X109269992Y-149779254D01*
X109320528Y-149945850D01*
X109402595Y-150099386D01*
X109513038Y-150233962D01*
X109647614Y-150344405D01*
X109801150Y-150426472D01*
X109967746Y-150477008D01*
X110141000Y-150494072D01*
X111141000Y-150494072D01*
X111314254Y-150477008D01*
X111480850Y-150426472D01*
X111634386Y-150344405D01*
X111768962Y-150233962D01*
X111879405Y-150099386D01*
X111961472Y-149945850D01*
X112012008Y-149779254D01*
X112029072Y-149606000D01*
X112029072Y-148086000D01*
X112012008Y-147912746D01*
X111961472Y-147746150D01*
X111879405Y-147592614D01*
X111768962Y-147458038D01*
X111634386Y-147347595D01*
X111480850Y-147265528D01*
X111314254Y-147214992D01*
X111141000Y-147197928D01*
X110141000Y-147197928D01*
X109967746Y-147214992D01*
X109801150Y-147265528D01*
X109647614Y-147347595D01*
X109513038Y-147458038D01*
X109402595Y-147592614D01*
X109320528Y-147746150D01*
X109269992Y-147912746D01*
X109252928Y-148086000D01*
X107013043Y-148086000D01*
X106993746Y-148070164D01*
X106848687Y-147992628D01*
X106691289Y-147944882D01*
X106568619Y-147932800D01*
X106568618Y-147932800D01*
X106527600Y-147928760D01*
X106486582Y-147932800D01*
X105773562Y-147932800D01*
X105734172Y-147802949D01*
X105652105Y-147649413D01*
X105541662Y-147514838D01*
X105407087Y-147404395D01*
X105253551Y-147322328D01*
X105086955Y-147271792D01*
X104913701Y-147254728D01*
X104876501Y-147254728D01*
X104899812Y-147177882D01*
X104912072Y-147053400D01*
X104912072Y-144553400D01*
X104909058Y-144522800D01*
X106308782Y-144522800D01*
X106349800Y-144526840D01*
X106390818Y-144522800D01*
X106390819Y-144522800D01*
X106513489Y-144510718D01*
X106670887Y-144462972D01*
X106815946Y-144385436D01*
X106943091Y-144281091D01*
X106969246Y-144249221D01*
X108499069Y-142719400D01*
X111001870Y-142719400D01*
X110780017Y-142867637D01*
G37*
G04 #@! TD.AperFunction*
D25*
X94047671Y-157733345D02*
X94092516Y-157881182D01*
X94165342Y-158017429D01*
X94263349Y-158136851D01*
X94382771Y-158234858D01*
X94519018Y-158307684D01*
X94666855Y-158352529D01*
X94820600Y-158367672D01*
X95120600Y-158367672D01*
X95274345Y-158352529D01*
X95422182Y-158307684D01*
X95558429Y-158234858D01*
X95605600Y-158196146D01*
X95652771Y-158234858D01*
X95789018Y-158307684D01*
X95936855Y-158352529D01*
X96090600Y-158367672D01*
X96390600Y-158367672D01*
X96544345Y-158352529D01*
X96675600Y-158312714D01*
X96675600Y-158581981D01*
X96671560Y-158623000D01*
X96683438Y-158743600D01*
X96687682Y-158786688D01*
X96693071Y-158804453D01*
X96597910Y-158858381D01*
X96503208Y-158940097D01*
X96426268Y-159038719D01*
X96370047Y-159150456D01*
X96336705Y-159271014D01*
X96327523Y-159395761D01*
X96330400Y-159419250D01*
X96489150Y-159578000D01*
X96977328Y-159578000D01*
X96977328Y-159820000D01*
X94452818Y-159820000D01*
X94411800Y-159815960D01*
X94370782Y-159820000D01*
X94370781Y-159820000D01*
X94248111Y-159832082D01*
X94090713Y-159879828D01*
X93945654Y-159957364D01*
X93852804Y-160033564D01*
X93818509Y-160061709D01*
X93792363Y-160093569D01*
X93313177Y-160572756D01*
X93306603Y-160506014D01*
X93263146Y-160362753D01*
X93192574Y-160230724D01*
X93097601Y-160114999D01*
X93068604Y-160091202D01*
X92643207Y-159665805D01*
X92658574Y-159655537D01*
X92802737Y-159511374D01*
X92916005Y-159341856D01*
X92994026Y-159153498D01*
X93033800Y-158953539D01*
X93033800Y-158749661D01*
X92994026Y-158549702D01*
X92916005Y-158361344D01*
X92833800Y-158238315D01*
X92833800Y-157648067D01*
X92892267Y-157589600D01*
X94033513Y-157589600D01*
X94047671Y-157733345D01*
G04 #@! TA.AperFunction,Conductor*
D26*
G36*
X94047671Y-157733345D02*
G01*
X94092516Y-157881182D01*
X94165342Y-158017429D01*
X94263349Y-158136851D01*
X94382771Y-158234858D01*
X94519018Y-158307684D01*
X94666855Y-158352529D01*
X94820600Y-158367672D01*
X95120600Y-158367672D01*
X95274345Y-158352529D01*
X95422182Y-158307684D01*
X95558429Y-158234858D01*
X95605600Y-158196146D01*
X95652771Y-158234858D01*
X95789018Y-158307684D01*
X95936855Y-158352529D01*
X96090600Y-158367672D01*
X96390600Y-158367672D01*
X96544345Y-158352529D01*
X96675600Y-158312714D01*
X96675600Y-158581981D01*
X96671560Y-158623000D01*
X96683438Y-158743600D01*
X96687682Y-158786688D01*
X96693071Y-158804453D01*
X96597910Y-158858381D01*
X96503208Y-158940097D01*
X96426268Y-159038719D01*
X96370047Y-159150456D01*
X96336705Y-159271014D01*
X96327523Y-159395761D01*
X96330400Y-159419250D01*
X96489150Y-159578000D01*
X96977328Y-159578000D01*
X96977328Y-159820000D01*
X94452818Y-159820000D01*
X94411800Y-159815960D01*
X94370782Y-159820000D01*
X94370781Y-159820000D01*
X94248111Y-159832082D01*
X94090713Y-159879828D01*
X93945654Y-159957364D01*
X93852804Y-160033564D01*
X93818509Y-160061709D01*
X93792363Y-160093569D01*
X93313177Y-160572756D01*
X93306603Y-160506014D01*
X93263146Y-160362753D01*
X93192574Y-160230724D01*
X93097601Y-160114999D01*
X93068604Y-160091202D01*
X92643207Y-159665805D01*
X92658574Y-159655537D01*
X92802737Y-159511374D01*
X92916005Y-159341856D01*
X92994026Y-159153498D01*
X93033800Y-158953539D01*
X93033800Y-158749661D01*
X92994026Y-158549702D01*
X92916005Y-158361344D01*
X92833800Y-158238315D01*
X92833800Y-157648067D01*
X92892267Y-157589600D01*
X94033513Y-157589600D01*
X94047671Y-157733345D01*
G37*
G04 #@! TD.AperFunction*
D25*
X101335928Y-147053400D02*
X101348188Y-147177882D01*
X101371499Y-147254728D01*
X101363699Y-147254728D01*
X101190445Y-147271792D01*
X101023849Y-147322328D01*
X100870313Y-147404395D01*
X100735738Y-147514838D01*
X100625295Y-147649413D01*
X100543228Y-147802949D01*
X100492692Y-147969545D01*
X100475628Y-148142799D01*
X100475628Y-148787505D01*
X100161933Y-149101200D01*
X98237418Y-149101200D01*
X98196400Y-149097160D01*
X98155382Y-149101200D01*
X98155381Y-149101200D01*
X98032711Y-149113282D01*
X97875313Y-149161028D01*
X97730254Y-149238564D01*
X97603109Y-149342909D01*
X97576963Y-149374769D01*
X96949173Y-150002559D01*
X96917310Y-150028709D01*
X96854731Y-150104962D01*
X96812964Y-150155855D01*
X96746355Y-150280472D01*
X96692182Y-150251516D01*
X96544345Y-150206671D01*
X96439932Y-150196387D01*
X96661540Y-150046145D01*
X96853028Y-149852061D01*
X97002972Y-149624349D01*
X97105611Y-149371760D01*
X97157000Y-149104000D01*
X97157000Y-148844000D01*
X95899000Y-148844000D01*
X95899000Y-148864000D01*
X95645000Y-148864000D01*
X95645000Y-148844000D01*
X94387000Y-148844000D01*
X94387000Y-149104000D01*
X94438389Y-149371760D01*
X94541028Y-149624349D01*
X94690972Y-149852061D01*
X94882460Y-150046145D01*
X95108132Y-150199142D01*
X95209161Y-150241789D01*
X95097600Y-150353350D01*
X95097600Y-151677600D01*
X95117600Y-151677600D01*
X95117600Y-151931600D01*
X95097600Y-151931600D01*
X95097600Y-151951600D01*
X94843600Y-151951600D01*
X94843600Y-151931600D01*
X94194350Y-151931600D01*
X94035600Y-152090350D01*
X94034711Y-152289843D01*
X93755623Y-152010755D01*
X93799608Y-151865755D01*
X93816672Y-151692501D01*
X93816672Y-151067499D01*
X93799608Y-150894245D01*
X93779999Y-150829600D01*
X94032528Y-150829600D01*
X94035600Y-151518850D01*
X94194350Y-151677600D01*
X94843600Y-151677600D01*
X94843600Y-150353350D01*
X94684850Y-150194600D01*
X94670600Y-150191528D01*
X94546118Y-150203788D01*
X94426420Y-150240098D01*
X94316106Y-150299063D01*
X94219415Y-150378415D01*
X94140063Y-150475106D01*
X94081098Y-150585420D01*
X94044788Y-150705118D01*
X94032528Y-150829600D01*
X93779999Y-150829600D01*
X93749072Y-150727649D01*
X93667005Y-150574113D01*
X93607000Y-150500997D01*
X93607000Y-150083429D01*
X93756081Y-149961081D01*
X93929157Y-149750188D01*
X94057764Y-149509581D01*
X94136960Y-149248506D01*
X94157000Y-149045036D01*
X94157000Y-148577868D01*
X94387000Y-148347868D01*
X94387000Y-148590000D01*
X95645000Y-148590000D01*
X95645000Y-147237344D01*
X95899000Y-147237344D01*
X95899000Y-148590000D01*
X97157000Y-148590000D01*
X97157000Y-148330000D01*
X97105611Y-148062240D01*
X97002972Y-147809651D01*
X96853028Y-147581939D01*
X96661540Y-147387855D01*
X96435868Y-147234858D01*
X96184684Y-147128827D01*
X96113185Y-147114682D01*
X95899000Y-147237344D01*
X95645000Y-147237344D01*
X95551227Y-147183641D01*
X96096469Y-146638400D01*
X101335928Y-146638400D01*
X101335928Y-147053400D01*
G04 #@! TA.AperFunction,Conductor*
D26*
G36*
X101335928Y-147053400D02*
G01*
X101348188Y-147177882D01*
X101371499Y-147254728D01*
X101363699Y-147254728D01*
X101190445Y-147271792D01*
X101023849Y-147322328D01*
X100870313Y-147404395D01*
X100735738Y-147514838D01*
X100625295Y-147649413D01*
X100543228Y-147802949D01*
X100492692Y-147969545D01*
X100475628Y-148142799D01*
X100475628Y-148787505D01*
X100161933Y-149101200D01*
X98237418Y-149101200D01*
X98196400Y-149097160D01*
X98155382Y-149101200D01*
X98155381Y-149101200D01*
X98032711Y-149113282D01*
X97875313Y-149161028D01*
X97730254Y-149238564D01*
X97603109Y-149342909D01*
X97576963Y-149374769D01*
X96949173Y-150002559D01*
X96917310Y-150028709D01*
X96854731Y-150104962D01*
X96812964Y-150155855D01*
X96746355Y-150280472D01*
X96692182Y-150251516D01*
X96544345Y-150206671D01*
X96439932Y-150196387D01*
X96661540Y-150046145D01*
X96853028Y-149852061D01*
X97002972Y-149624349D01*
X97105611Y-149371760D01*
X97157000Y-149104000D01*
X97157000Y-148844000D01*
X95899000Y-148844000D01*
X95899000Y-148864000D01*
X95645000Y-148864000D01*
X95645000Y-148844000D01*
X94387000Y-148844000D01*
X94387000Y-149104000D01*
X94438389Y-149371760D01*
X94541028Y-149624349D01*
X94690972Y-149852061D01*
X94882460Y-150046145D01*
X95108132Y-150199142D01*
X95209161Y-150241789D01*
X95097600Y-150353350D01*
X95097600Y-151677600D01*
X95117600Y-151677600D01*
X95117600Y-151931600D01*
X95097600Y-151931600D01*
X95097600Y-151951600D01*
X94843600Y-151951600D01*
X94843600Y-151931600D01*
X94194350Y-151931600D01*
X94035600Y-152090350D01*
X94034711Y-152289843D01*
X93755623Y-152010755D01*
X93799608Y-151865755D01*
X93816672Y-151692501D01*
X93816672Y-151067499D01*
X93799608Y-150894245D01*
X93779999Y-150829600D01*
X94032528Y-150829600D01*
X94035600Y-151518850D01*
X94194350Y-151677600D01*
X94843600Y-151677600D01*
X94843600Y-150353350D01*
X94684850Y-150194600D01*
X94670600Y-150191528D01*
X94546118Y-150203788D01*
X94426420Y-150240098D01*
X94316106Y-150299063D01*
X94219415Y-150378415D01*
X94140063Y-150475106D01*
X94081098Y-150585420D01*
X94044788Y-150705118D01*
X94032528Y-150829600D01*
X93779999Y-150829600D01*
X93749072Y-150727649D01*
X93667005Y-150574113D01*
X93607000Y-150500997D01*
X93607000Y-150083429D01*
X93756081Y-149961081D01*
X93929157Y-149750188D01*
X94057764Y-149509581D01*
X94136960Y-149248506D01*
X94157000Y-149045036D01*
X94157000Y-148577868D01*
X94387000Y-148347868D01*
X94387000Y-148590000D01*
X95645000Y-148590000D01*
X95645000Y-147237344D01*
X95899000Y-147237344D01*
X95899000Y-148590000D01*
X97157000Y-148590000D01*
X97157000Y-148330000D01*
X97105611Y-148062240D01*
X97002972Y-147809651D01*
X96853028Y-147581939D01*
X96661540Y-147387855D01*
X96435868Y-147234858D01*
X96184684Y-147128827D01*
X96113185Y-147114682D01*
X95899000Y-147237344D01*
X95645000Y-147237344D01*
X95551227Y-147183641D01*
X96096469Y-146638400D01*
X101335928Y-146638400D01*
X101335928Y-147053400D01*
G37*
G04 #@! TD.AperFunction*
D25*
X72379928Y-147282000D02*
X72392188Y-147406482D01*
X72428498Y-147526180D01*
X72487463Y-147636494D01*
X72566815Y-147733185D01*
X72663506Y-147812537D01*
X72773820Y-147871502D01*
X72893518Y-147907812D01*
X73018000Y-147920072D01*
X75318000Y-147920072D01*
X75442482Y-147907812D01*
X75562180Y-147871502D01*
X75672494Y-147812537D01*
X75769185Y-147733185D01*
X75848537Y-147636494D01*
X75907502Y-147526180D01*
X75943812Y-147406482D01*
X75956072Y-147282000D01*
X75956072Y-147159250D01*
X76527200Y-147730379D01*
X76527200Y-148280799D01*
X76464185Y-148204015D01*
X76367494Y-148124663D01*
X76257180Y-148065698D01*
X76137482Y-148029388D01*
X76013000Y-148017128D01*
X75723750Y-148020200D01*
X75565000Y-148178950D01*
X75565000Y-149428200D01*
X75585000Y-149428200D01*
X75585000Y-149682200D01*
X75565000Y-149682200D01*
X75565000Y-149702200D01*
X75311000Y-149702200D01*
X75311000Y-149682200D01*
X74386750Y-149682200D01*
X74228000Y-149840950D01*
X74227433Y-149954322D01*
X74091174Y-149818063D01*
X73921656Y-149704795D01*
X73733298Y-149626774D01*
X73701072Y-149620364D01*
X73701072Y-148905199D01*
X73684008Y-148731945D01*
X73660728Y-148655200D01*
X74224928Y-148655200D01*
X74228000Y-149269450D01*
X74386750Y-149428200D01*
X75311000Y-149428200D01*
X75311000Y-148178950D01*
X75152250Y-148020200D01*
X74863000Y-148017128D01*
X74738518Y-148029388D01*
X74618820Y-148065698D01*
X74508506Y-148124663D01*
X74411815Y-148204015D01*
X74332463Y-148300706D01*
X74273498Y-148411020D01*
X74237188Y-148530718D01*
X74224928Y-148655200D01*
X73660728Y-148655200D01*
X73633472Y-148565349D01*
X73551405Y-148411813D01*
X73440962Y-148277238D01*
X73306387Y-148166795D01*
X73152851Y-148084728D01*
X72986255Y-148034192D01*
X72813001Y-148017128D01*
X72162999Y-148017128D01*
X71989745Y-148034192D01*
X71823149Y-148084728D01*
X71669613Y-148166795D01*
X71535038Y-148277238D01*
X71496010Y-148324794D01*
X71481002Y-148275320D01*
X71422037Y-148165006D01*
X71342685Y-148068315D01*
X71245994Y-147988963D01*
X71216089Y-147972978D01*
X72322068Y-146867000D01*
X72379928Y-146867000D01*
X72379928Y-147282000D01*
G04 #@! TA.AperFunction,Conductor*
D26*
G36*
X72379928Y-147282000D02*
G01*
X72392188Y-147406482D01*
X72428498Y-147526180D01*
X72487463Y-147636494D01*
X72566815Y-147733185D01*
X72663506Y-147812537D01*
X72773820Y-147871502D01*
X72893518Y-147907812D01*
X73018000Y-147920072D01*
X75318000Y-147920072D01*
X75442482Y-147907812D01*
X75562180Y-147871502D01*
X75672494Y-147812537D01*
X75769185Y-147733185D01*
X75848537Y-147636494D01*
X75907502Y-147526180D01*
X75943812Y-147406482D01*
X75956072Y-147282000D01*
X75956072Y-147159250D01*
X76527200Y-147730379D01*
X76527200Y-148280799D01*
X76464185Y-148204015D01*
X76367494Y-148124663D01*
X76257180Y-148065698D01*
X76137482Y-148029388D01*
X76013000Y-148017128D01*
X75723750Y-148020200D01*
X75565000Y-148178950D01*
X75565000Y-149428200D01*
X75585000Y-149428200D01*
X75585000Y-149682200D01*
X75565000Y-149682200D01*
X75565000Y-149702200D01*
X75311000Y-149702200D01*
X75311000Y-149682200D01*
X74386750Y-149682200D01*
X74228000Y-149840950D01*
X74227433Y-149954322D01*
X74091174Y-149818063D01*
X73921656Y-149704795D01*
X73733298Y-149626774D01*
X73701072Y-149620364D01*
X73701072Y-148905199D01*
X73684008Y-148731945D01*
X73660728Y-148655200D01*
X74224928Y-148655200D01*
X74228000Y-149269450D01*
X74386750Y-149428200D01*
X75311000Y-149428200D01*
X75311000Y-148178950D01*
X75152250Y-148020200D01*
X74863000Y-148017128D01*
X74738518Y-148029388D01*
X74618820Y-148065698D01*
X74508506Y-148124663D01*
X74411815Y-148204015D01*
X74332463Y-148300706D01*
X74273498Y-148411020D01*
X74237188Y-148530718D01*
X74224928Y-148655200D01*
X73660728Y-148655200D01*
X73633472Y-148565349D01*
X73551405Y-148411813D01*
X73440962Y-148277238D01*
X73306387Y-148166795D01*
X73152851Y-148084728D01*
X72986255Y-148034192D01*
X72813001Y-148017128D01*
X72162999Y-148017128D01*
X71989745Y-148034192D01*
X71823149Y-148084728D01*
X71669613Y-148166795D01*
X71535038Y-148277238D01*
X71496010Y-148324794D01*
X71481002Y-148275320D01*
X71422037Y-148165006D01*
X71342685Y-148068315D01*
X71245994Y-147988963D01*
X71216089Y-147972978D01*
X72322068Y-146867000D01*
X72379928Y-146867000D01*
X72379928Y-147282000D01*
G37*
G04 #@! TD.AperFunction*
M02*
